<?xml version="1.0" encoding="utf-8"?>
<!-- Generator: Adobe Illustrator 16.0.0, SVG Export Plug-In . SVG Version: 6.00 Build 0)  -->
<!DOCTYPE svg PUBLIC "-//W3C//DTD SVG 1.1//EN" "http://www.w3.org/Graphics/SVG/1.1/DTD/svg11.dtd">
<svg version="1.1" id="Layer_1" xmlns="http://www.w3.org/2000/svg" xmlns:xlink="http://www.w3.org/1999/xlink" x="0px" y="0px"
	 width="74.667px" height="71.667px" viewBox="0 0 74.667 71.667" enable-background="new 0 0 74.667 71.667" xml:space="preserve">
<g>
	<g>
		<path fill="#888888" d="M53.367,16.455c0-3.1-2.523-5.622-5.623-5.622s-5.621,2.522-5.621,5.622c0,3.101,2.521,5.623,5.621,5.623
			S53.367,19.556,53.367,16.455z M52.748,16.455c0,2.761-2.244,5.005-5.004,5.005s-5.004-2.244-5.004-5.005
			c0-2.759,2.244-5.004,5.004-5.004S52.748,13.696,52.748,16.455z"/>
		<path fill="#888888" d="M41.289,22.8l0.398,0.895c0.002-0.001,3.6,0.692,6.057,0.692c1.084,0,1.992,0.014,2.688,0.035
			l-0.566-0.631c-0.912-0.019-1.812-0.021-2.121-0.021c-2.379,0-6.316-0.878-6.338-0.872 M54.113,25.26
			c0.873,0.446,1.58,1.136,2.049,1.968c0.41,0.727,0.641,1.562,0.641,2.439v8.739c0,0.186-0.055,0.366-0.156,0.522l-2.436,3.705
			V30.966c0-0.172-0.137-0.31-0.309-0.31c-0.17,0-0.309,0.138-0.309,0.31v12.653c0,0.006-0.002,0.011-0.004,0.017l-2.008,15.589
			c0,0.013-0.002,0.026-0.002,0.039c0,0.525-0.426,0.952-0.951,0.952h-6.078c-0.523,0-0.951-0.427-0.951-0.952
			c0-0.011,0-0.022-0.002-0.034L41.9,43.641c-0.006-0.042-0.02-0.083-0.041-0.121V29.21c0-0.171-0.139-0.309-0.311-0.309
			c-0.17,0-0.309,0.138-0.309,0.309v13.367l0.02,1.154c0.01,0.025,0.021,0.049,0.035,0.071l1.688,15.48
			c0.01,0.856,0.709,1.551,1.568,1.551h6.078c0.857,0,1.559-0.692,1.568-1.548l1.996-15.5l2.969-4.518
			c0.168-0.257,0.258-0.555,0.258-0.861v-8.739c0-0.901-0.215-1.763-0.604-2.528c-0.418-0.819-1.033-1.527-1.797-2.054L54.113,25.26
			z"/>
	</g>
	<g>
		<g>
			<path fill="#888888" d="M41.98,23.748c-0.402-0.038-0.729-0.236-0.99-0.371l-4.803-2.495c-0.613,0.777-1.385,1.405-2.264,1.843
				l7.936,6.172v0.827l-9.221-7.162l0.533-0.212c1.062-0.423,1.982-1.141,2.66-2.073l0.164-0.227l5.293,2.749
				c0,0,0.375,0.15,0.691,0.213S41.98,23.748,41.98,23.748z"/>
		</g>
	</g>
	<g>
		<g>
			<path fill="#888888" d="M36.26,28.897l2.504-1.898l0.518,0.418l-2.775,2.111l-0.246,0.188V28.897z M38.723,21.811l3.373-1.76
				l0.164,0.227c0.678,0.933,1.598,1.65,2.66,2.073l0.533,0.212l-1.609,1.356l-0.395-0.517l0.719-0.677
				c-0.879-0.438-1.65-1.066-2.264-1.843l-2.543,1.331L38.723,21.811z"/>
		</g>
	</g>
	<g>
		<g>
			<path fill="#888888" d="M52.334,25.906l-4.412-2.938l0.914-0.08c1.248-0.109,2.414-0.596,3.373-1.409l0.188-0.159l4.26,2.827
				c0.273,0.182,0.24,0.423,0.223,0.493c-0.045,0.196-0.17,0.719-4.424,1.25L52.334,25.906z M49.736,23.407l2.76,1.824
				c1.398-0.18,2.965-0.47,3.564-0.701l-3.623-2.399C51.639,22.761,50.721,23.194,49.736,23.407z"/>
		</g>
	</g>
	<g>
		<path fill="#888888" d="M30.381,22.078c3.1,0,5.621-2.522,5.621-5.623c0-3.1-2.521-5.622-5.621-5.622s-5.623,2.522-5.623,5.622
			C24.758,19.556,27.281,22.078,30.381,22.078z M30.381,11.451c2.76,0,5.004,2.245,5.004,5.004c0,2.761-2.244,5.005-5.004,5.005
			s-5.004-2.244-5.004-5.005C25.377,13.696,27.621,11.451,30.381,11.451z"/>
		<path fill="#888888" d="M33.973,23.407c-1.188,0.191-2.541,0.362-3.592,0.362c-0.309,0-1.209,0.002-2.121,0.021l-0.566,0.631
			c0.695-0.021,1.604-0.035,2.688-0.035c1.354,0,3.053-0.21,4.307-0.399L33.973,23.407z M23.105,25.085
			c-0.764,0.527-1.379,1.235-1.797,2.054c-0.389,0.765-0.604,1.626-0.604,2.528v8.739c0,0.306,0.09,0.604,0.258,0.861l2.969,4.518
			l1.996,15.5c0.01,0.856,0.711,1.548,1.568,1.548h6.078c0.859,0,1.559-0.695,1.568-1.551l1.688-15.48
			c0.014-0.022,0.025-0.046,0.035-0.071l0.02-1.154V29.21c0-0.171-0.139-0.309-0.309-0.309c-0.172,0-0.311,0.138-0.311,0.309v14.311
			c-0.021,0.038-0.035,0.078-0.041,0.121L34.527,59.23c-0.002,0.012-0.002,0.022-0.002,0.034c0,0.525-0.428,0.952-0.951,0.952
			h-6.078c-0.525,0-0.951-0.427-0.951-0.952c0-0.013-0.002-0.026-0.002-0.039l-2.008-15.589c-0.002-0.006-0.004-0.011-0.004-0.017
			V30.966c0-0.172-0.139-0.31-0.309-0.31c-0.172,0-0.309,0.138-0.309,0.31v11.667l-2.436-3.705
			c-0.102-0.156-0.156-0.336-0.156-0.522v-8.739c0-0.878,0.23-1.713,0.641-2.439c0.469-0.832,1.176-1.521,2.049-1.968L23.105,25.085
			z"/>
	</g>
	<g>
		<g>
			<path fill="#888888" d="M25.67,25.891c-4.254-0.532-4.379-1.054-4.424-1.25c-0.018-0.07-0.051-0.311,0.223-0.493l4.275-2.896
				l0.188,0.158c0.959,0.812,2.125,1.3,3.373,1.409l0.914,0.08l-4.428,3.009L25.67,25.891z M25.703,22.062l-3.639,2.469
				c0.6,0.23,2.166,0.521,3.564,0.701l2.775-1.894C27.422,23.124,26.502,22.691,25.703,22.062z"/>
		</g>
	</g>
</g>
</svg>
