<?xml version="1.0" encoding="utf-8"?>
<!-- Generator: Adobe Illustrator 16.0.0, SVG Export Plug-In . SVG Version: 6.00 Build 0)  -->
<!DOCTYPE svg PUBLIC "-//W3C//DTD SVG 1.1//EN" "http://www.w3.org/Graphics/SVG/1.1/DTD/svg11.dtd">
<svg version="1.1" id="Layer_1" xmlns="http://www.w3.org/2000/svg" xmlns:xlink="http://www.w3.org/1999/xlink" x="0px" y="0px"
	 width="74.667px" height="71.667px" viewBox="0 0 74.667 71.667" enable-background="new 0 0 74.667 71.667" xml:space="preserve">
<g>
	<g>
		<path fill="#00A1DF" d="M24.885,21.842c3.101,0,5.622-2.523,5.622-5.623c0-3.1-2.521-5.622-5.622-5.622s-5.622,2.522-5.622,5.622
			C19.263,19.318,21.784,21.842,24.885,21.842z M24.885,11.214c2.759,0,5.005,2.245,5.005,5.004c0,2.76-2.246,5.005-5.005,5.005
			s-5.005-2.245-5.005-5.005C19.88,13.459,22.126,11.214,24.885,11.214z"/>
		<path fill="#00A1DF" d="M30.743,24.143c-0.021-0.007-1.459-0.448-1.459-0.448c-0.15-0.046-0.305-0.069-0.461-0.069
			c-0.656,0-1.248,0.415-1.473,1.032L26.132,28c-0.188-0.814-0.278-1.195-0.324-1.379l0.914-1.587
			c0.176-0.301,0.176-0.675,0.001-0.977c-0.173-0.301-0.497-0.488-0.845-0.488h-1.986c-0.348,0-0.671,0.187-0.846,0.489
			c-0.172,0.301-0.172,0.675,0.001,0.975l0.917,1.588c-0.047,0.184-0.139,0.565-0.326,1.38l-1.219-3.344
			c-0.225-0.617-0.816-1.032-1.473-1.032c-0.156,0-0.311,0.023-0.461,0.069c0,0-1.452,0.446-1.466,0.45
			c-2.279,0.759-3.811,2.883-3.811,5.286v8.739c0,0.306,0.089,0.604,0.259,0.861l2.967,4.515l1.688,15.5
			c0.01,0.857,0.711,1.551,1.569,1.551h6.387c0.859,0,1.56-0.694,1.569-1.551l1.686-15.479c0.016-0.022,0.027-0.046,0.036-0.071
			l2.933-4.463c0.17-0.256,0.259-0.554,0.259-0.862v-8.739C34.561,27.028,33.029,24.904,30.743,24.143z M23.581,24.725
			c-0.062-0.11-0.062-0.248,0-0.358c0.064-0.111,0.184-0.179,0.311-0.179h1.986c0.127,0,0.246,0.068,0.311,0.179
			c0.063,0.111,0.063,0.248,0,0.358l-0.979,1.697c-0.046,0.08-0.054,0.173-0.023,0.258c0.043,0.15,0.374,1.587,0.577,2.472
			l0.799,4.35l-1.624,2.267l-1.626-2.27l0.697-4.352c0.203-0.886,0.533-2.317,0.576-2.466c0.029-0.085,0.021-0.179-0.023-0.258
			L23.581,24.725z M33.942,38.169c0,0.186-0.054,0.367-0.156,0.522l-2.398,3.649V30.729c0-0.17-0.138-0.309-0.309-0.309
			c-0.17,0-0.309,0.139-0.309,0.309v12.556c-0.021,0.037-0.036,0.077-0.041,0.12l-1.698,15.59c-0.001,0.01-0.002,0.022-0.002,0.033
			c0,0.524-0.427,0.951-0.951,0.951h-6.387c-0.524,0-0.951-0.427-0.951-0.951c0-0.011-0.001-0.023-0.002-0.033l-1.698-15.59
			c-0.001-0.007-0.004-0.014-0.005-0.021V30.729c0-0.17-0.138-0.309-0.31-0.309c-0.17,0-0.309,0.139-0.309,0.309v11.667
			l-2.434-3.705c-0.103-0.156-0.156-0.337-0.156-0.522v-8.739c0-2.137,1.361-4.024,3.382-4.698c0.029-0.009,1.458-0.448,1.458-0.448
			c0.091-0.028,0.186-0.042,0.279-0.042c0.397,0,0.756,0.251,0.893,0.625l1.549,4.25l-0.707,4.407
			c-0.013,0.08,0.007,0.162,0.055,0.229l1.951,2.723c0.059,0.081,0.151,0.129,0.251,0.129c0.099,0,0.192-0.048,0.251-0.129
			l1.951-2.723c0.049-0.069,0.068-0.154,0.053-0.236l-0.809-4.404l1.547-4.246c0.137-0.374,0.495-0.625,0.893-0.625
			c0.094,0,0.188,0.014,0.279,0.042c0,0,1.451,0.445,1.453,0.447c2.025,0.675,3.387,2.563,3.387,4.699V38.169z"/>
	</g>
	<g>
		<path fill="#00A1DF" d="M49.782,21.842c3.101,0,5.622-2.523,5.622-5.623c0-3.1-2.521-5.622-5.622-5.622s-5.622,2.522-5.622,5.622
			C44.16,19.318,46.682,21.842,49.782,21.842z M49.782,11.214c2.759,0,5.005,2.245,5.005,5.004c0,2.76-2.246,5.005-5.005,5.005
			s-5.005-2.245-5.005-5.005C44.777,13.459,47.023,11.214,49.782,11.214z"/>
		<path fill="#00A1DF" d="M55.641,24.143c-0.021-0.007-1.459-0.448-1.459-0.448c-0.15-0.046-0.305-0.069-0.461-0.069
			c-0.656,0-1.248,0.415-1.473,1.032L51.029,28c-0.188-0.814-0.278-1.195-0.324-1.379l0.914-1.587
			c0.176-0.301,0.176-0.675,0.001-0.977c-0.173-0.301-0.497-0.488-0.845-0.488h-1.986c-0.348,0-0.671,0.187-0.846,0.489
			c-0.172,0.301-0.172,0.675,0.001,0.975l0.917,1.588c-0.047,0.184-0.139,0.565-0.326,1.38l-1.219-3.344
			c-0.225-0.617-0.816-1.032-1.473-1.032c-0.156,0-0.311,0.023-0.461,0.069c0,0-1.452,0.446-1.466,0.45
			c-2.279,0.759-3.811,2.883-3.811,5.286v8.739c0,0.306,0.089,0.604,0.259,0.861l2.967,4.515l1.688,15.5
			c0.01,0.857,0.711,1.551,1.569,1.551h6.387c0.859,0,1.56-0.694,1.569-1.551l1.686-15.479c0.016-0.022,0.027-0.046,0.036-0.071
			l2.933-4.463c0.17-0.256,0.259-0.554,0.259-0.862v-8.739C59.458,27.028,57.927,24.904,55.641,24.143z M48.479,24.725
			c-0.062-0.11-0.062-0.248,0-0.358c0.064-0.111,0.184-0.179,0.311-0.179h1.986c0.127,0,0.246,0.068,0.311,0.179
			c0.063,0.111,0.063,0.248,0,0.358l-0.979,1.697c-0.046,0.08-0.054,0.173-0.023,0.258c0.043,0.15,0.374,1.587,0.577,2.472
			l0.799,4.35l-1.624,2.267l-1.626-2.27l0.697-4.352c0.203-0.886,0.533-2.317,0.576-2.466c0.029-0.085,0.021-0.179-0.023-0.258
			L48.479,24.725z M58.84,38.169c0,0.186-0.054,0.367-0.156,0.522l-2.398,3.649V30.729c0-0.17-0.138-0.309-0.309-0.309
			c-0.17,0-0.309,0.139-0.309,0.309v12.556c-0.021,0.037-0.036,0.077-0.041,0.12l-1.698,15.59c-0.001,0.01-0.002,0.022-0.002,0.033
			c0,0.524-0.427,0.951-0.951,0.951h-6.387c-0.524,0-0.951-0.427-0.951-0.951c0-0.011-0.001-0.023-0.002-0.033l-1.698-15.59
			c-0.001-0.007-0.004-0.014-0.005-0.021V30.729c0-0.17-0.138-0.309-0.31-0.309c-0.17,0-0.309,0.139-0.309,0.309v11.667
			l-2.434-3.705c-0.103-0.156-0.156-0.337-0.156-0.522v-8.739c0-2.137,1.361-4.024,3.382-4.698c0.029-0.009,1.458-0.448,1.458-0.448
			c0.091-0.028,0.186-0.042,0.279-0.042c0.397,0,0.756,0.251,0.893,0.625l1.549,4.25l-0.707,4.407
			c-0.013,0.08,0.007,0.162,0.055,0.229l1.951,2.723c0.059,0.081,0.151,0.129,0.251,0.129c0.099,0,0.192-0.048,0.251-0.129
			l1.951-2.723c0.049-0.069,0.068-0.154,0.053-0.236l-0.809-4.404l1.547-4.246c0.137-0.374,0.495-0.625,0.893-0.625
			c0.094,0,0.188,0.014,0.279,0.042c0,0,1.451,0.445,1.453,0.447c2.025,0.675,3.387,2.563,3.387,4.699V38.169z"/>
	</g>
</g>
</svg>
