<?xml version="1.0" encoding="utf-8"?>
<!-- Generator: Adobe Illustrator 16.0.0, SVG Export Plug-In . SVG Version: 6.00 Build 0)  -->
<!DOCTYPE svg PUBLIC "-//W3C//DTD SVG 1.1//EN" "http://www.w3.org/Graphics/SVG/1.1/DTD/svg11.dtd">
<svg version="1.1" id="Layer_1" xmlns="http://www.w3.org/2000/svg" xmlns:xlink="http://www.w3.org/1999/xlink" x="0px" y="0px"
	 width="74.667px" height="71.667px" viewBox="0 0 74.667 71.667" enable-background="new 0 0 74.667 71.667" xml:space="preserve">
<g>
	<g>
		<path fill="#888888" d="M23.877,19.723c3.1,0,5.622-2.522,5.622-5.623c0-3.1-2.522-5.622-5.622-5.622S18.255,11,18.255,14.1
			C18.255,17.201,20.778,19.723,23.877,19.723z M23.877,9.096c2.76,0,5.004,2.245,5.004,5.004c0,2.761-2.244,5.005-5.004,5.005
			s-5.004-2.244-5.004-5.005C18.874,11.341,21.118,9.096,23.877,9.096z"/>
		<path fill="#888888" d="M29.736,22.023c-0.021-0.006-1.459-0.447-1.459-0.447c-0.499-0.153-3.752-0.161-4.399-0.161
			c-0.646,0-3.9,0.008-4.399,0.161c-1.452,0.446-1.46,0.448-1.466,0.45c-2.279,0.76-3.811,2.883-3.811,5.286v8.739
			c0,0.306,0.09,0.604,0.258,0.861l2.969,4.518l1.996,15.5c0.011,0.856,0.711,1.548,1.568,1.548h6.078
			c0.859,0,1.56-0.695,1.568-1.551l1.688-15.48c0.015-0.022,0.025-0.046,0.035-0.071l2.933-4.463
			c0.169-0.256,0.259-0.554,0.259-0.862v-8.739C33.553,24.91,32.022,22.786,29.736,22.023z M32.936,36.051
			c0,0.187-0.055,0.366-0.157,0.522l-2.397,3.649V28.611c0-0.172-0.139-0.31-0.309-0.31c-0.171,0-0.31,0.138-0.31,0.31v12.555
			c-0.021,0.038-0.036,0.078-0.041,0.121l-1.698,15.589c-0.001,0.012-0.002,0.022-0.002,0.034c0,0.525-0.427,0.952-0.951,0.952
			h-6.078c-0.524,0-0.951-0.427-0.951-0.952c0-0.013-0.001-0.026-0.002-0.039l-2.008-15.589c-0.001-0.006-0.003-0.011-0.004-0.017
			V28.611c0-0.172-0.139-0.31-0.309-0.31c-0.171,0-0.309,0.138-0.309,0.31v11.667l-2.435-3.705
			c-0.103-0.156-0.157-0.336-0.157-0.522v-8.739c0-2.136,1.362-4.024,3.383-4.698c0.033-0.01,1.457-0.447,1.457-0.447
			c0.212-0.065,1.763-0.135,4.219-0.135c2.457,0,4.007,0.07,4.219,0.135c0,0,1.45,0.445,1.452,0.446
			c2.026,0.675,3.388,2.563,3.388,4.699V36.051z"/>
	</g>
	<g>
		<path fill="#888888" d="M37.699,40.192c1.573,0,2.853-1.28,2.853-2.853s-1.279-2.852-2.853-2.852s-2.854,1.279-2.854,2.852
			S36.125,40.192,37.699,40.192z M37.699,35.13c1.218,0,2.208,0.991,2.208,2.208c0,1.218-0.99,2.209-2.208,2.209
			c-1.219,0-2.21-0.991-2.21-2.209C35.489,36.122,36.48,35.13,37.699,35.13z"/>
		<path fill="#888888" d="M40.538,40.945c-0.028-0.008-0.663-0.204-0.691-0.213c-0.239-0.073-1.448-0.084-2.147-0.084
			c-0.7,0-1.909,0.011-2.147,0.084l-0.703,0.216c-1.156,0.385-1.934,1.464-1.934,2.684v4.163c0,0.179,0.052,0.354,0.151,0.506
			l1.393,2.119l0.943,7.322c0.006,0.503,0.42,0.911,0.922,0.911h2.896c0.504,0,0.917-0.409,0.921-0.895l0.8-7.341l1.391-2.116
			c0.099-0.151,0.151-0.327,0.151-0.506v-4.163C42.482,42.413,41.704,41.333,40.538,40.945z M40.327,44.251v5.943
			c-0.01,0.026-0.017,0.052-0.019,0.076l-0.811,7.461c0,0.153-0.125,0.278-0.278,0.278h-2.896c-0.153,0-0.278-0.125-0.28-0.319
			l-0.955-7.404l-0.002-0.037v-5.998c0-0.178-0.144-0.322-0.321-0.322s-0.322,0.144-0.322,0.322v4.972l-0.839-1.276
			c-0.029-0.045-0.046-0.098-0.046-0.151v-4.163c0-0.942,0.6-1.774,1.488-2.07l0.691-0.213c0.096-0.023,0.785-0.058,1.961-0.058
			s1.864,0.035,1.957,0.057c0,0,0.661,0.203,0.688,0.211c0.894,0.297,1.494,1.13,1.494,2.072v4.163c0,0.054-0.017,0.106-0.047,0.152
			l-0.82,1.25v-4.946c0-0.178-0.145-0.322-0.322-0.322S40.327,44.073,40.327,44.251z"/>
	</g>
	<g>
		<path fill="#888888" d="M62.451,36.051v-8.739c0-2.402-1.531-4.526-3.817-5.289c-0.021-0.006-1.459-0.447-1.458-0.447
			c-0.5-0.153-3.753-0.161-4.4-0.161c-0.646,0-3.9,0.008-4.399,0.161c-1.452,0.446-1.46,0.448-1.466,0.45
			c-2.279,0.76-3.811,2.883-3.811,5.286v8.739c0,0.306,0.09,0.604,0.258,0.861l1.896,2.896l-2.001,8.03
			c-0.043,0.175,0.062,0.351,0.237,0.394c0.026,0.007,0.053,0.01,0.078,0.01c0.006,0,0.01-0.005,0.016-0.005l-0.016,0.023h3.651
			l1.104,8.67c0.011,0.856,0.711,1.548,1.568,1.548h6.078c0.859,0,1.56-0.695,1.568-1.551l0.931-8.667h3.552l-0.002-0.019
			c0,0,0.001,0,0.002,0c0.025,0,0.052-0.003,0.078-0.01c0.175-0.043,0.28-0.219,0.237-0.394l-2.016-8.063
			c0.846-1.293,1.873-2.862,1.873-2.862C62.361,36.656,62.451,36.359,62.451,36.051z M61.833,36.051
			c0,0.187-0.055,0.366-0.157,0.522l-1.563,2.381l-0.821-3.286v-6.958c0-0.18-0.146-0.325-0.325-0.325s-0.325,0.146-0.325,0.325
			l0.01,7.037l2.984,11.975h-3.707l-1.007,9.154c-0.001,0.012-0.002,0.022-0.002,0.034c0,0.525-0.427,0.952-0.951,0.952H49.89
			c-0.524,0-0.951-0.427-0.951-0.952c0-0.013-0.001-0.026-0.002-0.039l-1.165-9.149h-3.821l2.994-12.054v-6.958
			c0-0.18-0.146-0.325-0.325-0.325s-0.325,0.146-0.325,0.325l0.01,6.879l-0.847,3.396l-1.584-2.412
			c-0.103-0.156-0.157-0.336-0.157-0.522v-8.739c0-2.136,1.362-4.024,3.383-4.698c0.033-0.01,1.457-0.447,1.457-0.447
			c0.212-0.065,1.763-0.135,4.219-0.135c2.457,0,4.007,0.07,4.219,0.135c0,0,1.45,0.445,1.452,0.446
			c2.026,0.675,3.388,2.563,3.388,4.699V36.051z"/>
		<path fill="#888888" d="M45.558,22.233c0.041,0.019,0.083,0.027,0.125,0.027c0.113,0,0.223-0.065,0.272-0.176
			c0.069-0.151,0.003-0.329-0.147-0.397c-0.521-0.238-0.859-0.561-1.005-0.961c-0.11-0.305-0.094-0.61-0.049-0.839
			c0.311,0.213,0.796,0.461,1.369,0.461c0.002,0,0.005,0,0.007,0c1.268-0.004,1.603-0.937,1.603-1.429v-2.346
			c0.917,1.863,2.83,3.151,5.042,3.151c2.189,0,4.086-1.26,5.014-3.092v2.288c0,0.493,0.335,1.425,1.603,1.429
			c0.002,0,0.005,0,0.007,0c0.573,0,1.058-0.248,1.369-0.46c0.044,0.227,0.062,0.53-0.047,0.833
			c-0.145,0.403-0.483,0.728-1.007,0.967c-0.15,0.069-0.217,0.247-0.147,0.397c0.05,0.11,0.159,0.176,0.272,0.176
			c0.042,0,0.084-0.009,0.125-0.027c0.676-0.309,1.12-0.75,1.321-1.311c0.304-0.847-0.077-1.644-0.094-1.678
			c-0.043-0.087-0.126-0.149-0.222-0.165c-0.1-0.014-0.195,0.018-0.263,0.087c-0.006,0.006-0.574,0.581-1.309,0.581
			c-0.002,0-0.003,0-0.005,0c-0.943-0.003-1.002-0.694-1.005-0.83v-4.25c0-0.017-0.015-0.027-0.018-0.043
			c0.016-0.173,0.026-0.348,0.026-0.525c0-3.1-2.522-5.622-5.622-5.622S47.153,11,47.153,14.1c0,0.156,0.011,0.311,0.023,0.464
			c-0.015,0.035-0.043,0.063-0.043,0.104v4.25c0,0.084-0.028,0.826-1.005,0.83c-0.002,0-0.003,0-0.005,0
			c-0.728,0-1.304-0.575-1.31-0.581c-0.067-0.069-0.165-0.102-0.262-0.086c-0.097,0.017-0.179,0.077-0.222,0.164
			c-0.017,0.034-0.397,0.831-0.094,1.678C44.438,21.483,44.882,21.924,45.558,22.233z M57.764,13.952
			c-4.71-0.155-6.663-3.554-7.07-4.389c0.636-0.293,1.336-0.467,2.081-0.467C55.484,9.096,57.683,11.262,57.764,13.952z
			 M50.125,9.872c0.502,0.979,2.683,4.556,7.603,4.728c-0.255,2.523-2.364,4.505-4.953,4.505c-2.76,0-5.004-2.244-5.004-5.005
			C47.771,12.316,48.716,10.758,50.125,9.872z"/>
	</g>
</g>
</svg>
