<?xml version="1.0" encoding="utf-8"?>
<!-- Generator: Adobe Illustrator 16.0.0, SVG Export Plug-In . SVG Version: 6.00 Build 0)  -->
<!DOCTYPE svg PUBLIC "-//W3C//DTD SVG 1.1//EN" "http://www.w3.org/Graphics/SVG/1.1/DTD/svg11.dtd">
<svg version="1.1" id="Layer_1" xmlns="http://www.w3.org/2000/svg" xmlns:xlink="http://www.w3.org/1999/xlink" x="0px" y="0px"
	 width="74.667px" height="71.667px" viewBox="0 0 74.667 71.667" enable-background="new 0 0 74.667 71.667" xml:space="preserve">
<g>
	<path fill="#888888" d="M37.333,21.84c3.1,0,5.621-2.522,5.621-5.623c0-3.1-2.521-5.622-5.621-5.622s-5.623,2.522-5.623,5.622
		C31.71,19.318,34.234,21.84,37.333,21.84z M37.333,11.213c2.76,0,5.004,2.245,5.004,5.004c0,2.76-2.244,5.005-5.004,5.005
		s-5.004-2.245-5.004-5.005C32.33,13.458,34.574,11.213,37.333,11.213z"/>
	<path fill="#888888" d="M43.191,24.141c-0.021-0.006-1.459-0.448-1.459-0.448c-0.498-0.154-3.752-0.161-4.398-0.161
		s-3.9,0.007-4.4,0.161c-1.451,0.446-1.459,0.449-1.465,0.45c-2.279,0.76-3.811,2.884-3.811,5.286v8.739
		c0,0.306,0.09,0.604,0.258,0.861l2.969,4.518l1.996,15.5c0.01,0.856,0.711,1.548,1.568,1.548h6.078
		c0.859,0,1.559-0.695,1.568-1.552l1.688-15.479c0.014-0.022,0.025-0.046,0.035-0.071l2.932-4.463c0.17-0.256,0.26-0.554,0.26-0.862
		v-8.739C47.009,27.027,45.478,24.903,43.191,24.141z M46.392,38.168c0,0.187-0.055,0.366-0.158,0.522l-2.396,3.649V30.728
		c0-0.171-0.139-0.309-0.309-0.309c-0.172,0-0.311,0.138-0.311,0.309v12.556c-0.021,0.037-0.035,0.077-0.041,0.12L41.48,58.993
		c-0.002,0.011-0.002,0.023-0.002,0.034c0,0.525-0.428,0.951-0.951,0.951h-6.078c-0.525,0-0.951-0.426-0.951-0.951
		c0-0.013-0.002-0.026-0.002-0.039l-2.008-15.59c-0.002-0.006-0.004-0.011-0.004-0.017V30.728c0-0.171-0.139-0.309-0.309-0.309
		c-0.172,0-0.309,0.138-0.309,0.309v11.667l-2.436-3.704c-0.102-0.156-0.156-0.337-0.156-0.522v-8.739
		c0-2.136,1.361-4.024,3.383-4.698c0.033-0.01,1.457-0.447,1.457-0.447c0.211-0.065,1.762-0.135,4.219-0.135s4.006,0.07,4.219,0.135
		c0,0,1.449,0.445,1.451,0.446c2.027,0.675,3.389,2.563,3.389,4.699V38.168z"/>
</g>
</svg>
