<?xml version="1.0" encoding="utf-8"?>
<!-- Generator: Adobe Illustrator 16.0.0, SVG Export Plug-In . SVG Version: 6.00 Build 0)  -->
<!DOCTYPE svg PUBLIC "-//W3C//DTD SVG 1.1//EN" "http://www.w3.org/Graphics/SVG/1.1/DTD/svg11.dtd">
<svg version="1.1" id="Layer_1" xmlns="http://www.w3.org/2000/svg" xmlns:xlink="http://www.w3.org/1999/xlink" x="0px" y="0px"
	 width="72px" height="80px" viewBox="0 0 72 80" enable-background="new 0 0 72 80" xml:space="preserve">
<g>
	<path fill="#DFE8F1" d="M5.629,17.143h21.848c0.373,0,0.674-0.301,0.674-0.673v-5.712c0-0.373-0.301-0.674-0.674-0.674H5.629
		c-0.371,0-0.672,0.301-0.672,0.674v5.712C4.957,16.842,5.258,17.143,5.629,17.143z M6.302,11.43h20.502v4.369H6.302V11.43z"/>
	<path fill="#DFE8F1" d="M66.469,22.521H5.629c-0.371,0-0.672,0.3-0.672,0.67c0,0.372,0.301,0.674,0.672,0.674h60.84
		c0.373,0,0.673-0.302,0.673-0.674C67.142,22.821,66.842,22.521,66.469,22.521z"/>
	<path fill="#DFE8F1" d="M66.469,26.219H5.629c-0.371,0-0.672,0.302-0.672,0.672c0,0.373,0.301,0.674,0.672,0.674h60.84
		c0.373,0,0.673-0.301,0.673-0.674C67.142,26.521,66.842,26.219,66.469,26.219z"/>
	<path fill="#DFE8F1" d="M66.469,29.916H5.629c-0.371,0-0.672,0.302-0.672,0.675c0,0.37,0.301,0.67,0.672,0.67h60.84
		c0.373,0,0.673-0.3,0.673-0.67C67.142,30.218,66.842,29.916,66.469,29.916z"/>
	<path fill="#DFE8F1" d="M66.469,58.823H5.629c-0.371,0-0.672,0.302-0.672,0.673s0.301,0.672,0.672,0.672h60.84
		c0.373,0,0.673-0.301,0.673-0.672S66.842,58.823,66.469,58.823z"/>
	<path fill="#DFE8F1" d="M66.469,62.522H5.629c-0.371,0-0.672,0.3-0.672,0.673c0,0.371,0.301,0.672,0.672,0.672h60.84
		c0.373,0,0.673-0.301,0.673-0.672C67.142,62.822,66.842,62.522,66.469,62.522z"/>
	<path fill="#DFE8F1" d="M66.469,66.22H5.629c-0.371,0-0.672,0.301-0.672,0.671c0,0.372,0.301,0.672,0.672,0.672h60.84
		c0.373,0,0.673-0.3,0.673-0.672C67.142,66.521,66.842,66.22,66.469,66.22z"/>
	<path fill="#DFE8F1" d="M5.629,40h37.647c0.372,0,0.674-0.301,0.674-0.672s-0.302-0.671-0.674-0.671H5.629
		c-0.371,0-0.672,0.3-0.672,0.671S5.258,40,5.629,40z"/>
	<path fill="#DFE8F1" d="M5.629,43.361h37.647c0.372,0,0.674-0.302,0.674-0.672c0-0.371-0.302-0.673-0.674-0.673H5.629
		c-0.371,0-0.672,0.302-0.672,0.673C4.957,43.06,5.258,43.361,5.629,43.361z"/>
	<path fill="#DFE8F1" d="M5.629,46.723h37.647c0.372,0,0.674-0.301,0.674-0.672s-0.302-0.674-0.674-0.674H5.629
		c-0.371,0-0.672,0.303-0.672,0.674S5.258,46.723,5.629,46.723z"/>
	<path fill="#DFE8F1" d="M5.629,35.294h29.245c0.369,0,0.671-0.302,0.671-0.671c0-0.373-0.302-0.672-0.671-0.672H5.629
		c-0.371,0-0.672,0.299-0.672,0.672C4.957,34.992,5.258,35.294,5.629,35.294z"/>
	<path fill="#DFE8F1" d="M5.629,51.429h15.799c0.37,0,0.671-0.302,0.671-0.671c0-0.372-0.301-0.674-0.671-0.674H5.629
		c-0.371,0-0.672,0.302-0.672,0.674C4.957,51.127,5.258,51.429,5.629,51.429z"/>
	<path fill="#DFE8F1" d="M5.629,54.791h15.799c0.37,0,0.671-0.302,0.671-0.674c0-0.369-0.301-0.672-0.671-0.672H5.629
		c-0.371,0-0.672,0.303-0.672,0.672C4.957,54.489,5.258,54.791,5.629,54.791z"/>
	<path fill="#DFE8F1" d="M43.95,50.084h-15.8c-0.372,0-0.674,0.302-0.674,0.674c0,0.369,0.302,0.671,0.674,0.671h15.8
		c0.369,0,0.67-0.302,0.67-0.671C44.62,50.386,44.319,50.084,43.95,50.084z"/>
	<path fill="#DFE8F1" d="M43.95,53.445h-15.8c-0.372,0-0.674,0.303-0.674,0.672c0,0.372,0.302,0.674,0.674,0.674h15.8
		c0.369,0,0.67-0.302,0.67-0.674C44.62,53.748,44.319,53.445,43.95,53.445z"/>
	<path fill="#DFE8F1" d="M71.959,10.758c0-0.219-0.104-0.412-0.263-0.535l-5.032-4.911l-4.986-5.108C61.553,0.073,61.377,0,61.196,0
		H0.924C0.552,0,0.25,0.301,0.25,0.672v8.74v68.571v1.345C0.25,79.698,0.552,80,0.924,80h70.252c0.371,0,0.672-0.302,0.672-0.672
		V11.126C71.918,11.02,71.959,10.895,71.959,10.758z M61.764,2.409l3.948,3.854l3.729,3.82h-7.677V2.409z M1.595,78.656v-0.673
		V9.412V1.345h58.824v9.413c0,0.369,0.301,0.672,0.673,0.672h9.413v67.227H1.595z"/>
	<g>
		<path fill="#DFE8F1" d="M55.928,50.457v-1.205c-0.782-0.023-1.564-0.247-2.012-0.545l0.335-1.168
			c0.483,0.286,1.18,0.547,1.938,0.547c0.782,0,1.315-0.386,1.315-0.981c0-0.559-0.433-0.919-1.354-1.255
			c-1.305-0.471-2.147-1.067-2.147-2.223c0-1.067,0.745-1.885,1.998-2.11V40.3h1.021v1.154c0.781,0.026,1.315,0.212,1.711,0.409
			l-0.333,1.145c-0.3-0.138-0.845-0.424-1.691-0.424c-0.866,0-1.178,0.447-1.178,0.87c0,0.511,0.446,0.795,1.503,1.216
			c1.39,0.521,2.012,1.192,2.012,2.299c0,1.056-0.731,1.985-2.101,2.209v1.279H55.928z"/>
	</g>
	<g>
		<path fill="#DFE8F1" d="M56.479,53.145c-4.28,0-7.765-3.485-7.765-7.766c0-4.281,3.484-7.766,7.765-7.766
			c4.281,0,7.767,3.484,7.767,7.766C64.246,49.659,60.761,53.145,56.479,53.145z M56.479,38.477c-3.806,0-6.902,3.097-6.902,6.902
			c0,3.805,3.097,6.9,6.902,6.9c3.808,0,6.901-3.096,6.901-6.9C63.381,41.573,60.287,38.477,56.479,38.477z"/>
	</g>
</g>
</svg>
