<?xml version="1.0" encoding="utf-8"?>
<!-- Generator: Adobe Illustrator 16.0.0, SVG Export Plug-In . SVG Version: 6.00 Build 0)  -->
<!DOCTYPE svg PUBLIC "-//W3C//DTD SVG 1.1//EN" "http://www.w3.org/Graphics/SVG/1.1/DTD/svg11.dtd">
<svg version="1.1" id="Layer_1" xmlns="http://www.w3.org/2000/svg" xmlns:xlink="http://www.w3.org/1999/xlink" x="0px" y="0px"
	 width="116.75px" height="116.5px" viewBox="0 0 116.75 116.5" enable-background="new 0 0 116.75 116.5" xml:space="preserve">
<g>
	<path fill="#DFE8F1" d="M30.16,35.1h21.103c0.358,0,0.649-0.29,0.649-0.649v-5.519c0-0.358-0.291-0.649-0.649-0.649H30.16
		c-0.359,0-0.649,0.291-0.649,0.649v5.519C29.51,34.81,29.8,35.1,30.16,35.1z M30.809,29.583h19.804v4.22H30.809V29.583z"/>
	<path fill="#DFE8F1" d="M88.924,40.295H30.16c-0.359,0-0.649,0.29-0.649,0.648c0,0.359,0.29,0.65,0.649,0.65h58.765
		c0.359,0,0.65-0.291,0.65-0.65C89.574,40.585,89.283,40.295,88.924,40.295z"/>
	<path fill="#DFE8F1" d="M88.924,43.867H30.16c-0.359,0-0.649,0.291-0.649,0.649c0,0.359,0.29,0.649,0.649,0.649h58.765
		c0.359,0,0.65-0.29,0.65-0.649C89.574,44.158,89.283,43.867,88.924,43.867z"/>
	<path fill="#DFE8F1" d="M88.924,47.439H30.16c-0.359,0-0.649,0.29-0.649,0.65c0,0.358,0.29,0.647,0.649,0.647h58.765
		c0.359,0,0.65-0.289,0.65-0.647C89.574,47.729,89.283,47.439,88.924,47.439z"/>
	<path fill="#DFE8F1" d="M88.924,75.36H30.16c-0.359,0-0.649,0.291-0.649,0.649s0.29,0.649,0.649,0.649h58.765
		c0.359,0,0.65-0.291,0.65-0.649S89.283,75.36,88.924,75.36z"/>
	<path fill="#DFE8F1" d="M88.924,78.932H30.16c-0.359,0-0.649,0.29-0.649,0.65c0,0.358,0.29,0.648,0.649,0.648h58.765
		c0.359,0,0.65-0.29,0.65-0.648C89.574,79.222,89.283,78.932,88.924,78.932z"/>
	<path fill="#DFE8F1" d="M88.924,82.502H30.16c-0.359,0-0.649,0.291-0.649,0.649s0.29,0.649,0.649,0.649h58.765
		c0.359,0,0.65-0.291,0.65-0.649S89.283,82.502,88.924,82.502z"/>
	<path fill="#DFE8F1" d="M30.16,57.178h36.363c0.359,0,0.649-0.291,0.649-0.649s-0.291-0.647-0.649-0.647H30.16
		c-0.359,0-0.649,0.289-0.649,0.647S29.8,57.178,30.16,57.178z"/>
	<path fill="#DFE8F1" d="M88.924,55.881h-8.441c-0.359,0-0.649,0.289-0.649,0.647s0.291,0.649,0.649,0.649h8.441
		c0.359,0,0.65-0.291,0.65-0.649S89.283,55.881,88.924,55.881z"/>
	<path fill="#DFE8F1" d="M30.16,60.425h36.363c0.359,0,0.649-0.291,0.649-0.65c0-0.357-0.291-0.649-0.649-0.649H30.16
		c-0.359,0-0.649,0.292-0.649,0.649C29.51,60.134,29.8,60.425,30.16,60.425z"/>
	<path fill="#DFE8F1" d="M88.924,59.125h-8.441c-0.359,0-0.649,0.292-0.649,0.649c0,0.359,0.291,0.65,0.649,0.65h8.441
		c0.359,0,0.65-0.291,0.65-0.65C89.574,59.417,89.283,59.125,88.924,59.125z"/>
	<path fill="#DFE8F1" d="M30.16,63.671h36.363c0.359,0,0.649-0.29,0.649-0.648s-0.291-0.65-0.649-0.65H30.16
		c-0.359,0-0.649,0.292-0.649,0.65S29.8,63.671,30.16,63.671z"/>
	<path fill="#DFE8F1" d="M88.924,62.373h-8.441c-0.359,0-0.649,0.292-0.649,0.65s0.291,0.648,0.649,0.648h8.441
		c0.359,0,0.65-0.29,0.65-0.648S89.283,62.373,88.924,62.373z"/>
	<path fill="#DFE8F1" d="M30.16,52.633h28.246c0.359,0,0.649-0.291,0.649-0.649c0-0.359-0.291-0.648-0.649-0.648H30.16
		c-0.359,0-0.649,0.289-0.649,0.648C29.51,52.342,29.8,52.633,30.16,52.633z"/>
	<path fill="#DFE8F1" d="M30.16,68.216h15.259c0.358,0,0.649-0.29,0.649-0.648s-0.291-0.649-0.649-0.649H30.16
		c-0.359,0-0.649,0.291-0.649,0.649S29.8,68.216,30.16,68.216z"/>
	<path fill="#DFE8F1" d="M30.16,71.465h15.259c0.358,0,0.649-0.292,0.649-0.65s-0.291-0.649-0.649-0.649H30.16
		c-0.359,0-0.649,0.291-0.649,0.649S29.8,71.465,30.16,71.465z"/>
	<path fill="#DFE8F1" d="M67.172,66.918h-15.26c-0.359,0-0.649,0.291-0.649,0.649s0.291,0.648,0.649,0.648h15.26
		c0.358,0,0.649-0.29,0.649-0.648S67.53,66.918,67.172,66.918z"/>
	<path fill="#DFE8F1" d="M67.172,70.166h-15.26c-0.359,0-0.649,0.291-0.649,0.649s0.291,0.65,0.649,0.65h15.26
		c0.358,0,0.649-0.292,0.649-0.65S67.53,70.166,67.172,70.166z"/>
	<path fill="#DFE8F1" d="M88.924,66.918H73.665c-0.359,0-0.649,0.291-0.649,0.649s0.291,0.648,0.649,0.648h15.259
		c0.359,0,0.65-0.29,0.65-0.648S89.283,66.918,88.924,66.918z"/>
	<path fill="#DFE8F1" d="M88.924,70.166H73.665c-0.359,0-0.649,0.291-0.649,0.649s0.291,0.65,0.649,0.65h15.259
		c0.359,0,0.65-0.292,0.65-0.65S89.283,70.166,88.924,70.166z"/>
	<path fill="#DFE8F1" d="M94.227,28.932c0-0.21-0.1-0.397-0.254-0.516l-4.861-4.743l-4.815-4.934
		c-0.123-0.126-0.29-0.197-0.465-0.197H25.613c-0.358,0-0.649,0.291-0.649,0.649v8.441v66.233v1.298c0,0.358,0.291,0.65,0.649,0.65
		H93.47c0.358,0,0.649-0.292,0.649-0.65V29.289C94.187,29.186,94.227,29.065,94.227,28.932z M84.379,20.87l3.813,3.723l3.602,3.69
		h-7.415V20.87z M26.263,94.516v-0.649V27.633v-7.792h56.818v9.091c0,0.358,0.29,0.65,0.649,0.65h9.091v64.934H26.263z"/>
</g>
</svg>
