<?xml version="1.0" encoding="utf-8"?>
<!-- Generator: Adobe Illustrator 16.0.0, SVG Export Plug-In . SVG Version: 6.00 Build 0)  -->
<!DOCTYPE svg PUBLIC "-//W3C//DTD SVG 1.1//EN" "http://www.w3.org/Graphics/SVG/1.1/DTD/svg11.dtd">
<svg version="1.1" id="Layer_1" xmlns="http://www.w3.org/2000/svg" xmlns:xlink="http://www.w3.org/1999/xlink" x="0px" y="0px"
	 width="116.75px" height="116.5px" viewBox="0 0 116.75 116.5" enable-background="new 0 0 116.75 116.5" xml:space="preserve">
<g>
	<path fill="#00A1DF" d="M68.117,27.082c5.771,0,10.467-4.696,10.467-10.469c0-5.771-4.695-10.466-10.467-10.466
		c-5.771,0-10.466,4.695-10.466,10.466C57.651,22.385,62.347,27.082,68.117,27.082z M68.117,7.437c5.061,0,9.176,4.116,9.176,9.176
		s-4.115,9.179-9.176,9.179c-5.059,0-9.175-4.119-9.175-9.179S63.059,7.437,68.117,7.437z"/>
	<path fill="#00A1DF" d="M72.995,41.615h4.841c0.355,0,0.645-0.289,0.645-0.646s-0.289-0.646-0.645-0.646h-4.841
		c-0.355,0-0.645,0.289-0.645,0.646S72.64,41.615,72.995,41.615z"/>
	<path fill="#00A1DF" d="M86.87,49.036h-0.793v-8.001c0-4.473-2.851-8.429-7.106-9.845c-0.018-0.006-2.698-0.83-2.698-0.83
		c-0.285-0.086-0.578-0.132-0.875-0.132c-1.244,0-2.366,0.787-2.792,1.957l-2.167,5.943c-0.298-1.293-0.452-1.942-0.536-2.276
		l1.677-2.907c0.336-0.578,0.336-1.3,0.001-1.879s-0.959-0.939-1.627-0.939h-3.67c-0.669,0-1.292,0.36-1.628,0.939
		c-0.334,0.58-0.333,1.301,0,1.878l1.68,2.908c-0.084,0.334-0.238,0.983-0.538,2.277l-2.167-5.944
		c-0.425-1.17-1.548-1.957-2.792-1.957c-0.296,0-0.59,0.046-0.874,0.132c0,0-0.77,0.237-1.488,0.458V26.45
		c0-0.356-0.289-0.646-0.646-0.646H29.436c-0.355,0-0.645,0.289-0.645,0.646v18.714c0,0.356,0.289,0.646,0.645,0.646h11.138
		l-0.992,3.227H26.854c-0.356,0-0.645,0.289-0.645,0.646v10.648c0,0.356,0.288,0.645,0.645,0.645h1.937v44.527
		c0,0.356,0.289,0.646,0.645,0.646h54.854c0.355,0,0.645-0.289,0.645-0.646V60.974h1.937c0.356,0,0.645-0.289,0.645-0.645V49.681
		C87.515,49.325,87.227,49.036,86.87,49.036z M73.818,32.626c0.241-0.663,0.875-1.107,1.579-1.107c0.168,0,0.334,0.025,0.496,0.075
		c0,0,2.656,0.815,2.683,0.823c3.714,1.237,6.21,4.7,6.21,8.617v8.001H72.367c0.085-0.137,0.119-0.3,0.09-0.459l-1.492-8.121
		L73.818,32.626z M65.774,32.297c-0.104-0.18-0.104-0.404,0-0.585c0.104-0.182,0.299-0.295,0.509-0.295h3.67
		c0.209,0,0.404,0.113,0.509,0.295c0.104,0.181,0.104,0.405,0,0.585l-1.81,3.138c-0.095,0.164-0.111,0.36-0.05,0.537
		c0.083,0.289,0.692,2.935,1.064,4.562l1.472,8.005l-0.355,0.496h-5.137l-0.36-0.503l1.285-8.011
		c0.373-1.629,0.98-4.262,1.062-4.549c0.062-0.178,0.045-0.374-0.049-0.538L65.774,32.297z M58.476,45.164V32.167
		c0.791-0.243,1.867-0.573,1.867-0.573c0.162-0.05,0.328-0.075,0.495-0.075c0.704,0,1.339,0.444,1.579,1.107l2.856,7.836
		l-1.303,8.128c-0.025,0.155,0.01,0.312,0.093,0.445h-6.557v-3.227h0.323C58.187,45.809,58.476,45.52,58.476,45.164z M56.218,45.809
		v3.227h-4.769v-3.227H56.218z M30.081,27.095h27.104v17.424H45.641h-4.194H30.081V27.095z M45.164,45.809l0.894,2.904h-5.028
		l0.894-2.904H45.164z M46.515,45.809h3.645v3.227h-2.651L46.515,45.809z M83.644,104.856H30.081V60.974h53.562V104.856z
		 M86.225,59.683h-1.936H29.436H27.5v-9.356h37.483h1.588h3.287h1.588h14.778V59.683z"/>
</g>
</svg>
