<?xml version="1.0" encoding="utf-8"?>
<!-- Generator: Adobe Illustrator 16.0.0, SVG Export Plug-In . SVG Version: 6.00 Build 0)  -->
<!DOCTYPE svg PUBLIC "-//W3C//DTD SVG 1.1//EN" "http://www.w3.org/Graphics/SVG/1.1/DTD/svg11.dtd">
<svg version="1.1" id="Layer_1" xmlns="http://www.w3.org/2000/svg" xmlns:xlink="http://www.w3.org/1999/xlink" x="0px" y="0px"
	 width="116.75px" height="116.5px" viewBox="0 0 116.75 116.5" enable-background="new 0 0 116.75 116.5" xml:space="preserve">
<g>
	<path fill="#00A1DF" d="M58.375,26.972c6.2,0,11.244-5.046,11.244-11.246c0-6.2-5.044-11.244-11.244-11.244
		S47.132,9.526,47.132,15.726C47.132,21.926,52.175,26.972,58.375,26.972z M58.375,5.717c5.519,0,10.009,4.49,10.009,10.009
		c0,5.52-4.49,10.01-10.009,10.01s-10.009-4.49-10.009-10.01C48.366,10.208,52.856,5.717,58.375,5.717z"/>
	<path fill="#00A1DF" d="M70.092,31.573c-0.043-0.013-2.917-0.896-2.917-0.896c-0.301-0.093-0.61-0.139-0.922-0.139
		c-1.313,0-2.498,0.829-2.946,2.063l-2.438,6.687c-0.375-1.628-0.557-2.39-0.649-2.757l1.83-3.174
		c0.35-0.602,0.35-1.351,0.001-1.953c-0.347-0.602-0.995-0.976-1.69-0.976H56.39c-0.695,0-1.343,0.374-1.691,0.977
		c-0.346,0.601-0.346,1.35,0.001,1.95l1.833,3.176c-0.094,0.367-0.275,1.13-0.651,2.759l-2.437-6.688
		c-0.449-1.234-1.634-2.063-2.947-2.063c-0.312,0-0.621,0.046-0.921,0.139c0,0-2.904,0.892-2.932,0.9
		c-4.559,1.519-7.621,5.767-7.621,10.571v17.479c0,0.612,0.179,1.208,0.517,1.723l5.934,9.029l3.377,31
		c0.02,1.714,1.42,3.103,3.138,3.103h12.773c1.719,0,3.118-1.389,3.138-3.103l3.373-30.959c0.03-0.044,0.053-0.092,0.071-0.143
		l5.866-8.927c0.338-0.512,0.517-1.108,0.517-1.723V42.149C77.727,37.344,74.664,33.096,70.092,31.573z M55.769,32.738
		c-0.127-0.22-0.127-0.495,0-0.716c0.128-0.222,0.366-0.358,0.621-0.358h3.971c0.256,0,0.493,0.136,0.621,0.358
		c0.128,0.222,0.128,0.495,0,0.716l-1.958,3.394c-0.091,0.159-0.107,0.347-0.047,0.517c0.086,0.299,0.749,3.173,1.153,4.943
		l1.599,8.698l-3.248,4.533l-3.253-4.54l1.395-8.703c0.406-1.771,1.067-4.633,1.152-4.932c0.061-0.17,0.045-0.359-0.046-0.517
		L55.769,32.738z M76.491,59.627c0,0.372-0.108,0.733-0.313,1.044l-4.796,7.298V44.746c0-0.34-0.276-0.617-0.617-0.617
		c-0.342,0-0.618,0.277-0.618,0.617v25.112c-0.042,0.074-0.072,0.154-0.081,0.24l-3.397,31.18c-0.003,0.021-0.004,0.044-0.004,0.066
		c0,1.049-0.854,1.902-1.902,1.902H51.988c-1.049,0-1.902-0.854-1.902-1.902c0-0.022-0.001-0.046-0.004-0.066l-3.397-31.18
		c-0.001-0.014-0.007-0.028-0.009-0.042v-25.31c0-0.34-0.276-0.617-0.618-0.617c-0.341,0-0.617,0.277-0.617,0.617v23.335
		l-4.868-7.409c-0.205-0.312-0.313-0.673-0.313-1.044V42.149c0-4.272,2.723-8.049,6.765-9.396c0.059-0.018,2.915-0.896,2.915-0.896
		c0.183-0.056,0.371-0.084,0.559-0.084c0.796,0,1.514,0.503,1.786,1.251l3.098,8.5l-1.413,8.813
		c-0.026,0.161,0.013,0.326,0.107,0.459l3.902,5.446c0.117,0.162,0.304,0.258,0.503,0.258c0.198,0,0.386-0.096,0.502-0.258
		l3.903-5.446c0.098-0.138,0.136-0.308,0.105-0.472l-1.619-8.809l3.096-8.492c0.271-0.748,0.989-1.251,1.785-1.251
		c0.188,0,0.376,0.028,0.559,0.084c0,0,2.901,0.891,2.905,0.893c4.052,1.35,6.774,5.127,6.774,9.398V59.627z"/>
</g>
</svg>
