<?xml version="1.0" encoding="utf-8"?>
<!-- Generator: Adobe Illustrator 16.0.0, SVG Export Plug-In . SVG Version: 6.00 Build 0)  -->
<!DOCTYPE svg PUBLIC "-//W3C//DTD SVG 1.1//EN" "http://www.w3.org/Graphics/SVG/1.1/DTD/svg11.dtd">
<svg version="1.1" id="Layer_1" xmlns="http://www.w3.org/2000/svg" xmlns:xlink="http://www.w3.org/1999/xlink" x="0px" y="0px"
	 width="101px" height="82px" viewBox="0 0 101 82" enable-background="new 0 0 101 82" xml:space="preserve">
<g>
	<path fill="#1E252B" d="M9.584,51.741h2.654v17.167h9.016v2.41H9.584V51.741z"/>
	<path fill="#1E252B" d="M23.331,58.616c0.917-1.572,2.931-2.741,6.062-2.741c4.335,0,6.747,1.732,6.747,5.039v5.556
		c0,3.521-3.062,5.12-7.344,5.12c-4.037,0-6.124-1.562-6.124-4.679c0-3.304,3.32-4.246,6.41-4.246c2.382,0,4.51,0.135,4.51,0.135
		v-1.506c0-2.222-1.301-3.169-4.199-3.169c-2.396,0-3.614,0.829-4.03,1.955L23.331,58.616z M28.822,69.477
		c2.9,0,4.77-0.922,4.77-3.252V65.25c0,0-3.17-0.141-4.932-0.141c-2.601,0-3.699,0.248-3.699,1.955
		C24.961,68.826,26.547,69.477,28.822,69.477z"/>
	<path fill="#00548B" d="M51.244,58.616c0.916-1.572,2.93-2.741,6.061-2.741c4.336,0,6.746,1.732,6.746,5.039v5.556
		c0,3.521-3.062,5.12-7.343,5.12c-4.037,0-6.124-1.562-6.124-4.679c0-3.304,3.32-4.246,6.411-4.246c2.382,0,4.509,0.135,4.509,0.135
		v-1.506c0-2.222-1.301-3.169-4.199-3.169c-2.396,0-3.615,0.829-4.031,1.955L51.244,58.616z M56.734,69.477
		c2.899,0,4.77-0.922,4.77-3.252V65.25c0,0-3.17-0.141-4.932-0.141c-2.602,0-3.699,0.248-3.699,1.955
		C52.873,68.826,54.459,69.477,56.734,69.477z"/>
	<path fill="#00548B" d="M82.314,58.616c0.918-1.572,2.933-2.741,6.061-2.741c4.336,0,6.748,1.732,6.748,5.039v5.556
		c0,3.521-3.062,5.12-7.344,5.12c-4.037,0-6.125-1.562-6.125-4.679c0-3.304,3.32-4.246,6.412-4.246c2.382,0,4.51,0.135,4.51,0.135
		v-1.506c0-2.222-1.301-3.169-4.201-3.169c-2.395,0-3.611,0.829-4.029,1.955L82.314,58.616z M87.807,69.477
		c2.9,0,4.771-0.922,4.771-3.252V65.25c0,0-3.17-0.141-4.933-0.141c-2.6,0-3.699,0.248-3.699,1.955
		C83.945,68.826,85.531,69.477,87.807,69.477z"/>
	<path fill="#00548B" d="M43.434,54.152h-5.645v-2.411h13.943v2.411h-5.645v17.166h-2.655L43.434,54.152L43.434,54.152z"/>
	<path fill="#00548B" d="M73.201,64.843c-3.129,0-6.572-0.571-6.572-3.524v-1.055c0-2.438,2.357-4.389,6.693-4.389
		c3.5,0,5.912,1.275,6.761,3.143l-2.202,1.328c-0.622-0.986-1.719-1.846-4.559-1.846c-2.9,0-4.174,0.789-4.174,2.035l0,0
		c0,1.49,1.541,2.086,4.363,2.086l0,0c3.254,0,6.57,0.654,6.57,3.607v1.053c0,2.438-2.355,4.39-6.691,4.39
		c-3.502,0-5.914-1.276-6.763-3.142l2.202-1.328c0.622,0.986,1.72,1.845,4.561,1.845c2.897,0,4.172-0.789,4.172-2.035l0,0
		C77.562,65.521,75.986,64.843,73.201,64.843L73.201,64.843z"/>
	<path fill="#00548B" d="M47.008,43.253H32.926c-4.739,0-8.595-3.856-8.595-8.596V15.239c-2.768,0.091-4.985,2.357-4.985,5.148
		V41.19c0,2.848,2.309,5.156,5.157,5.156h2.751v7.394l11.002-7.394h13.357L47.008,43.253z"/>
	<g>
		<path fill="#1E252B" d="M60.089,49.143L47.74,40.846H32.926c-3.412,0-6.188-2.776-6.188-6.188V13.855
			c0-3.413,2.775-6.189,6.188-6.189h28.883c3.412,0,6.188,2.776,6.188,6.189v20.802c0,3.412-2.774,6.188-6.188,6.188h-1.72V49.143z
			 M32.926,9.729c-2.273,0-4.125,1.851-4.125,4.126v20.802c0,2.273,1.852,4.126,4.125,4.126h15.443l9.656,6.486v-6.486h3.783
			c2.274,0,4.125-1.853,4.125-4.126V13.855c0-2.275-1.851-4.126-4.125-4.126H32.926z"/>
	</g>
	<g>
		<rect x="33.614" y="26.233" fill="#00A1DF" width="5.673" height="8.255"/>
		<rect x="40.921" y="22.623" fill="#00A1DF" width="5.673" height="11.866"/>
		<rect x="48.227" y="18.496" fill="#00A1DF" width="5.673" height="15.992"/>
		<rect x="55.533" y="14.027" fill="#00A1DF" width="5.674" height="20.461"/>
	</g>
</g>
</svg>
