<?xml version="1.0" encoding="utf-8"?>
<!-- Generator: Adobe Illustrator 16.0.0, SVG Export Plug-In . SVG Version: 6.00 Build 0)  -->
<!DOCTYPE svg PUBLIC "-//W3C//DTD SVG 1.1//EN" "http://www.w3.org/Graphics/SVG/1.1/DTD/svg11.dtd">
<svg version="1.1" id="Layer_1" xmlns="http://www.w3.org/2000/svg" xmlns:xlink="http://www.w3.org/1999/xlink" x="0px" y="0px"
	 width="39.583px" height="38.833px" viewBox="0 0 39.583 38.833" enable-background="new 0 0 39.583 38.833" xml:space="preserve">
<g>
	<g opacity="0.1">
		
			<image overflow="visible" width="104" height="104" xlink:href="F6BF3C9A657DB66E.png"  transform="matrix(1 0 0 1 -31.4546 -31.7334)">
		</image>
	</g>
	<circle fill="#FFFFFF" cx="18.385" cy="18.127" r="16.5"/>
	<path fill="#00A1DF" d="M31.828,18.185c0,7.454-6.041,13.5-13.5,13.5c-7.454,0-13.5-6.046-13.5-13.5
		c0-7.46,6.045-13.501,13.5-13.501C25.787,4.684,31.828,10.725,31.828,18.185z"/>
	<g>
		<path fill="#FFFFFF" d="M15.277,22.106c-0.197,0-0.396-0.061-0.569-0.184l-4.119-2.941c-0.258-0.184-0.411-0.481-0.411-0.798
			s0.153-0.613,0.411-0.798l4.119-2.94c0.44-0.315,1.053-0.213,1.368,0.228c0.314,0.441,0.211,1.053-0.229,1.367l-3.002,2.143
			l3.002,2.144c0.44,0.314,0.542,0.927,0.228,1.367C15.885,21.964,15.583,22.106,15.277,22.106z"/>
	</g>
	<g>
		<path fill="#FFFFFF" d="M21.379,14.263c0.197,0,0.396,0.059,0.568,0.182l4.119,2.941c0.258,0.185,0.411,0.481,0.411,0.798
			s-0.153,0.614-0.411,0.798l-4.119,2.941c-0.44,0.314-1.053,0.213-1.367-0.229c-0.314-0.44-0.213-1.052,0.229-1.367l3.002-2.144
			l-3.002-2.144c-0.441-0.314-0.543-0.927-0.229-1.367C20.772,14.405,21.073,14.263,21.379,14.263z"/>
	</g>
</g>
</svg>
