<?xml version="1.0" encoding="utf-8"?>
<!-- Generator: Adobe Illustrator 16.0.0, SVG Export Plug-In . SVG Version: 6.00 Build 0)  -->
<!DOCTYPE svg PUBLIC "-//W3C//DTD SVG 1.1//EN" "http://www.w3.org/Graphics/SVG/1.1/DTD/svg11.dtd">
<svg version="1.1" id="Layer_1" xmlns="http://www.w3.org/2000/svg" xmlns:xlink="http://www.w3.org/1999/xlink" x="0px" y="0px"
	 width="116.75px" height="116.5px" viewBox="0 0 116.75 116.5" enable-background="new 0 0 116.75 116.5" xml:space="preserve">
<g>
	<path fill="#00A1DF" d="M58.375,26.971c6.2,0,11.244-5.044,11.244-11.246c0-6.199-5.044-11.243-11.244-11.243
		c-6.199,0-11.244,5.044-11.244,11.243C47.131,21.926,52.176,26.971,58.375,26.971z M58.375,5.716
		c5.519,0,10.009,4.49,10.009,10.009c0,5.521-4.49,10.01-10.009,10.01s-10.009-4.489-10.009-10.01
		C48.366,10.207,52.856,5.716,58.375,5.716z"/>
	<path fill="#00A1DF" d="M70.092,31.572c-0.043-0.013-2.918-0.896-2.917-0.896c-1-0.308-7.505-0.322-8.8-0.322
		c-1.294,0-7.8,0.015-8.799,0.322c-2.903,0.892-2.92,0.897-2.932,0.9c-4.559,1.519-7.621,5.767-7.621,10.571v17.479
		c0,0.612,0.179,1.208,0.517,1.723l5.937,9.035l3.992,31.001c0.021,1.711,1.421,3.097,3.138,3.097h12.155
		c1.719,0,3.119-1.39,3.138-3.104l3.373-30.959c0.03-0.044,0.053-0.092,0.071-0.143l5.865-8.927
		c0.338-0.513,0.518-1.107,0.518-1.724V42.148C77.727,37.344,74.664,33.095,70.092,31.572z M76.491,59.626
		c0,0.373-0.108,0.732-0.313,1.044l-4.796,7.299V44.746c0-0.341-0.276-0.618-0.617-0.618s-0.618,0.277-0.618,0.618v25.11
		c-0.043,0.075-0.072,0.155-0.082,0.241l-3.396,31.179c-0.002,0.023-0.004,0.045-0.004,0.067c0,1.05-0.854,1.902-1.902,1.902H52.606
		c-1.05,0-1.903-0.853-1.903-1.902c0-0.025-0.002-0.052-0.005-0.078l-4.015-31.18c-0.002-0.011-0.006-0.022-0.008-0.033V44.746
		c0-0.341-0.277-0.618-0.618-0.618s-0.617,0.277-0.617,0.618v23.333l-4.868-7.409c-0.205-0.312-0.313-0.673-0.313-1.044V42.148
		c0-4.271,2.724-8.049,6.766-9.396c0.065-0.021,2.914-0.895,2.914-0.895c0.423-0.131,3.524-0.271,8.437-0.271
		c4.913,0,8.014,0.14,8.437,0.271c0,0,2.901,0.89,2.905,0.892c4.052,1.35,6.774,5.127,6.774,9.398V59.626z"/>
</g>
</svg>
