<?xml version="1.0" encoding="utf-8"?>
<!-- Generator: Adobe Illustrator 16.0.0, SVG Export Plug-In . SVG Version: 6.00 Build 0)  -->
<!DOCTYPE svg PUBLIC "-//W3C//DTD SVG 1.1//EN" "http://www.w3.org/Graphics/SVG/1.1/DTD/svg11.dtd">
<svg version="1.1" id="Layer_1" xmlns="http://www.w3.org/2000/svg" xmlns:xlink="http://www.w3.org/1999/xlink" x="0px" y="0px"
	 width="69.25px" height="49.5px" viewBox="0 0 69.25 49.5" enable-background="new 0 0 69.25 49.5" xml:space="preserve">
<path fill="#00A1DF" d="M56.733,19.306c-0.025-0.312-0.203-0.556-0.474-0.652l-22.711-8.372c-0.263-0.094-0.455-0.135-0.641-0.135
	c-0.184,0-0.371,0.039-0.651,0.137L9.838,19.116c-0.302,0.119-0.492,0.425-0.486,0.778c0.006,0.348,0.199,0.641,0.492,0.745
	l8.166,2.94v7.038c0,0.63,0.662,1.101,1.255,1.101c4.203,0,8.064,1.958,10.62,3.255c1.349,0.684,2.323,1.179,2.912,1.179
	c0.698,0,1.478-0.483,2.557-1.152c2.109-1.307,5.297-3.281,10.715-3.281c0.89,0,0.89-0.771,0.89-1.101v-6.924l0.529-0.2v8.752
	c-0.435,0.243-0.729,0.757-0.729,1.299c0,0.371,0.09,0.676,0.268,0.907c-0.199,0.407-0.332,0.85-0.332,1.11v7.997
	c0,0.558,0.457,1.588,1.107,1.588h0.889c0.647,0,1.043-1.028,1.043-1.588v-7.997c0-0.245-0.152-0.641-0.388-1.157
	c0.155-0.221,0.231-0.504,0.231-0.86c0-0.568-0.278-1.017-0.769-1.252v-9.298l7.454-2.816l0.025-0.012
	C56.587,20,56.763,19.663,56.733,19.306z M46.561,30.618c0,0.539-0.115,0.703-0.493,0.703c-5.53,0-8.776,2.012-10.924,3.342
	c-0.984,0.61-1.763,1.093-2.348,1.093c-0.494,0-1.481-0.502-2.732-1.136c-2.589-1.313-6.501-3.299-10.799-3.299
	c-0.389,0-0.858-0.313-0.858-0.703v-6.895l13.838,4.983c0.26,0.107,0.487,0.157,0.712,0.157c0.222,0,0.447-0.048,0.729-0.155
	l12.876-4.865V30.618z M48.539,32.61c0.529,0.198,0.641,0.618,0.641,0.935s-0.067,0.539-0.213,0.699l-0.088,0.097l0.055,0.119
	c0.11,0.239,0.402,0.873,0.402,1.103v7.997c0,0.438-0.319,1.191-0.646,1.191h-0.889c-0.314,0-0.711-0.739-0.711-1.191v-7.997
	c0-0.191,0.13-0.635,0.348-1.048l0.068-0.129l-0.104-0.104c-0.167-0.167-0.248-0.408-0.248-0.737c0-0.485,0.305-0.866,0.605-0.992
	l0.123-0.051v-9.157l0.528-0.2v9.417L48.539,32.61z M56.106,19.813l-22.562,8.524c-0.235,0.09-0.417,0.13-0.588,0.13
	c-0.172,0-0.351-0.041-0.57-0.131l-22.409-8.07c-0.166-0.06-0.227-0.241-0.229-0.379c-0.002-0.148,0.058-0.332,0.235-0.403
	l22.411-8.828c0.231-0.08,0.375-0.111,0.514-0.111c0.14,0,0.287,0.032,0.505,0.11l22.711,8.372c0.175,0.062,0.207,0.238,0.213,0.312
	C56.352,19.5,56.285,19.708,56.106,19.813z"/>
</svg>
