<?xml version="1.0" encoding="utf-8"?>
<!-- Generator: Adobe Illustrator 16.0.0, SVG Export Plug-In . SVG Version: 6.00 Build 0)  -->
<!DOCTYPE svg PUBLIC "-//W3C//DTD SVG 1.1//EN" "http://www.w3.org/Graphics/SVG/1.1/DTD/svg11.dtd">
<svg version="1.1" id="Layer_1" xmlns="http://www.w3.org/2000/svg" xmlns:xlink="http://www.w3.org/1999/xlink" x="0px" y="0px"
	 width="69.25px" height="49.5px" viewBox="0 0 69.25 49.5" enable-background="new 0 0 69.25 49.5" xml:space="preserve">
<path opacity="0.7" fill="#888888" enable-background="new    " d="M56.732,19.306c-0.024-0.312-0.203-0.556-0.475-0.652
	l-22.711-8.372c-0.263-0.094-0.455-0.135-0.641-0.135c-0.184,0-0.371,0.039-0.651,0.137L9.838,19.116
	c-0.302,0.119-0.492,0.425-0.486,0.778c0.006,0.348,0.199,0.641,0.492,0.745l8.166,2.94v7.038c0,0.63,0.662,1.101,1.255,1.101
	c4.203,0,8.064,1.958,10.62,3.255c1.349,0.686,2.323,1.18,2.912,1.18c0.698,0,1.478-0.482,2.557-1.151
	c2.109-1.308,5.297-3.281,10.715-3.281c0.892,0,0.892-0.771,0.892-1.101v-6.924l0.528-0.2v8.752
	c-0.436,0.243-0.729,0.757-0.729,1.299c0,0.371,0.092,0.677,0.27,0.907c-0.199,0.406-0.332,0.85-0.332,1.109v7.996
	c0,0.56,0.457,1.588,1.105,1.588h0.891c0.646,0,1.043-1.026,1.043-1.588v-7.996c0-0.246-0.152-0.642-0.389-1.156
	c0.154-0.223,0.23-0.506,0.23-0.86c0-0.567-0.278-1.019-0.77-1.252v-9.298l7.453-2.816l0.025-0.012
	C56.587,20,56.764,19.663,56.732,19.306z M46.561,30.618c0,0.539-0.115,0.702-0.492,0.702c-5.529,0-8.775,2.013-10.924,3.343
	c-0.983,0.61-1.764,1.093-2.349,1.093c-0.494,0-1.481-0.502-2.732-1.136c-2.589-1.313-6.501-3.3-10.799-3.3
	c-0.389,0-0.858-0.312-0.858-0.702v-6.895l13.838,4.983c0.26,0.106,0.487,0.157,0.712,0.157c0.222,0,0.447-0.049,0.729-0.155
	l12.876-4.865v6.775H46.561z M48.539,32.609c0.529,0.199,0.641,0.619,0.641,0.936s-0.066,0.539-0.213,0.699l-0.088,0.097
	l0.055,0.119c0.11,0.239,0.402,0.873,0.402,1.103v7.998c0,0.438-0.318,1.19-0.646,1.19h-0.889c-0.314,0-0.711-0.739-0.711-1.19
	v-7.998c0-0.189,0.131-0.635,0.348-1.047l0.068-0.13l-0.104-0.104c-0.168-0.167-0.248-0.408-0.248-0.737
	c0-0.484,0.305-0.865,0.604-0.992l0.123-0.051v-9.157l0.528-0.2v9.417L48.539,32.609z M56.105,19.813l-22.562,8.524
	c-0.235,0.09-0.417,0.13-0.588,0.13c-0.172,0-0.351-0.041-0.57-0.131l-22.409-8.07c-0.166-0.06-0.227-0.241-0.229-0.379
	c-0.002-0.148,0.058-0.332,0.235-0.403l22.411-8.828c0.231-0.08,0.375-0.111,0.514-0.111c0.14,0,0.287,0.032,0.505,0.11
	l22.711,8.372c0.175,0.062,0.207,0.238,0.213,0.312C56.352,19.5,56.285,19.708,56.105,19.813z"/>
</svg>
