<?xml version="1.0" encoding="utf-8"?>
<!-- Generator: Adobe Illustrator 16.0.0, SVG Export Plug-In . SVG Version: 6.00 Build 0)  -->
<!DOCTYPE svg PUBLIC "-//W3C//DTD SVG 1.1//EN" "http://www.w3.org/Graphics/SVG/1.1/DTD/svg11.dtd">
<svg version="1.1" id="Layer_1" xmlns="http://www.w3.org/2000/svg" xmlns:xlink="http://www.w3.org/1999/xlink" x="0px" y="0px"
	 width="69.25px" height="49.5px" viewBox="0 0 69.25 49.5" enable-background="new 0 0 69.25 49.5" xml:space="preserve">
<g>
	<path fill="#00A1DF" d="M50.537,18.587L34.592,6.01c-0.061-0.048-0.152-0.048-0.213,0.001l-4.888,3.969V7.368
		c0-0.11-0.08-0.171-0.19-0.171h-6.648c-0.11,0-0.209,0.061-0.209,0.171v2.659c0,0.109,0.099,0.229,0.209,0.229h0.854v4.588
		l-4.798,3.904c-0.04,0.032-0.06,0.081-0.059,0.132c0.001,0.051,0.022,0.099,0.063,0.13l2.134,1.603v2.94h-0.456
		c-0.11,0-0.209,0.061-0.209,0.172v0.797c0,0.11,0.099,0.228,0.209,0.228h0.456v14.229H19.86c-0.11,0-0.209,0.06-0.209,0.17v1.196
		c0,0.111,0.099,0.229,0.209,0.229h2.583v0.17c0,0.11,0.099,0.229,0.209,0.229h8.909c0.11,0,0.19-0.118,0.19-0.229v-0.17h16.832
		c0.11,0,0.189-0.118,0.189-0.229v-1.196c0-0.11-0.08-0.17-0.189-0.17h-1.14V24.75h0.608c0.11,0,0.19-0.118,0.19-0.228v-0.797
		c0-0.111-0.08-0.172-0.19-0.172h-0.608V20.93l0.023,0.015c0.03,0.024,0.069,0.036,0.105,0.036c0.035,0,0.07-0.011,0.1-0.032
		l2.859-2.097c0.042-0.031,0.067-0.079,0.068-0.131S50.578,18.619,50.537,18.587z M22.843,9.856V7.596h6.25v2.261h-0.854h-4.521
		H22.843z M29.198,10.256l-0.77,0.588v-0.588H29.198z M28.053,11.187l-4.146,3.333v-4.264h4.123v0.931H28.053z M22.577,39.681v0.345
		l0.004,0c-0.017,0.006-0.03,0.014-0.045,0.024c-0.002,0.001-0.003,0.003-0.005,0.005c-0.013,0.01-0.023,0.021-0.033,0.032
		c-0.002,0.003-0.004,0.006-0.007,0.009c-0.01,0.014-0.018,0.044-0.024,0.061c0,0.001-0.001,0.019-0.001,0.019H20.05v-0.798h1.007
		h2.051v0.133h-0.323C22.676,39.511,22.577,39.571,22.577,39.681z M29.656,34.115c-0.407,0-0.735,0.331-0.735,0.738
		c0,0.407,0.327,0.738,0.734,0.738c0.272,0,0.501-0.149,0.634-0.369v3.757h-6.383V28.474h6.383v6.011
		C30.157,34.264,29.929,34.115,29.656,34.115z M30.066,34.853c0,0.223-0.182,0.405-0.405,0.405s-0.405-0.182-0.405-0.405
		c0-0.224,0.182-0.406,0.405-0.406S30.066,34.629,30.066,34.853z M30.499,39.378h0.057v0.133h-7.048v-0.133h0.209H30.499z
		 M30.765,39.91h0.19v0.133h-7.979V39.91h0.342H30.765z M30.765,38.979h-0.076V28.245c0-0.109-0.08-0.17-0.189-0.17h-6.782
		c-0.11,0-0.209,0.061-0.209,0.17v10.734h-0.19h-2.071V24.75h25.798v14.229H30.765z M31.354,40.575h-8.511v-0.133h8.321h0.19V40.575
		z M48.375,39.378v0.798H31.751c-0.001,0-0.002-0.017-0.002-0.019c-0.006-0.017-0.014-0.039-0.025-0.053
		c-0.002-0.003-0.004-0.009-0.007-0.012c-0.01-0.012-0.021-0.024-0.033-0.034c-0.002-0.002-0.004-0.005-0.007-0.007
		c-0.014-0.01-0.03-0.018-0.047-0.023c-0.004-0.002-0.008,0.011-0.012,0.01c-0.018-0.005-0.036,0.006-0.056,0.006h-0.209v-0.362
		c0-0.11-0.08-0.17-0.19-0.17h-0.209v-0.133h16.299H48.375z M47.843,23.952v0.399H20.582v-0.399H47.843z M21.247,23.553v-2.641
		l0.052,0.035c0.06,0.045,0.146,0.044,0.205-0.002l12.979-10.273l12.562,9.943v2.938H21.247z M47.579,20.605L34.592,10.329
		c-0.03-0.024-0.067-0.036-0.103-0.036c-0.037,0-0.073,0.012-0.103,0.036L21.4,20.604l-2.311-1.733L34.491,6.353l15.668,12.36
		L47.579,20.605z"/>
	<path fill="#00A1DF" d="M29.691,28.74h-5.187c-0.11,0-0.199,0.089-0.199,0.199v4.655c0,0.11,0.089,0.199,0.199,0.199h5.187
		c0.11,0,0.199-0.089,0.199-0.199v-4.655C29.891,28.829,29.801,28.74,29.691,28.74z M29.492,33.394h-4.787v-4.255h4.787V33.394z"/>
	<path fill="#00A1DF" d="M45.259,34.059h-0.874v-7.276c0-0.11-0.08-0.17-0.19-0.17h-4.521h-4.92c-0.11,0-0.209,0.061-0.209,0.17
		v7.276h-0.722c-0.11,0-0.209,0.061-0.209,0.17v1.729c0,0.11,0.099,0.229,0.209,0.229h11.436c0.11,0,0.19-0.119,0.19-0.229v-1.729
		C45.449,34.119,45.37,34.059,45.259,34.059z M39.864,27.011h4.122v7.048h-4.122V27.011z M34.944,27.011h4.521v7.048h-4.521V27.011z
		 M45.05,35.788H34.013v-1.33h0.741h4.92h4.521h0.855V35.788z"/>
	<path fill="#00A1DF" d="M34.279,13.404c-1.393,0-2.526,1.115-2.526,2.486v6.238c0,0.11,0.099,0.228,0.209,0.228h4.654
		c0.11,0,0.19-0.118,0.19-0.228v-3.524v-0.399v-2.315C36.806,14.52,35.672,13.404,34.279,13.404z M34.146,21.958h-1.995v-3.324
		h1.995V21.958z M34.146,18.234h-1.995v-2.344c0-1.106,0.931-2.013,1.995-2.08V18.234z M36.407,21.958h-1.862v-3.324h1.862V21.958z
		 M36.407,18.234h-1.862v-4.413c1.063,0.129,1.862,1.007,1.862,2.069V18.234z"/>
</g>
</svg>
