<?xml version="1.0" encoding="utf-8"?>
<!-- Generator: Adobe Illustrator 16.0.0, SVG Export Plug-In . SVG Version: 6.00 Build 0)  -->
<!DOCTYPE svg PUBLIC "-//W3C//DTD SVG 1.1//EN" "http://www.w3.org/Graphics/SVG/1.1/DTD/svg11.dtd">
<svg version="1.1" id="Layer_1" xmlns="http://www.w3.org/2000/svg" xmlns:xlink="http://www.w3.org/1999/xlink" x="0px" y="0px"
	 width="69.25px" height="49.5px" viewBox="0 0 69.25 49.5" enable-background="new 0 0 69.25 49.5" xml:space="preserve">
<g>
	<path fill="#888888" d="M22.189,32.151h17.277v-8.639H22.189V32.151z M22.636,23.959h16.383v7.745H22.636V23.959z"/>
	<path fill="#888888" d="M50.513,21.13c0.698,0,1.165-0.756,1.165-1.432v-1.704l-5.37-7.737h-1.824h-0.508h-1.647h-0.484h-0.741
		V9.622c0.298-0.038,0.596-0.319,0.596-0.663V6.725c0-0.369-0.335-0.638-0.705-0.638H28.335c-0.37,0-0.636,0.269-0.636,0.638v2.234
		c0,0.369,0.266,0.703,0.636,0.703h0.258v0.595H28.13h-0.449h-1.663h-0.521h-1.825L17.87,17.99v1.708c0,0.66,0.745,1.354,1.34,1.395
		v17.016h-0.393c-0.686,0-1.245,0.525-1.245,1.21v0.494c0,0.685,0.56,1.274,1.245,1.274h31.621c0.686,0,1.24-0.59,1.24-1.274v-0.494
		c0-0.685-0.555-1.21-1.24-1.21h-0.249V21.13H50.513z M44.219,10.704l4.034,7.416v1.578c0,0.44-0.338,0.984-0.777,0.984h-1.019
		c-0.42,0-0.884-0.53-0.884-0.984V18.02l-3.057-7.315H44.219z M40.21,23.513v14.596H19.657V21.13h0.634
		c0.427,0,0.709-0.266,0.863-0.633c0.286,0.362,0.733,0.633,1.156,0.633h1.02c0.386,0,0.67-0.224,0.822-0.621
		c0.31,0.364,0.79,0.621,1.197,0.621h1.02c0.432,0,0.721-0.269,0.881-0.629c0.278,0.361,0.715,0.629,1.138,0.629h1.02
		c0.392,0,0.686-0.228,0.844-0.623c0.304,0.365,0.774,0.623,1.175,0.623h1.019c0.43,0,0.732-0.266,0.903-0.632
		c0.272,0.363,0.701,0.632,1.115,0.632h1.02c0.406,0,0.681-0.24,0.839-0.579c0.247,0.342,0.627,0.579,1.021,0.579h1.019
		c0.424,0,0.744-0.268,0.928-0.632c0.261,0.365,0.678,0.632,1.091,0.632h1.02c0.429,0,0.777-0.273,0.986-0.636
		c0.228,0.359,0.6,0.636,1.033,0.636h1.02c0.427,0,0.754-0.27,0.945-0.63c0.253,0.366,0.66,0.63,1.073,0.63h1.019
		c0.427,0,0.787-0.273,1.005-0.636c0.22,0.362,0.583,0.636,1.015,0.636h0.248v16.979h-1.34V23.513H40.21z M47.955,23.959v14.149
		h-7.298V23.959H47.955z M38.368,10.704h1.557l2.222,7.393v1.602c0,0.449-0.318,0.984-0.747,0.984h-1.02
		c-0.426,0-0.914-0.539-0.914-0.984v-1.634L38.368,10.704z M36.309,10.704h1.608l1.102,7.376v1.618c0,0.458-0.25,0.984-0.658,0.984
		h-1.019c-0.415,0-0.855-0.521-0.855-0.984v-1.64L36.309,10.704z M39.791,10.257h-1.489H37.85h-1.552h-0.447h-1.688h-0.449h-1.556
		h-0.482h-1.475h-0.474H29.04V9.662h11.617v0.595h-0.4H39.791z M33.508,18.073l0.618-7.369h1.736l0.178,7.36v1.634
		c0,0.098-0.014,0.984-0.558,0.984h-1.02c-0.436,0-0.955-0.548-0.955-0.984V18.073z M33.064,18.062l-0.001,1.661
		c0,0.462-0.217,0.96-0.619,0.96h-1.019c-0.458,0-1.045-0.566-1.045-0.984v-1.609l1.677-7.385h1.62L33.064,18.062z M30.042,10.704
		h1.534l-1.635,7.328l-0.006,1.69c0,0.224-0.038,0.96-0.529,0.96h-1.02c-0.45,0-0.985-0.548-0.985-0.984v-1.596L30.042,10.704z
		 M42.031,10.704l3.094,7.404v1.59c0,0.46-0.275,0.984-0.688,0.984h-1.02c-0.443,0-0.825-0.556-0.825-0.984v-1.667l-2.202-7.327
		H42.031z M28.37,9.215c-0.124,0-0.223-0.101-0.223-0.224V6.758c0-0.124,0.1-0.224,0.223-0.224h12.66c0.123,0,0.224,0.1,0.224,0.224
		v2.233c0,0.123-0.101,0.224-0.224,0.224H28.37z M27.958,10.704h1.61l-2.613,7.321v1.673c0,0.329-0.121,0.984-0.587,0.984h-1.02
		c-0.471,0-1.075-0.566-1.075-0.984v-1.582L27.958,10.704z M25.751,10.704h1.664l-3.564,7.278l-0.023,0.029v0.001v1.686
		c0,0.355-0.062,0.984-0.497,0.984h-1.02c-0.455,0-1.016-0.557-1.016-0.984v-1.572L25.751,10.704z M18.316,19.698v-1.56l5.58-7.435
		h1.334l-4.382,7.298v1.696c0,0.098-0.013,0.984-0.557,0.984h-1.019C18.836,20.683,18.316,20.135,18.316,19.698z M50.438,38.556
		c0.439,0,0.793,0.324,0.793,0.763v0.494c0,0.438-0.354,0.828-0.793,0.828H18.817c-0.439,0-0.798-0.39-0.798-0.828v-0.494
		c0-0.438,0.359-0.763,0.798-0.763h21.396h8.191H50.438z M49.495,20.683c-0.439,0-0.795-0.553-0.795-0.984v-1.69l-3.973-7.304h1.347
		l5.157,7.43v1.564c0,0.45-0.293,0.984-0.718,0.984H49.495z"/>
</g>
</svg>
