<?xml version="1.0" encoding="utf-8"?>
<!-- Generator: Adobe Illustrator 16.0.0, SVG Export Plug-In . SVG Version: 6.00 Build 0)  -->
<!DOCTYPE svg PUBLIC "-//W3C//DTD SVG 1.1//EN" "http://www.w3.org/Graphics/SVG/1.1/DTD/svg11.dtd">
<svg version="1.1" id="Layer_1" xmlns="http://www.w3.org/2000/svg" xmlns:xlink="http://www.w3.org/1999/xlink" x="0px" y="0px"
	 width="69.25px" height="49.5px" viewBox="0 0 69.25 49.5" enable-background="new 0 0 69.25 49.5" xml:space="preserve">
<g>
	<path fill="#00A1DF" d="M38.348,26.365c0-1.295-0.512-2.349-3.009-3.286c-1.777-0.711-3.126-1.367-3.126-2.85
		c0-1.142,0.876-2.292,2.834-2.292c1.04,0,1.858,0.224,2.453,0.45l0.146-0.497c-0.496-0.183-1.169-0.515-2.082-0.543l-0.628-0.023
		v-0.751v-0.363h-0.467v0.471v0.649l-0.522,0.114c-1.785,0.319-2.852,1.578-2.852,3.09c0,1.425,0.909,2.308,3.241,3.152
		c1.339,0.488,2.874,1.261,2.874,2.918c0,1.465-1.263,2.488-3.072,2.488c-1.154,0-2.158-0.3-2.896-0.617l-0.157,0.545
		c0.706,0.316,1.687,0.696,2.622,0.726l0.617,0.023v0.751v0.194h0.536v-0.325v-0.659l0.475-0.105
		C37.193,29.319,38.348,27.969,38.348,26.365z"/>
	<g>
		<path fill="#00A1DF" d="M34.625,41.126c-9.647,0-17.5-7.851-17.5-17.5c0-9.647,7.853-17.5,17.5-17.5c9.65,0,17.5,7.853,17.5,17.5
			C52.125,33.275,44.275,41.126,34.625,41.126z M34.625,6.564c-9.407,0-17.062,7.655-17.062,17.062
			c0,9.406,7.655,17.062,17.062,17.062c9.408,0,17.062-7.656,17.062-17.062C51.688,14.219,44.033,6.564,34.625,6.564z"/>
	</g>
</g>
</svg>
