<?xml version="1.0" encoding="utf-8"?>
<!-- Generator: Adobe Illustrator 16.0.0, SVG Export Plug-In . SVG Version: 6.00 Build 0)  -->
<!DOCTYPE svg PUBLIC "-//W3C//DTD SVG 1.1//EN" "http://www.w3.org/Graphics/SVG/1.1/DTD/svg11.dtd">
<svg version="1.1" id="Layer_1" xmlns="http://www.w3.org/2000/svg" xmlns:xlink="http://www.w3.org/1999/xlink" x="0px" y="0px"
	 width="69.25px" height="49.5px" viewBox="0 0 69.25 49.5" enable-background="new 0 0 69.25 49.5" xml:space="preserve">
<g opacity="0.7">
	<g>
		<path fill="#888888" d="M61.279,6.376H9.135c-0.469,0-0.851,0.388-0.851,0.864v33.271c0,0.479,0.382,0.864,0.851,0.864h52.145
			c0.471,0,0.853-0.387,0.853-0.864V7.24C62.13,6.765,61.749,6.376,61.279,6.376z M61.594,40.514c0,0.178-0.141,0.319-0.314,0.319
			H9.135c-0.174,0-0.315-0.144-0.315-0.319V7.24c0-0.176,0.142-0.32,0.315-0.32h52.145c0.176,0,0.314,0.145,0.314,0.32V40.514z"/>
		<rect x="13.229" y="26.613" fill="#888888" width="35.371" height="0.535"/>
		<rect x="13.229" y="29.469" fill="#888888" width="35.371" height="0.536"/>
		<path fill="#888888" d="M41.551,12.853c0.27-0.224,0.451-0.538,0.451-0.938c0-0.57-0.368-0.95-0.865-1.088v-0.013
			c0.491-0.184,0.717-0.551,0.717-0.943c0-0.4-0.22-0.701-0.521-0.865c-0.314-0.19-0.686-0.25-1.285-0.25
			c-0.49,0-1.014,0.04-1.271,0.092v4.338c0.22,0.033,0.582,0.066,1.064,0.066C40.704,13.252,41.232,13.106,41.551,12.853z
			 M39.748,9.51c0.084-0.013,0.207-0.026,0.42-0.026c0.445,0,0.697,0.177,0.697,0.511c0,0.328-0.277,0.544-0.795,0.544h-0.322V9.51z
			 M39.748,11.252h0.335c0.491,0,0.885,0.178,0.885,0.623c0,0.466-0.394,0.637-0.84,0.637c-0.168,0-0.284,0-0.381-0.014
			L39.748,11.252L39.748,11.252z"/>
		<path fill="#888888" d="M43.664,12.072h1.246l0.336,1.133h1.061l-1.352-4.417h-1.291l-1.33,4.417h1.02L43.664,12.072z
			 M44.064,10.388c0.068-0.256,0.136-0.591,0.199-0.852h0.014c0.062,0.261,0.143,0.589,0.22,0.852l0.271,0.937h-0.961L44.064,10.388
			z"/>
		<path fill="#888888" d="M50.492,8.789h-0.904v1.291c0,0.662,0.02,1.26,0.084,1.842h-0.02c-0.193-0.498-0.452-1.049-0.709-1.514
			L48.039,8.79h-1.148v4.417h0.902v-1.33c0-0.721-0.014-1.343-0.039-1.927l0.02-0.007c0.213,0.518,0.498,1.088,0.756,1.561
			l0.932,1.703h1.033L50.492,8.789L50.492,8.789z"/>
		<path fill="#888888" d="M53.425,13.271c0.53,0,0.938-0.098,1.119-0.189l-0.149-0.781c-0.192,0.079-0.521,0.145-0.817,0.145
			c-0.879,0-1.396-0.557-1.396-1.442c0-0.983,0.605-1.461,1.389-1.461c0.349,0,0.627,0.078,0.826,0.164l0.199-0.793
			c-0.175-0.092-0.562-0.196-1.07-0.196c-1.317,0-2.377,0.839-2.377,2.346C51.146,12.32,51.921,13.271,53.425,13.271z"/>
		<path fill="#888888" d="M56.846,13.278c1.271,0,2.137-0.878,2.137-2.328c0-1.217-0.729-2.233-2.064-2.233
			c-1.285,0-2.119,0.989-2.119,2.312C54.797,12.289,55.552,13.278,56.846,13.278z M56.891,9.51c0.678,0,1.053,0.681,1.053,1.474
			c0,0.859-0.383,1.501-1.047,1.501c-0.658,0-1.06-0.609-1.06-1.474C55.837,10.151,56.225,9.51,56.891,9.51z"/>
		<path fill="#888888" d="M23.722,22.782V15.6c0-0.35-0.281-0.634-0.625-0.634h-10.45c-0.344,0-0.624,0.284-0.624,0.634v7.182
			c0,0.349,0.28,0.634,0.624,0.634h10.449C23.44,23.416,23.722,23.131,23.722,22.782z M23.097,22.872h-5.074
			c1.033-0.075,1.855-0.905,1.938-1.951h3.227v1.861C23.187,22.832,23.146,22.872,23.097,22.872z M15.86,20.377h-3.302v-2.354h3.312
			c0.09,0.16,0.22,0.273,0.339,0.364c0.212,0.163,0.395,0.304,0.395,0.803s-0.183,0.64-0.395,0.803
			C16.085,20.089,15.948,20.205,15.86,20.377z M16.532,20.427c0.243-0.187,0.607-0.467,0.607-1.236s-0.364-1.05-0.607-1.235
			c-0.174-0.135-0.229-0.184-0.229-0.326c0-0.877,0.704-1.593,1.569-1.593c0.866,0,1.569,0.716,1.569,1.593
			c0,0.099-0.004,0.105-0.158,0.187c-0.343,0.187-0.679,0.445-0.679,1.374c0,0.929,0.336,1.188,0.679,1.374
			c0.155,0.083,0.158,0.088,0.158,0.187c0,0.878-0.704,1.593-1.569,1.593c-0.865,0-1.569-0.715-1.569-1.593
			C16.303,20.609,16.357,20.56,16.532,20.427z M19.859,18.023h3.327v2.354h-3.315c-0.093-0.148-0.229-0.234-0.336-0.293
			c-0.203-0.11-0.396-0.213-0.396-0.894s0.193-0.784,0.396-0.894C19.639,18.241,19.767,18.161,19.859,18.023z M23.187,15.6v1.881
			h-3.225c-0.073-1.056-0.9-1.896-1.939-1.972h5.074C23.146,15.509,23.187,15.549,23.187,15.6z M12.647,15.509h5.075
			c-1.04,0.075-1.866,0.916-1.94,1.972h-3.224V15.6C12.558,15.549,12.599,15.509,12.647,15.509z M12.558,22.782v-1.861h3.226
			c0.082,1.046,0.904,1.876,1.938,1.951h-5.075C12.599,22.872,12.558,22.832,12.558,22.782z"/>
		<path fill="#888888" d="M52.631,36.236c0-0.928,0.479-1.769,1.284-2.24l0.394-0.232l-0.394-0.231
			c-0.49-0.289-1.011-0.438-1.549-0.438c-1.707,0-3.095,1.41-3.095,3.142c0,1.732,1.388,3.143,3.095,3.143
			c0.538,0,1.06-0.146,1.549-0.436l0.394-0.231l-0.394-0.231C53.111,38.004,52.631,37.166,52.631,36.236z M52.366,38.84
			c-1.414,0-2.564-1.168-2.564-2.604c0-1.437,1.15-2.604,2.564-2.604c0.304,0,0.602,0.059,0.891,0.172
			c-0.722,0.592-1.155,1.485-1.155,2.432c0,0.945,0.435,1.842,1.155,2.433C52.967,38.783,52.669,38.84,52.366,38.84z"/>
		<path fill="#888888" d="M56.258,33.096c-1.707,0-3.095,1.41-3.095,3.144c0,1.73,1.388,3.141,3.095,3.141s3.096-1.407,3.096-3.141
			C59.354,34.505,57.964,33.096,56.258,33.096z M56.258,38.84c-1.415,0-2.564-1.168-2.564-2.604c0-1.437,1.149-2.604,2.564-2.604
			c1.414,0,2.564,1.167,2.564,2.604C58.822,37.672,57.671,38.84,56.258,38.84z"/>
	</g>
</g>
</svg>
