<?xml version="1.0" encoding="utf-8"?>
<!-- Generator: Adobe Illustrator 16.0.0, SVG Export Plug-In . SVG Version: 6.00 Build 0)  -->
<!DOCTYPE svg PUBLIC "-//W3C//DTD SVG 1.1//EN" "http://www.w3.org/Graphics/SVG/1.1/DTD/svg11.dtd">
<svg version="1.1" id="Layer_1" xmlns="http://www.w3.org/2000/svg" xmlns:xlink="http://www.w3.org/1999/xlink" x="0px" y="0px"
	 width="69.25px" height="49.5px" viewBox="0 0 69.25 49.5" enable-background="new 0 0 69.25 49.5" xml:space="preserve">
<g opacity="0.7">
	<path fill="#888888" d="M24.528,42.381c-0.01,0-0.021,0-0.03-0.001c-0.089-0.009-0.169-0.06-0.218-0.132l-3.181-4.859
		c-0.048-0.041-0.096-0.084-0.142-0.13l-0.051-0.051c-0.024-0.024-0.047-0.049-0.069-0.075l-4.843-3.172
		c-0.075-0.049-0.123-0.128-0.132-0.217c-0.009-0.089,0.022-0.178,0.085-0.24l1.022-1.021c0.064-0.062,0.154-0.098,0.244-0.086
		l4.101,0.484L33.14,21.056l-13.409-6.119c-0.088-0.041-0.151-0.122-0.168-0.217c-0.018-0.096,0.014-0.193,0.082-0.262l2.442-2.442
		c0.064-0.064,0.154-0.095,0.245-0.084l17.787,2.146l5.876-5.875c0.528-0.53,1.233-0.821,1.983-0.821
		c0.738,0,1.435,0.286,1.951,0.803l0.051,0.051c0.521,0.521,0.795,1.212,0.771,1.946c-0.022,0.717-0.325,1.402-0.853,1.927
		l-5.983,5.985l2.114,17.538c0.012,0.091-0.021,0.181-0.084,0.245l-2.441,2.441c-0.066,0.07-0.167,0.1-0.262,0.082
		c-0.098-0.019-0.178-0.08-0.219-0.168l-6.03-13.216L25.332,36.678l0.513,4.35c0.011,0.093-0.021,0.183-0.084,0.244l-1.023,1.023
		C24.682,42.352,24.606,42.381,24.528,42.381z M16.623,33.665l4.571,2.994c0.021,0.014,0.041,0.03,0.058,0.049l0.031,0.034
		c0.013,0.016,0.027,0.031,0.042,0.047l0.051,0.052c0.044,0.043,0.09,0.083,0.138,0.124c0.022,0.018,0.041,0.04,0.057,0.064
		l3.005,4.59l0.664-0.664l-0.513-4.352c-0.011-0.09,0.02-0.182,0.084-0.244l12.065-12.064c0.069-0.068,0.167-0.1,0.263-0.083
		c0.094,0.017,0.176,0.081,0.215,0.168l6.033,13.218l2.038-2.039l-2.116-17.538c-0.011-0.09,0.021-0.181,0.086-0.245l6.086-6.086
		c0.42-0.419,0.66-0.961,0.681-1.527c0.021-0.569-0.194-1.104-0.601-1.509l-0.051-0.05c-0.406-0.406-0.951-0.63-1.533-0.63
		c-0.593,0-1.146,0.23-1.563,0.647l-5.979,5.977c-0.062,0.064-0.154,0.095-0.244,0.084l-17.788-2.146l-2.039,2.039l13.409,6.12
		c0.088,0.04,0.151,0.121,0.168,0.216c0.018,0.095-0.013,0.193-0.082,0.262L21.632,33.4c-0.064,0.062-0.154,0.096-0.244,0.084
		l-4.101-0.483L16.623,33.665z"/>
</g>
</svg>
