<?xml version="1.0" encoding="utf-8"?>
<!-- Generator: Adobe Illustrator 16.0.0, SVG Export Plug-In . SVG Version: 6.00 Build 0)  -->
<!DOCTYPE svg PUBLIC "-//W3C//DTD SVG 1.1//EN" "http://www.w3.org/Graphics/SVG/1.1/DTD/svg11.dtd">
<svg version="1.1" id="Layer_1" xmlns="http://www.w3.org/2000/svg" xmlns:xlink="http://www.w3.org/1999/xlink" x="0px" y="0px"
	 width="81px" height="81px" viewBox="0 0 81 81" enable-background="new 0 0 81 81" xml:space="preserve">
<g>
	<g>
		<path fill="#00A1DF" d="M27.495,22.213c2.595,0,4.705-2.112,4.705-4.708c0-2.594-2.11-4.705-4.705-4.705
			c-2.593,0-4.703,2.111-4.703,4.705C22.792,20.101,24.902,22.213,27.495,22.213z M27.495,13.43c2.247,0,4.076,1.828,4.076,4.075
			c0,2.249-1.829,4.078-4.076,4.078c-2.246,0-4.073-1.829-4.073-4.078C23.421,15.258,25.249,13.43,27.495,13.43z"/>
		<path fill="#00A1DF" d="M23.526,29.906L23.526,29.906c0.543,0,1.13-0.02,1.754-0.042c0.71-0.024,1.444-0.05,2.215-0.05
			c0.771,0,1.506,0.025,2.217,0.05c0.623,0.022,1.211,0.042,1.754,0.042c1.77,0,3.654-0.165,3.654-2.139
			c0-2.595-3.42-4.705-7.625-4.705c-4.203,0-7.625,2.11-7.625,4.705C19.87,29.741,21.756,29.906,23.526,29.906z M27.495,23.691
			c3.857,0,6.996,1.83,6.996,4.076c0,1.115-0.792,1.508-3.025,1.508c-0.533,0-1.115-0.019-1.732-0.041
			c-0.715-0.022-1.457-0.049-2.238-0.049s-1.521,0.026-2.236,0.049c-0.617,0.022-1.201,0.041-1.732,0.041l0,0
			c-2.234,0-3.025-0.393-3.025-1.508C20.5,25.521,23.639,23.691,27.495,23.691z"/>
		<path fill="#00A1DF" d="M62.898,8.376H18.174C18,8.376,17.86,8.518,17.86,8.69v26.924c0,0.173,0.14,0.314,0.314,0.314h44.724
			c0.174,0,0.314-0.142,0.314-0.314V8.69C63.213,8.518,63.072,8.376,62.898,8.376z M62.365,35.081H18.707V9.225h43.659V35.081z"/>
		<path fill="#00A1DF" d="M36.68,14.735h19.365c0.174,0,0.314-0.252,0.314-0.425c0-0.174-0.141-0.424-0.314-0.424H36.68
			c-0.175,0-0.316,0.25-0.316,0.424C36.364,14.483,36.505,14.735,36.68,14.735z"/>
		<path fill="#00A1DF" d="M36.68,26.603h19.365c0.174,0,0.314-0.037,0.314-0.211c0-0.175-0.141-0.213-0.314-0.213H36.68
			c-0.175,0-0.316,0.038-0.316,0.213C36.364,26.565,36.505,26.603,36.68,26.603z"/>
		<path fill="#00A1DF" d="M36.68,23.213h14.011c0.174,0,0.314-0.251,0.314-0.425c0-0.175-0.141-0.423-0.314-0.423H36.68
			c-0.175,0-0.316,0.248-0.316,0.423C36.364,22.962,36.505,23.213,36.68,23.213z"/>
		<path fill="#00A1DF" d="M36.68,20.668h8.343c0.174,0,0.314-0.038,0.314-0.21c0-0.175-0.141-0.213-0.314-0.213H36.68
			c-0.175,0-0.316,0.038-0.316,0.213C36.364,20.63,36.505,20.668,36.68,20.668z"/>
		<path fill="#00A1DF" d="M36.68,17.277h8.343c0.174,0,0.314-0.249,0.314-0.423c0-0.175-0.141-0.425-0.314-0.425H36.68
			c-0.175,0-0.316,0.25-0.316,0.425C36.364,17.028,36.505,17.277,36.68,17.277z"/>
		<path fill="#00A1DF" d="M36.68,29.57h5.039c0.172,0,0.312-0.037,0.312-0.212c0-0.174-0.141-0.213-0.312-0.213H36.68
			c-0.175,0-0.316,0.039-0.316,0.213C36.364,29.533,36.505,29.57,36.68,29.57z"/>
		<path fill="#00A1DF" d="M51.637,29.146h-6.771c-0.172,0-0.314,0.039-0.314,0.213c0,0.175,0.143,0.212,0.314,0.212h6.771
			c0.174,0,0.312-0.037,0.312-0.212C51.949,29.185,51.811,29.146,51.637,29.146z"/>
		<path fill="#00A1DF" d="M53.053,29.358c0,0.175,0.141,0.212,0.314,0.212h6.77c0.174,0,0.316-0.037,0.316-0.212
			c0-0.174-0.143-0.213-0.316-0.213h-6.77C53.193,29.146,53.053,29.185,53.053,29.358z"/>
	</g>
	<g>
		<path fill="#00A1DF" d="M62.898,43.916H18.174c-0.175,0-0.314,0.141-0.314,0.315v26.921c0,0.175,0.14,0.317,0.314,0.317h44.724
			c0.174,0,0.314-0.143,0.314-0.317V44.231C63.213,44.057,63.072,43.916,62.898,43.916z M62.365,70.621H18.708V44.764h43.658V70.621
			z"/>
		<path fill="#00A1DF" d="M20.718,51.546c-0.175,0-0.316,0.141-0.316,0.314v8.695c0,0.174,0.142,0.315,0.316,0.315H53.15
			c0.172,0,0.314-0.142,0.314-0.315V51.86c0-0.174-0.143-0.314-0.314-0.314H20.718z M53.041,60.446H20.827v-8.476h32.214V60.446z"/>
		<path fill="#00A1DF" d="M20.621,49.003h39.516c0.174,0,0.316-0.25,0.316-0.425c0-0.174-0.143-0.423-0.316-0.423H20.621
			c-0.175,0-0.315,0.249-0.315,0.423C20.305,48.753,20.446,49.003,20.621,49.003z"/>
		<path fill="#00A1DF" d="M20.621,64.262h39.516c0.174,0,0.316-0.037,0.316-0.212c0-0.174-0.143-0.211-0.316-0.211H20.621
			c-0.175,0-0.315,0.037-0.315,0.211C20.305,64.225,20.446,64.262,20.621,64.262z"/>
		<path fill="#00A1DF" d="M20.621,67.23h39.516c0.174,0,0.316-0.039,0.316-0.213c0-0.175-0.143-0.212-0.316-0.212H20.621
			c-0.175,0-0.315,0.037-0.315,0.212C20.305,67.191,20.446,67.23,20.621,67.23z"/>
		<path fill="#00A1DF" d="M45.65,54.791c0.045,0.01,0.086,0.008,0.215-0.089c0.055-0.045,0.141-0.118,0.217-0.22l0.035-0.045
			c0.289-0.386,0.967-1.287,1.945-1.239c0.811,0.061,1.383,0.669,1.658,1.767c0.008,0.035,0.014,0.058,0.02,0.076
			c0.043,0.179,0.115,0.403,0.215,0.475c0.025,0.02,0.057,0.028,0.084,0.028c0.045,0,0.088-0.021,0.117-0.059
			c0.043-0.062,0.031-0.146-0.027-0.195c-0.027-0.037-0.08-0.188-0.111-0.325c-0.004-0.008-0.006-0.015-0.008-0.022
			c-0.004-0.011-0.008-0.029-0.014-0.048c-0.043-0.173-0.16-0.636-0.441-1.07c-0.363-0.56-0.857-0.867-1.471-0.91H48.08
			c-1.133-0.057-1.875,0.931-2.191,1.352l-0.033,0.046c-0.088,0.114-0.189,0.186-0.225,0.206c-0.012,0.004-0.023,0.01-0.035,0.02
			c-0.043,0.034-0.066,0.091-0.055,0.146C45.555,54.736,45.596,54.778,45.65,54.791z"/>
		<path fill="#00A1DF" d="M45.715,56.255c0.471-0.126,0.906-0.389,0.924-0.401c0.613-0.374,1.172-0.967,1.176-0.973
			c0.23-0.264,0.57-0.518,0.836-0.436c0.156,0.049,0.264,0.133,0.322,0.253c0.068,0.144,0.064,0.338-0.016,0.533
			c-0.145,0.363-0.596,0.803-1.273,1.234c-0.34,0.218-1.193,0.751-1.797,1.011c-0.072,0.03-0.105,0.112-0.074,0.186
			c0.021,0.055,0.076,0.087,0.131,0.087c0.018,0,0.037-0.005,0.057-0.012c0.623-0.268,1.494-0.81,1.838-1.029
			c0.514-0.33,1.172-0.836,1.385-1.37c0.107-0.271,0.109-0.547,0.008-0.761c-0.092-0.194-0.264-0.334-0.496-0.404
			c-0.342-0.104-0.754,0.085-1.133,0.519c-0.006,0.006-0.545,0.571-1.111,0.919c-0.002,0.002-0.418,0.253-0.852,0.37
			c-0.076,0.021-0.121,0.1-0.1,0.175C45.559,56.231,45.637,56.275,45.715,56.255z"/>
		<path fill="#00A1DF" d="M46.926,54.272c-0.064,0.071-0.123,0.148-0.186,0.222c-0.082,0.097-0.172,0.185-0.266,0.27
			c-0.094,0.087-0.172,0.149-0.287,0.214c-0.119,0.069-0.242,0.139-0.367,0.199c-0.043,0.021-0.08,0.035-0.129,0.049
			c-0.072,0.024-0.121,0.1-0.1,0.176c0.021,0.073,0.102,0.121,0.178,0.101c0.145-0.045,0.277-0.12,0.408-0.195
			c0.111-0.062,0.221-0.12,0.324-0.197c0.199-0.152,0.371-0.328,0.527-0.521c0.064-0.079,0.133-0.155,0.203-0.226
			c0.041-0.039,0.082-0.076,0.123-0.113c0.02-0.019,0.041-0.038,0.062-0.057c0.012-0.01,0.023-0.019,0.035-0.026
			c0.004-0.004,0.025-0.02,0.031-0.025c0.098-0.077,0.205-0.144,0.314-0.202c0.107-0.054,0.211-0.09,0.34-0.116
			c0.043-0.01,0.053-0.011,0.082-0.015c0.08-0.009,0.143-0.059,0.143-0.142c0-0.073-0.062-0.151-0.143-0.145
			C47.707,53.577,47.266,53.898,46.926,54.272z"/>
		<path fill="#00A1DF" d="M48.607,55.055c0.047-0.063,0.031-0.153-0.033-0.199c-0.064-0.045-0.154-0.03-0.199,0.033
			c-0.84,1.178-2.357,1.744-2.652,1.846c-0.006,0.001-0.01,0.004-0.012,0.005c-0.074,0.026-0.109,0.108-0.082,0.184
			c0.021,0.057,0.076,0.09,0.133,0.09c0.016,0,0.033-0.002,0.049-0.007l0.006-0.001C46.125,56.898,47.717,56.304,48.607,55.055z"/>
		<path fill="#00A1DF" d="M49.697,57.854c-0.199-0.066-0.439-0.239-0.672-0.405c-0.34-0.24-0.633-0.448-0.871-0.409
			c-0.178,0.031-0.494,0.231-0.986,0.559c-0.355,0.233-0.76,0.499-0.936,0.547c-0.074,0.021-0.121,0.099-0.102,0.174
			c0.018,0.064,0.076,0.105,0.139,0.105c0.012,0,0.025-0.001,0.037-0.005c0.219-0.06,0.607-0.313,1.018-0.583
			c0.332-0.222,0.744-0.493,0.879-0.516c0.121-0.019,0.418,0.191,0.654,0.361c0.252,0.178,0.512,0.362,0.75,0.441
			c0.074,0.025,0.156-0.015,0.18-0.09S49.771,57.877,49.697,57.854z"/>
		<path fill="#00A1DF" d="M49.34,58.552c-0.115-0.041-0.301-0.156-0.482-0.268c-0.383-0.237-0.623-0.38-0.799-0.352
			c-0.176,0.031-0.547,0.284-1.168,0.738c-0.076,0.056-0.143,0.103-0.188,0.136c-0.064,0.045-0.08,0.134-0.035,0.199
			c0.029,0.039,0.072,0.06,0.117,0.06c0.027,0,0.057-0.008,0.084-0.025c0.045-0.034,0.111-0.083,0.189-0.139
			c0.248-0.183,0.904-0.66,1.047-0.686c0.09-0.007,0.41,0.191,0.602,0.311c0.203,0.124,0.395,0.241,0.535,0.294
			c0.076,0.027,0.156-0.013,0.184-0.085C49.453,58.661,49.414,58.58,49.34,58.552z"/>
		<path fill="#00A1DF" d="M48.633,59.105c-0.234-0.168-0.436-0.312-0.656-0.272c-0.25,0.043-0.648,0.442-0.725,0.522
			c-0.055,0.056-0.055,0.146,0.002,0.201c0.027,0.025,0.064,0.04,0.1,0.04c0.037,0,0.074-0.015,0.104-0.044
			c0.189-0.197,0.461-0.421,0.566-0.439c0.104-0.018,0.262,0.094,0.443,0.225c0.07,0.05,0.15,0.107,0.236,0.162
			c0.064,0.042,0.154,0.025,0.197-0.041c0.043-0.067,0.023-0.153-0.041-0.198C48.777,59.21,48.705,59.156,48.633,59.105z"/>
		<path fill="#00A1DF" d="M50.113,56.316c-0.119-0.05-0.242-0.103-0.342-0.186c-0.111-0.094-0.162-0.212-0.186-0.352
			c-0.029-0.183-0.305-0.104-0.275,0.076c0.062,0.37,0.334,0.57,0.658,0.708c0.072,0.029,0.152,0.021,0.195-0.053
			C50.201,56.451,50.186,56.346,50.113,56.316z"/>
		<path fill="#00A1DF" d="M49.836,57.061c-0.107-0.032-0.189-0.073-0.303-0.142c-0.205-0.123-0.396-0.3-0.488-0.527
			c-0.027-0.071-0.094-0.122-0.174-0.101c-0.07,0.02-0.129,0.104-0.1,0.177c0.168,0.418,0.559,0.735,0.99,0.869
			C49.938,57.391,50.012,57.114,49.836,57.061z"/>
		<path fill="#00A1DF" d="M27.848,58.202c0.148,0.073,0.308,0.111,0.474,0.111c0.354,0,0.668-0.162,0.946-0.31
			c-0.051,0.084-0.105,0.169-0.16,0.254c-0.441,0.665-0.797,0.899-0.967,0.899c-0.194,0-0.354,0.158-0.354,0.353
			s0.159,0.35,0.354,0.35c0.572,0,1.032-0.553,1.307-0.884l0.031-0.039c0.379-0.454,0.637-0.974,0.855-1.483
			c0.031,0.162,0.164,0.285,0.338,0.285c0,0,0.008,0,0.012,0c0.371-0.011,0.734-0.068,1.085-0.124
			c0.183-0.027,0.374-0.058,0.558-0.081c0.623-0.073,1.248-0.129,1.888-0.185c1.179-0.1,2.437-0.196,3.71-0.203
			c0.194,0,0.352-0.157,0.352-0.351c0-0.195-0.157-0.352-0.352-0.352c-0.402,0.002-0.801,0.016-1.199,0.032
			c-0.066-0.064-0.152-0.106-0.251-0.106c-0.046,0-0.093,0.009-0.134,0.026c-0.11,0.044-0.354,0.029-0.576,0.005
			c-0.075-0.007-0.147-0.016-0.211-0.018l-0.019-0.003c-0.423-0.029-0.858-0.059-1.276-0.118c-0.096-0.011-0.193-0.042-0.299-0.073
			c-0.148-0.044-0.319-0.095-0.505-0.103c-0.202-0.011-0.399,0.062-0.569,0.125c-0.061,0.023-0.117,0.044-0.172,0.059l-0.026,0.009
			c-0.021,0.006-0.06,0.017-0.104,0.028c-0.039-0.146-0.121-0.226-0.287-0.282c-0.072-0.023-0.154-0.034-0.26-0.034
			c-0.064,0-0.134,0.004-0.199,0.01c-0.049,0.004-0.092,0.006-0.131,0.006H31.69c-0.025-0.001-0.066-0.002-0.118-0.002
			c0.101-0.242,0.12-0.463,0.05-0.658c-0.092-0.266-0.301-0.43-0.579-0.458c0.08-0.478,0.155-1.031,0.059-1.513
			c-0.111-0.561-0.499-0.621-0.661-0.621c-0.141,0-0.57,0-1.5,0.947c-0.705,0.718-1.564,1.854-1.654,3.196
			C27.262,57.237,27.35,57.949,27.848,58.202z M30.075,56.072c-0.086,0.033-0.186,0.059-0.289,0.079
			c0.006-0.002,0.01-0.003,0.014-0.007l0.073-0.053c0.078-0.052,0.158-0.102,0.237-0.15C30.099,55.986,30.086,56.029,30.075,56.072z
			 M31.118,56.66c0,0,0.004,0,0.005,0c0.086,0.005,0.172,0.016,0.259,0.023c0.159,0.018,0.328,0.036,0.5,0.031
			c0.017,0.051,0.046,0.11,0.099,0.165c-0.077,0.011-0.155,0.021-0.233,0.032c-0.363,0.057-0.707,0.107-1.051,0.123
			c0.093-0.078,0.187-0.15,0.279-0.234C31.022,56.758,31.071,56.711,31.118,56.66z M30.909,55.621c0.007,0,0.012-0.002,0.012-0.002
			c0.006,0.01,0.004,0.02,0,0.031c-0.01,0.063-0.029,0.13-0.061,0.195C30.877,55.773,30.893,55.697,30.909,55.621z M28.174,56.1
			c0.229-0.665,0.687-1.326,1.438-2.078c0.388-0.387,0.672-0.542,0.789-0.563c0,0.004,0.002,0.005,0.002,0.005
			c0.078,0.222,0.028,0.588-0.012,0.88c-0.014,0.095-0.025,0.186-0.035,0.271c-0.016,0.144-0.033,0.288-0.055,0.433
			c-0.522,0.229-1.069,0.64-1.238,0.771c-0.599,0.47-0.593,0.738-0.537,0.899c0.037,0.108,0.152,0.292,0.499,0.292
			c0.079,0,0.169-0.009,0.272-0.027c0.075-0.012,0.287-0.064,0.521-0.128c-0.002,0.006-0.004,0.013-0.008,0.019
			c-0.285,0.188-0.576,0.35-0.795,0.471c-0.156,0.087-0.326,0.166-0.511,0.237c-0.048,0.019-0.092,0.028-0.133,0.028
			c-0.172,0-0.308-0.199-0.36-0.384C27.918,56.894,28.046,56.473,28.174,56.1z"/>
	</g>
	<path fill="#00A1DF" d="M80.377,0.25H0.698c-0.311,0-0.562,0.25-0.562,0.56V79.69c0,0.31,0.252,0.56,0.562,0.56h79.679
		c0.309,0,0.559-0.25,0.559-0.56V0.81C80.936,0.5,80.686,0.25,80.377,0.25z M79.426,78.74H1.645V1.76h77.781V78.74z"/>
</g>
</svg>
