<?xml version="1.0" encoding="utf-8"?>
<!-- Generator: Adobe Illustrator 16.0.0, SVG Export Plug-In . SVG Version: 6.00 Build 0)  -->
<!DOCTYPE svg PUBLIC "-//W3C//DTD SVG 1.1//EN" "http://www.w3.org/Graphics/SVG/1.1/DTD/svg11.dtd">
<svg version="1.1" id="Layer_1" xmlns="http://www.w3.org/2000/svg" xmlns:xlink="http://www.w3.org/1999/xlink" x="0px" y="0px"
	 width="107px" height="66px" viewBox="0 0 107 66" enable-background="new 0 0 107 66" xml:space="preserve">
<g>
	<path fill="#00A1DF" d="M22.782,33.141c6.119,0,11.098-4.98,11.098-11.102c0-6.123-4.979-11.104-11.098-11.104
		c-6.119,0-11.098,4.98-11.098,11.104C11.684,28.16,16.663,33.141,22.782,33.141z M22.782,12.422c5.299,0,9.611,4.314,9.611,9.617
		c0,5.303-4.312,9.617-9.611,9.617c-5.301,0-9.613-4.314-9.613-9.617C13.169,16.736,17.481,12.422,22.782,12.422z"/>
	<path fill="#00A1DF" d="M13.417,51.293L13.417,51.293c1.279,0,2.668-0.049,4.137-0.098c1.676-0.06,3.41-0.117,5.229-0.117
		c1.819,0,3.551,0.059,5.227,0.117c1.471,0.049,2.859,0.098,4.139,0.098c4.172,0,8.623-0.391,8.623-5.043
		c0-6.123-8.07-11.104-17.988-11.104c-9.92,0-17.99,4.979-17.99,11.104C4.792,50.902,9.243,51.293,13.417,51.293z M22.782,36.633
		c9.1,0,16.502,4.314,16.502,9.617c0,2.625-1.867,3.557-7.137,3.557c-1.254,0-2.631-0.047-4.088-0.098
		c-1.689-0.057-3.436-0.117-5.277-0.117c-1.844,0-3.59,0.061-5.279,0.117c-1.457,0.051-2.832,0.098-4.086,0.098l0,0
		c-5.271,0-7.139-0.932-7.139-3.557C6.278,40.947,13.682,36.633,22.782,36.633z"/>
	<path fill="#00A1DF" d="M106.305,0.5H0.79c-0.41,0-0.742,0.332-0.742,0.742v63.514c0,0.412,0.332,0.744,0.742,0.744h105.517
		c0.409,0,0.741-0.332,0.741-0.744V1.242C107.047,0.832,106.715,0.5,106.305,0.5z M105.047,63.5h-103v-61h103V63.5z"/>
	<path fill="#00A1DF" d="M44.448,15.5h45.686c0.41,0,0.742-0.59,0.742-1s-0.332-1-0.742-1H44.448c-0.41,0-0.742,0.59-0.742,1
		S44.038,15.5,44.448,15.5z"/>
	<path fill="#00A1DF" d="M44.448,43.5h45.686c0.41,0,0.742-0.09,0.742-0.5s-0.332-0.5-0.742-0.5H44.448
		c-0.41,0-0.742,0.09-0.742,0.5S44.038,43.5,44.448,43.5z"/>
	<path fill="#00A1DF" d="M44.448,35.5h33.057c0.41,0,0.744-0.59,0.744-1s-0.334-1-0.744-1H44.448c-0.41,0-0.742,0.59-0.742,1
		S44.038,35.5,44.448,35.5z"/>
	<path fill="#00A1DF" d="M44.448,29.5h19.686c0.41,0,0.742-0.09,0.742-0.5s-0.332-0.5-0.742-0.5H44.448
		c-0.41,0-0.742,0.09-0.742,0.5S44.038,29.5,44.448,29.5z"/>
	<path fill="#00A1DF" d="M44.448,21.5h19.686c0.41,0,0.742-0.59,0.742-1s-0.332-1-0.742-1H44.448c-0.41,0-0.742,0.59-0.742,1
		S44.038,21.5,44.448,21.5z"/>
	<path fill="#00A1DF" d="M44.448,50.5h11.885c0.412,0,0.744-0.09,0.744-0.5s-0.332-0.5-0.744-0.5H44.448
		c-0.41,0-0.742,0.09-0.742,0.5S44.038,50.5,44.448,50.5z"/>
	<path fill="#00A1DF" d="M79.732,49.5H63.762c-0.41,0-0.742,0.09-0.742,0.5s0.332,0.5,0.742,0.5h15.971c0.41,0,0.744-0.09,0.744-0.5
		S80.143,49.5,79.732,49.5z"/>
	<path fill="#00A1DF" d="M83.077,50c0,0.41,0.332,0.5,0.741,0.5h15.974c0.41,0,0.742-0.09,0.742-0.5s-0.332-0.5-0.742-0.5H83.818
		C83.409,49.5,83.077,49.59,83.077,50z"/>
</g>
</svg>
