<?xml version="1.0" encoding="utf-8"?>
<!-- Generator: Adobe Illustrator 16.0.0, SVG Export Plug-In . SVG Version: 6.00 Build 0)  -->
<!DOCTYPE svg PUBLIC "-//W3C//DTD SVG 1.1//EN" "http://www.w3.org/Graphics/SVG/1.1/DTD/svg11.dtd">
<svg version="1.1" id="Layer_1" xmlns="http://www.w3.org/2000/svg" xmlns:xlink="http://www.w3.org/1999/xlink" x="0px" y="0px"
	 width="116.75px" height="116.5px" viewBox="0 0 116.75 116.5" enable-background="new 0 0 116.75 116.5" xml:space="preserve">
<g>
	<path fill="#DFE8F1" d="M40.568,33.01c3.435,0,6.229-2.796,6.229-6.232s-2.794-6.232-6.229-6.232c-3.435,0-6.229,2.796-6.229,6.232
		S37.133,33.01,40.568,33.01z M40.568,21.38c2.975,0,5.396,2.421,5.396,5.397s-2.421,5.398-5.396,5.398
		c-2.976,0-5.396-2.422-5.396-5.398S37.593,21.38,40.568,21.38z"/>
	<path fill="#DFE8F1" d="M35.312,43.199L35.312,43.199c0.718,0,1.497-0.027,2.322-0.055c0.941-0.032,1.914-0.065,2.935-0.065
		c1.021,0,1.993,0.033,2.934,0.065c0.825,0.028,1.604,0.055,2.323,0.055c2.342,0,4.841-0.219,4.841-2.83
		c0-3.438-4.53-6.233-10.098-6.233c-5.568,0-10.098,2.796-10.098,6.233C30.471,42.979,32.969,43.199,35.312,43.199z M40.568,34.969
		c5.107,0,9.263,2.422,9.263,5.399c0,1.474-1.048,1.996-4.006,1.996c-0.704,0-1.477-0.026-2.294-0.055
		c-0.948-0.032-1.928-0.065-2.962-0.065c-1.035,0-2.015,0.033-2.963,0.065c-0.818,0.028-1.59,0.055-2.294,0.055l0,0
		c-2.958,0-4.007-0.522-4.007-1.996C31.305,37.392,35.46,34.969,40.568,34.969z"/>
	<path fill="#DFE8F1" d="M87.451,14.688H28.225c-0.23,0-0.417,0.187-0.417,0.417v35.651c0,0.23,0.187,0.417,0.417,0.417h59.227
		c0.23,0,0.417-0.187,0.417-0.417V15.105C87.868,14.875,87.682,14.688,87.451,14.688z M86.745,50.051H28.93v-34.24h57.815V50.051z"
		/>
	<path fill="#DFE8F1" d="M52.729,23.108h25.645c0.23,0,0.417-0.332,0.417-0.562c0-0.23-0.187-0.561-0.417-0.561H52.729
		c-0.23,0-0.417,0.33-0.417,0.561C52.313,22.776,52.5,23.108,52.729,23.108z"/>
	<path fill="#DFE8F1" d="M52.729,38.825h25.645c0.23,0,0.417-0.051,0.417-0.281c0-0.23-0.187-0.281-0.417-0.281H52.729
		c-0.23,0-0.417,0.05-0.417,0.281C52.313,38.774,52.5,38.825,52.729,38.825z"/>
	<path fill="#DFE8F1" d="M52.729,34.334h18.556c0.23,0,0.417-0.331,0.417-0.562s-0.187-0.561-0.417-0.561H52.729
		c-0.23,0-0.417,0.331-0.417,0.561S52.5,34.334,52.729,34.334z"/>
	<path fill="#DFE8F1" d="M52.729,30.966h11.05c0.23,0,0.417-0.051,0.417-0.281c0-0.23-0.187-0.281-0.417-0.281h-11.05
		c-0.23,0-0.417,0.05-0.417,0.281C52.313,30.916,52.5,30.966,52.729,30.966z"/>
	<path fill="#DFE8F1" d="M52.729,26.476h11.05c0.23,0,0.417-0.331,0.417-0.562s-0.187-0.561-0.417-0.561h-11.05
		c-0.23,0-0.417,0.331-0.417,0.561S52.5,26.476,52.729,26.476z"/>
	<path fill="#DFE8F1" d="M52.729,42.754h6.672c0.23,0,0.417-0.051,0.417-0.281c0-0.23-0.187-0.281-0.417-0.281h-6.672
		c-0.23,0-0.417,0.05-0.417,0.281C52.313,42.703,52.5,42.754,52.729,42.754z"/>
	<path fill="#DFE8F1" d="M72.536,42.192h-8.965c-0.23,0-0.417,0.05-0.417,0.281c0,0.23,0.187,0.281,0.417,0.281h8.965
		c0.23,0,0.417-0.051,0.417-0.281C72.953,42.243,72.767,42.192,72.536,42.192z"/>
	<path fill="#DFE8F1" d="M74.412,42.473c0,0.23,0.188,0.281,0.417,0.281h8.965c0.23,0,0.417-0.051,0.417-0.281
		c0-0.23-0.187-0.281-0.417-0.281H74.83C74.6,42.192,74.412,42.243,74.412,42.473z"/>
</g>
<g>
	<path fill="#DFE8F1" d="M87.162,61.751H27.936c-0.23,0-0.417,0.186-0.417,0.417v35.651c0,0.231,0.187,0.417,0.417,0.417h59.227
		c0.23,0,0.417-0.186,0.417-0.417V62.168C87.579,61.938,87.393,61.751,87.162,61.751z M86.457,97.114H28.642v-34.24h57.815V97.114z"
		/>
	<path fill="#DFE8F1" d="M31.304,71.854c-0.23,0-0.417,0.187-0.417,0.417v11.515c0,0.23,0.187,0.417,0.417,0.417h42.948
		c0.23,0,0.417-0.187,0.417-0.417V72.271c0-0.23-0.187-0.417-0.417-0.417H31.304z M74.107,83.642H31.448V72.416h42.659V83.642z"/>
	<path fill="#DFE8F1" d="M31.175,68.487h52.331c0.23,0,0.417-0.331,0.417-0.562s-0.187-0.561-0.417-0.561H31.175
		c-0.23,0-0.417,0.331-0.417,0.561S30.945,68.487,31.175,68.487z"/>
	<path fill="#DFE8F1" d="M31.175,88.694h52.331c0.23,0,0.417-0.05,0.417-0.28c0-0.23-0.187-0.281-0.417-0.281H31.175
		c-0.23,0-0.417,0.05-0.417,0.281C30.758,88.644,30.945,88.694,31.175,88.694z"/>
	<path fill="#DFE8F1" d="M31.175,92.624h52.331c0.23,0,0.417-0.051,0.417-0.281s-0.187-0.28-0.417-0.28H31.175
		c-0.23,0-0.417,0.05-0.417,0.28S30.945,92.624,31.175,92.624z"/>
	<path fill="#DFE8F1" d="M64.321,76.152c0.06,0.013,0.115,0.012,0.284-0.118c0.075-0.058,0.186-0.155,0.288-0.291l0.045-0.06
		c0.383-0.51,1.282-1.705,2.579-1.64c1.07,0.078,1.829,0.885,2.194,2.337c0.012,0.048,0.02,0.078,0.028,0.102
		c0.056,0.237,0.149,0.533,0.284,0.63c0.034,0.024,0.073,0.037,0.11,0.037c0.059,0,0.117-0.028,0.154-0.079
		c0.059-0.081,0.043-0.193-0.034-0.258c-0.037-0.048-0.107-0.249-0.149-0.431c-0.002-0.01-0.006-0.021-0.01-0.031
		c-0.004-0.012-0.01-0.039-0.017-0.063c-0.058-0.229-0.211-0.84-0.584-1.416c-0.48-0.74-1.137-1.148-1.95-1.206
		c-0.001,0-0.002,0-0.004,0c-1.499-0.076-2.482,1.232-2.902,1.79l-0.044,0.059c-0.115,0.152-0.251,0.247-0.298,0.274
		c-0.016,0.006-0.031,0.015-0.045,0.025c-0.058,0.045-0.087,0.121-0.072,0.193C64.193,76.079,64.249,76.135,64.321,76.152z"/>
	<path fill="#DFE8F1" d="M64.405,78.091c0.624-0.169,1.2-0.515,1.225-0.531c0.813-0.498,1.552-1.282,1.558-1.29
		c0.305-0.349,0.756-0.683,1.106-0.576c0.207,0.064,0.351,0.176,0.427,0.335c0.091,0.19,0.084,0.448-0.02,0.707
		c-0.192,0.48-0.792,1.062-1.688,1.635c-0.449,0.288-1.58,0.994-2.379,1.337c-0.096,0.04-0.14,0.151-0.099,0.247
		c0.03,0.072,0.1,0.114,0.173,0.114c0.025,0,0.05-0.005,0.075-0.015c0.824-0.353,1.977-1.071,2.434-1.364
		c0.68-0.437,1.55-1.105,1.835-1.814c0.142-0.356,0.146-0.724,0.009-1.008c-0.122-0.256-0.349-0.44-0.656-0.534
		c-0.452-0.138-1,0.113-1.501,0.688c-0.007,0.006-0.721,0.758-1.471,1.217c-0.005,0.004-0.554,0.333-1.128,0.489
		c-0.101,0.027-0.16,0.131-0.132,0.231C64.201,78.059,64.304,78.119,64.405,78.091z"/>
	<path fill="#DFE8F1" d="M66.01,75.466c-0.085,0.094-0.163,0.195-0.245,0.292c-0.108,0.127-0.228,0.245-0.352,0.357
		c-0.127,0.115-0.23,0.197-0.38,0.283c-0.159,0.092-0.322,0.185-0.487,0.265c-0.057,0.028-0.105,0.046-0.169,0.065
		c-0.098,0.03-0.16,0.13-0.132,0.232c0.027,0.097,0.134,0.162,0.233,0.132c0.193-0.058,0.368-0.157,0.542-0.257
		c0.147-0.083,0.293-0.159,0.429-0.262c0.265-0.201,0.491-0.435,0.7-0.691c0.085-0.105,0.175-0.204,0.27-0.297
		c0.052-0.053,0.105-0.102,0.16-0.152c0.028-0.025,0.057-0.049,0.086-0.074c0.015-0.013,0.03-0.025,0.045-0.037
		c0.004-0.003,0.033-0.025,0.041-0.033c0.131-0.101,0.271-0.19,0.419-0.266c0.139-0.072,0.278-0.121,0.448-0.157
		c0.056-0.011,0.068-0.013,0.11-0.018c0.103-0.01,0.189-0.078,0.189-0.188c0-0.095-0.087-0.2-0.189-0.189
		C67.044,74.543,66.46,74.97,66.01,75.466z"/>
	<path fill="#DFE8F1" d="M68.237,76.501c0.061-0.085,0.041-0.204-0.044-0.264c-0.085-0.06-0.203-0.041-0.264,0.044
		c-1.113,1.559-3.121,2.309-3.512,2.443c-0.009,0.003-0.014,0.004-0.015,0.006c-0.098,0.037-0.147,0.146-0.11,0.244
		c0.028,0.074,0.1,0.12,0.176,0.12c0.021,0,0.043-0.003,0.064-0.01l0.007-0.003C64.95,78.942,67.058,78.156,68.237,76.501z"/>
	<path fill="#DFE8F1" d="M69.68,80.208c-0.262-0.087-0.583-0.316-0.892-0.536c-0.449-0.319-0.836-0.595-1.151-0.542
		c-0.237,0.041-0.652,0.307-1.306,0.738c-0.472,0.31-1.006,0.663-1.239,0.725c-0.101,0.028-0.161,0.132-0.134,0.231
		c0.023,0.086,0.1,0.14,0.183,0.14c0.016,0,0.033-0.001,0.049-0.006c0.292-0.079,0.805-0.417,1.348-0.776
		c0.439-0.29,0.986-0.649,1.163-0.68c0.16-0.026,0.553,0.253,0.868,0.478c0.333,0.236,0.677,0.481,0.992,0.586
		c0.099,0.034,0.206-0.02,0.239-0.119C69.832,80.347,69.778,80.24,69.68,80.208z"/>
	<path fill="#DFE8F1" d="M69.207,81.132c-0.152-0.055-0.4-0.207-0.639-0.355c-0.506-0.313-0.827-0.503-1.057-0.463
		c-0.234,0.041-0.725,0.374-1.548,0.976c-0.101,0.074-0.188,0.136-0.249,0.179c-0.085,0.061-0.105,0.178-0.045,0.264
		c0.037,0.052,0.096,0.08,0.154,0.08c0.038,0,0.076-0.011,0.109-0.034c0.063-0.045,0.15-0.109,0.253-0.184
		c0.327-0.239,1.198-0.875,1.387-0.907c0.118-0.008,0.543,0.254,0.797,0.411c0.268,0.165,0.521,0.321,0.709,0.39
		c0.098,0.036,0.207-0.016,0.242-0.114C69.356,81.276,69.306,81.168,69.207,81.132z"/>
	<path fill="#DFE8F1" d="M68.271,81.865c-0.31-0.221-0.578-0.413-0.871-0.361c-0.331,0.057-0.857,0.586-0.958,0.692
		c-0.073,0.075-0.071,0.194,0.004,0.267c0.037,0.035,0.084,0.053,0.131,0.053c0.049,0,0.099-0.02,0.136-0.058
		c0.253-0.262,0.612-0.557,0.751-0.583c0.138-0.024,0.347,0.125,0.587,0.298c0.093,0.065,0.198,0.141,0.311,0.215
		c0.088,0.057,0.205,0.032,0.262-0.056c0.057-0.087,0.032-0.204-0.055-0.261C68.463,82.002,68.365,81.933,68.271,81.865z"/>
	<path fill="#DFE8F1" d="M70.231,78.172c-0.158-0.067-0.322-0.137-0.455-0.246c-0.146-0.122-0.214-0.281-0.244-0.466
		c-0.039-0.24-0.403-0.138-0.364,0.101c0.081,0.49,0.441,0.755,0.872,0.938c0.096,0.04,0.202,0.03,0.259-0.067
		C70.346,78.351,70.326,78.212,70.231,78.172z"/>
	<path fill="#DFE8F1" d="M69.864,79.158c-0.142-0.043-0.25-0.099-0.399-0.188c-0.274-0.163-0.525-0.397-0.647-0.699
		c-0.038-0.095-0.125-0.162-0.232-0.132c-0.091,0.025-0.17,0.137-0.132,0.233c0.225,0.555,0.742,0.974,1.311,1.149
		C69.998,79.594,70.097,79.23,69.864,79.158z"/>
	<path fill="#DFE8F1" d="M40.747,80.668c0.195,0.099,0.406,0.148,0.627,0.148c0.467,0,0.884-0.217,1.252-0.41
		c-0.068,0.112-0.139,0.224-0.212,0.336c-0.583,0.881-1.054,1.192-1.28,1.192c-0.257,0-0.466,0.209-0.466,0.465
		s0.209,0.464,0.466,0.464c0.759,0,1.368-0.734,1.731-1.172l0.041-0.051c0.501-0.602,0.843-1.289,1.133-1.965
		c0.041,0.216,0.219,0.379,0.447,0.379c0.004,0,0.011,0,0.016-0.001c0.491-0.016,0.972-0.091,1.436-0.164
		c0.244-0.038,0.495-0.078,0.74-0.106c0.825-0.099,1.653-0.172,2.499-0.244c1.561-0.134,3.226-0.263,4.914-0.271
		c0.257,0,0.466-0.209,0.466-0.465c0-0.257-0.209-0.465-0.468-0.465c-0.531,0.002-1.059,0.02-1.587,0.043
		c-0.087-0.086-0.202-0.143-0.331-0.143c-0.062,0-0.124,0.012-0.178,0.036c-0.146,0.058-0.469,0.04-0.764,0.007
		c-0.098-0.01-0.192-0.021-0.278-0.025l-0.023-0.002c-0.56-0.038-1.138-0.077-1.691-0.155c-0.126-0.017-0.257-0.057-0.395-0.098
		c-0.198-0.059-0.422-0.125-0.669-0.138c-0.266-0.013-0.528,0.083-0.753,0.167c-0.079,0.03-0.156,0.059-0.227,0.078l-0.036,0.011
		c-0.027,0.008-0.078,0.023-0.137,0.038c-0.052-0.192-0.162-0.298-0.38-0.372c-0.096-0.032-0.206-0.047-0.345-0.047
		c-0.086,0-0.178,0.006-0.266,0.013c-0.062,0.003-0.121,0.009-0.171,0.009l-0.021-0.001c-0.034-0.002-0.088-0.003-0.157-0.004
		c0.134-0.317,0.158-0.611,0.067-0.871c-0.122-0.352-0.399-0.567-0.768-0.606c0.106-0.632,0.205-1.364,0.077-2.001
		c-0.148-0.743-0.661-0.824-0.874-0.824c-0.187,0-0.756,0-1.988,1.254c-0.934,0.95-2.071,2.456-2.19,4.231
		C39.971,79.392,40.086,80.335,40.747,80.668z M43.695,77.849c-0.114,0.044-0.246,0.077-0.381,0.105
		c0.006-0.004,0.011-0.007,0.017-0.011l0.096-0.067c0.103-0.071,0.21-0.138,0.315-0.199C43.727,77.736,43.711,77.792,43.695,77.849z
		 M45.076,78.627c0.002,0,0.005,0,0.007,0c0.113,0.007,0.228,0.02,0.342,0.031c0.212,0.024,0.436,0.048,0.663,0.041
		c0.021,0.068,0.061,0.146,0.13,0.219c-0.102,0.015-0.207,0.027-0.308,0.042c-0.482,0.075-0.938,0.144-1.392,0.163
		c0.123-0.104,0.246-0.199,0.368-0.31C44.948,78.757,45.013,78.694,45.076,78.627z M44.8,77.25c0.008,0,0.016-0.001,0.022-0.002
		c-0.001,0.013-0.003,0.026-0.006,0.042c-0.015,0.084-0.042,0.171-0.082,0.26C44.757,77.452,44.778,77.352,44.8,77.25z
		 M41.178,77.886c0.304-0.882,0.91-1.757,1.906-2.753c0.511-0.512,0.886-0.719,1.042-0.745c0.001,0.003,0.002,0.006,0.003,0.01
		c0.104,0.291,0.038,0.773-0.016,1.16c-0.018,0.127-0.034,0.247-0.045,0.358c-0.02,0.189-0.045,0.381-0.075,0.573
		c-0.691,0.302-1.415,0.847-1.638,1.021c-0.792,0.621-0.786,0.978-0.712,1.191c0.049,0.144,0.201,0.384,0.661,0.384
		c0.104,0,0.224-0.011,0.363-0.034c0.098-0.017,0.377-0.087,0.688-0.171c-0.003,0.008-0.007,0.018-0.01,0.026
		c-0.378,0.249-0.764,0.462-1.053,0.622c-0.208,0.117-0.43,0.219-0.677,0.315c-0.063,0.023-0.122,0.037-0.175,0.037
		c-0.229,0-0.409-0.263-0.478-0.507C40.839,78.937,41.009,78.377,41.178,77.886z"/>
</g>
<path fill="#DFE8F1" d="M110.595,3.926H5.081c-0.41,0-0.743,0.332-0.743,0.743v104.455c0,0.411,0.333,0.743,0.743,0.743h105.515
	c0.41,0,0.743-0.332,0.743-0.743V4.669C111.338,4.258,111.005,3.926,110.595,3.926z M109.338,107.867h-103V5.926h103V107.867z"/>
</svg>
