<?xml version="1.0" encoding="utf-8"?>
<!-- Generator: Adobe Illustrator 16.0.0, SVG Export Plug-In . SVG Version: 6.00 Build 0)  -->
<!DOCTYPE svg PUBLIC "-//W3C//DTD SVG 1.1//EN" "http://www.w3.org/Graphics/SVG/1.1/DTD/svg11.dtd">
<svg version="1.1" id="Layer_1" xmlns="http://www.w3.org/2000/svg" xmlns:xlink="http://www.w3.org/1999/xlink" x="0px" y="0px"
	 width="116.75px" height="116.5px" viewBox="0 0 116.75 116.5" enable-background="new 0 0 116.75 116.5" xml:space="preserve">
<g>
	<path fill="#DFE8F1" d="M111.132,25.75H5.618c-0.41,0-0.743,0.332-0.743,0.743v63.514c0,0.411,0.333,0.743,0.743,0.743h105.515
		c0.41,0,0.743-0.332,0.743-0.743V26.493C111.875,26.082,111.542,25.75,111.132,25.75z M109.875,88.75h-103v-61h103V88.75z"/>
	<path fill="#DFE8F1" d="M11.618,43.75c-0.411,0-0.743,0.332-0.743,0.743v20.514c0,0.411,0.333,0.743,0.743,0.743h76.514
		c0.411,0,0.743-0.332,0.743-0.743V44.493c0-0.411-0.333-0.743-0.743-0.743H11.618z M87.875,64.75h-76v-20h76V64.75z"/>
	<path fill="#DFE8F1" d="M11.389,37.75h93.229c0.411,0,0.743-0.59,0.743-1s-0.333-1-0.743-1H11.389c-0.41,0-0.743,0.59-0.743,1
		S10.979,37.75,11.389,37.75z"/>
	<path fill="#DFE8F1" d="M11.389,73.75h93.229c0.411,0,0.743-0.09,0.743-0.5s-0.333-0.5-0.743-0.5H11.389
		c-0.41,0-0.743,0.09-0.743,0.5S10.979,73.75,11.389,73.75z"/>
	<path fill="#DFE8F1" d="M11.389,80.75h93.229c0.411,0,0.743-0.09,0.743-0.5s-0.333-0.5-0.743-0.5H11.389
		c-0.41,0-0.743,0.09-0.743,0.5S10.979,80.75,11.389,80.75z"/>
	<path fill="#DFE8F1" d="M70.439,51.405c0.106,0.023,0.204,0.021,0.506-0.21c0.133-0.103,0.331-0.276,0.513-0.518l0.081-0.106
		c0.683-0.908,2.283-3.037,4.594-2.921c1.906,0.139,3.258,1.578,3.908,4.164c0.021,0.086,0.035,0.14,0.05,0.182
		c0.099,0.422,0.266,0.949,0.505,1.122c0.06,0.044,0.129,0.065,0.197,0.065c0.104,0,0.208-0.049,0.273-0.141
		c0.105-0.145,0.077-0.346-0.061-0.459c-0.066-0.086-0.19-0.444-0.265-0.768c-0.004-0.018-0.011-0.037-0.018-0.055
		c-0.006-0.022-0.018-0.069-0.03-0.113c-0.102-0.409-0.376-1.497-1.04-2.521c-0.856-1.319-2.026-2.046-3.475-2.148
		c-0.002,0-0.004,0-0.006,0c-2.67-0.136-4.423,2.194-5.171,3.188l-0.079,0.105c-0.205,0.271-0.447,0.438-0.53,0.488
		c-0.028,0.011-0.056,0.026-0.081,0.045c-0.104,0.08-0.155,0.215-0.128,0.344C70.212,51.276,70.311,51.376,70.439,51.405z"/>
	<path fill="#DFE8F1" d="M70.59,54.861c1.111-0.302,2.137-0.918,2.181-0.946c1.45-0.887,2.765-2.284,2.775-2.298
		c0.543-0.621,1.347-1.217,1.972-1.026c0.369,0.114,0.625,0.314,0.76,0.597c0.162,0.34,0.149,0.798-0.035,1.259
		c-0.343,0.855-1.411,1.891-3.007,2.913c-0.8,0.513-2.815,1.77-4.238,2.38c-0.171,0.072-0.25,0.27-0.177,0.44
		c0.054,0.128,0.179,0.204,0.31,0.204c0.044,0,0.089-0.01,0.133-0.027c1.468-0.628,3.522-1.909,4.336-2.43
		c1.212-0.777,2.762-1.969,3.269-3.231c0.252-0.635,0.26-1.289,0.016-1.797c-0.217-0.455-0.622-0.783-1.169-0.951
		c-0.805-0.245-1.781,0.201-2.674,1.226c-0.012,0.012-1.284,1.35-2.62,2.168c-0.009,0.007-0.987,0.593-2.009,0.87
		c-0.179,0.05-0.285,0.234-0.236,0.413C70.225,54.804,70.41,54.91,70.59,54.861z"/>
	<path fill="#DFE8F1" d="M73.448,50.184c-0.152,0.168-0.29,0.348-0.437,0.521c-0.193,0.227-0.405,0.437-0.625,0.636
		c-0.227,0.206-0.41,0.352-0.678,0.505c-0.284,0.164-0.573,0.329-0.867,0.471c-0.102,0.05-0.188,0.082-0.302,0.115
		c-0.175,0.054-0.285,0.233-0.235,0.414c0.048,0.174,0.239,0.289,0.415,0.235c0.344-0.103,0.656-0.28,0.966-0.457
		c0.263-0.148,0.522-0.283,0.764-0.467c0.471-0.357,0.874-0.774,1.246-1.23c0.151-0.187,0.312-0.362,0.48-0.53
		c0.092-0.094,0.187-0.182,0.284-0.271c0.05-0.045,0.102-0.088,0.153-0.131c0.026-0.022,0.053-0.045,0.08-0.066
		c0.007-0.006,0.059-0.046,0.072-0.058c0.234-0.181,0.484-0.34,0.747-0.475c0.248-0.128,0.496-0.215,0.799-0.279
		c0.1-0.02,0.122-0.023,0.197-0.031c0.182-0.018,0.336-0.139,0.336-0.336c0-0.17-0.154-0.355-0.336-0.337
		C75.291,48.54,74.25,49.301,73.448,50.184z"/>
	<path fill="#DFE8F1" d="M77.417,52.028c0.107-0.152,0.072-0.362-0.079-0.471c-0.152-0.106-0.361-0.072-0.47,0.08
		c-1.982,2.777-5.56,4.112-6.256,4.353c-0.016,0.006-0.024,0.008-0.027,0.01c-0.174,0.066-0.261,0.26-0.195,0.435
		c0.05,0.134,0.178,0.216,0.314,0.216c0.038,0,0.077-0.006,0.114-0.02l0.012-0.005C71.561,56.376,75.314,54.976,77.417,52.028z"/>
	<path fill="#DFE8F1" d="M79.987,58.631c-0.467-0.155-1.038-0.562-1.59-0.955c-0.799-0.569-1.489-1.061-2.051-0.965
		c-0.423,0.073-1.162,0.546-2.327,1.313c-0.84,0.554-1.792,1.181-2.207,1.293c-0.18,0.049-0.287,0.233-0.238,0.411
		c0.041,0.152,0.177,0.25,0.326,0.25c0.028,0,0.058-0.003,0.087-0.011c0.519-0.141,1.434-0.744,2.402-1.383
		c0.783-0.516,1.756-1.156,2.071-1.212c0.286-0.048,0.985,0.45,1.546,0.851c0.592,0.421,1.205,0.857,1.767,1.045
		c0.177,0.06,0.367-0.036,0.425-0.213C80.258,58.88,80.163,58.688,79.987,58.631z"/>
	<path fill="#DFE8F1" d="M79.144,60.278c-0.271-0.097-0.712-0.369-1.139-0.632c-0.901-0.558-1.473-0.896-1.883-0.825
		c-0.417,0.072-1.292,0.666-2.758,1.738c-0.18,0.131-0.334,0.242-0.442,0.318c-0.151,0.108-0.188,0.317-0.081,0.47
		c0.066,0.093,0.17,0.143,0.275,0.143c0.068,0,0.135-0.021,0.194-0.061c0.112-0.081,0.269-0.195,0.451-0.327
		c0.583-0.428,2.135-1.56,2.471-1.617c0.21-0.014,0.967,0.452,1.419,0.732c0.477,0.294,0.928,0.572,1.264,0.694
		c0.175,0.063,0.368-0.027,0.431-0.203C79.41,60.534,79.32,60.343,79.144,60.278z"/>
	<path fill="#DFE8F1" d="M77.477,61.584c-0.552-0.394-1.029-0.734-1.552-0.644c-0.588,0.103-1.526,1.045-1.708,1.232
		c-0.13,0.135-0.126,0.347,0.007,0.477c0.065,0.062,0.15,0.095,0.234,0.095c0.088,0,0.176-0.035,0.242-0.103
		c0.45-0.466,1.09-0.993,1.339-1.038c0.245-0.043,0.618,0.223,1.046,0.529c0.166,0.117,0.353,0.252,0.554,0.383
		c0.156,0.102,0.365,0.058,0.466-0.099c0.101-0.155,0.057-0.363-0.098-0.466C77.819,61.828,77.645,61.705,77.477,61.584z"/>
	<path fill="#DFE8F1" d="M80.969,55.005c-0.28-0.118-0.574-0.243-0.811-0.438c-0.259-0.217-0.38-0.5-0.434-0.829
		c-0.07-0.427-0.719-0.245-0.649,0.179c0.144,0.874,0.786,1.346,1.554,1.67c0.169,0.071,0.359,0.054,0.461-0.119
		C81.174,55.323,81.138,55.077,80.969,55.005z"/>
	<path fill="#DFE8F1" d="M80.315,56.761c-0.252-0.077-0.445-0.177-0.711-0.334c-0.49-0.289-0.937-0.708-1.154-1.245
		c-0.068-0.168-0.222-0.287-0.415-0.234c-0.161,0.044-0.303,0.243-0.235,0.415c0.401,0.987,1.322,1.735,2.336,2.048
		C80.553,57.539,80.729,56.89,80.315,56.761z"/>
	<path fill="#DFE8F1" d="M28.441,59.452c0.348,0.175,0.724,0.265,1.117,0.265c0.833,0,1.575-0.386,2.231-0.731
		c-0.121,0.2-0.247,0.4-0.378,0.599c-1.038,1.569-1.877,2.125-2.28,2.125c-0.458,0-0.83,0.372-0.83,0.829
		c0,0.456,0.373,0.827,0.83,0.827c1.353,0,2.437-1.308,3.084-2.088l0.074-0.09c0.893-1.072,1.502-2.298,2.019-3.501
		c0.072,0.385,0.389,0.675,0.796,0.675c0.008,0,0.02,0,0.028-0.001c0.874-0.029,1.73-0.163,2.558-0.293
		c0.434-0.067,0.882-0.138,1.318-0.19c1.469-0.175,2.944-0.306,4.452-0.435c2.781-0.237,5.747-0.469,8.753-0.481
		c0.458,0,0.831-0.372,0.831-0.828c0-0.457-0.373-0.828-0.834-0.828c-0.945,0.004-1.887,0.035-2.829,0.076
		c-0.154-0.153-0.359-0.255-0.589-0.255c-0.111,0-0.22,0.022-0.317,0.064c-0.261,0.104-0.836,0.07-1.362,0.014
		c-0.174-0.019-0.342-0.037-0.496-0.047l-0.042-0.002c-0.997-0.067-2.028-0.138-3.013-0.277c-0.226-0.03-0.458-0.1-0.704-0.173
		c-0.352-0.105-0.751-0.225-1.192-0.247c-0.474-0.023-0.94,0.148-1.342,0.299c-0.141,0.053-0.277,0.104-0.404,0.139l-0.063,0.019
		c-0.048,0.015-0.14,0.041-0.244,0.066c-0.094-0.343-0.288-0.531-0.678-0.662c-0.171-0.057-0.366-0.084-0.615-0.084
		c-0.153,0-0.316,0.011-0.473,0.022c-0.109,0.007-0.214,0.016-0.304,0.016l-0.039-0.002c-0.06-0.003-0.157-0.005-0.279-0.007
		c0.239-0.564,0.281-1.089,0.12-1.551c-0.218-0.628-0.711-1.012-1.368-1.08c0.19-1.126,0.365-2.43,0.138-3.565
		c-0.265-1.324-1.177-1.468-1.557-1.468c-0.333,0-1.348,0-3.542,2.234c-1.663,1.693-3.689,4.375-3.902,7.538
		C27.058,57.179,27.265,58.859,28.441,59.452z M33.694,54.43c-0.203,0.079-0.438,0.137-0.678,0.188
		c0.01-0.007,0.02-0.014,0.029-0.021l0.171-0.119c0.183-0.127,0.374-0.246,0.561-0.354C33.75,54.227,33.723,54.328,33.694,54.43z
		 M36.153,55.816c0.004,0,0.009,0,0.014,0c0.202,0.012,0.404,0.034,0.608,0.056c0.378,0.042,0.777,0.085,1.181,0.073
		c0.039,0.122,0.109,0.261,0.233,0.389c-0.182,0.027-0.369,0.049-0.548,0.076c-0.859,0.133-1.671,0.256-2.48,0.289
		c0.219-0.184,0.438-0.354,0.654-0.551C35.927,56.047,36.042,55.934,36.153,55.816z M35.662,53.363c0.014,0,0.028-0.002,0.041-0.003
		c-0.002,0.022-0.006,0.046-0.011,0.074c-0.026,0.149-0.075,0.305-0.145,0.462C35.586,53.722,35.624,53.543,35.662,53.363z
		 M29.21,54.496c0.542-1.571,1.621-3.13,3.395-4.905c0.911-0.911,1.578-1.281,1.855-1.327c0.002,0.005,0.004,0.011,0.006,0.018
		c0.185,0.519,0.067,1.377-0.028,2.066c-0.031,0.226-0.061,0.44-0.081,0.639c-0.035,0.338-0.079,0.679-0.133,1.021
		c-1.231,0.537-2.52,1.508-2.918,1.819c-1.412,1.105-1.4,1.74-1.269,2.121c0.088,0.256,0.358,0.685,1.178,0.685
		c0.187,0,0.398-0.02,0.647-0.06c0.174-0.03,0.673-0.155,1.226-0.306c-0.006,0.015-0.012,0.031-0.018,0.047
		c-0.674,0.442-1.36,0.823-1.875,1.108c-0.371,0.208-0.765,0.391-1.206,0.562c-0.112,0.042-0.216,0.064-0.311,0.064
		c-0.409,0-0.728-0.469-0.852-0.902C28.606,56.367,28.909,55.37,29.21,54.496z"/>
</g>
</svg>
