<?xml version="1.0" encoding="utf-8"?>
<!-- Generator: Adobe Illustrator 16.0.0, SVG Export Plug-In . SVG Version: 6.00 Build 0)  -->
<!DOCTYPE svg PUBLIC "-//W3C//DTD SVG 1.1//EN" "http://www.w3.org/Graphics/SVG/1.1/DTD/svg11.dtd">
<svg version="1.1" id="Layer_1" xmlns="http://www.w3.org/2000/svg" xmlns:xlink="http://www.w3.org/1999/xlink" x="0px" y="0px"
	 width="58px" height="81px" viewBox="0 0 58 81" enable-background="new 0 0 58 81" xml:space="preserve">
<g>
	<path fill="#00A1DF" d="M45.744,36.258c4.121,0,7.475-3.354,7.475-7.475c0-4.123-3.354-7.477-7.475-7.477
		c-4.123,0-7.477,3.354-7.477,7.477C38.268,32.904,41.621,36.258,45.744,36.258z M45.744,21.809c3.844,0,6.973,3.129,6.973,6.975
		c0,3.844-3.129,6.973-6.973,6.973c-3.846,0-6.975-3.129-6.975-6.973C38.77,24.938,41.898,21.809,45.744,21.809z"/>
	<path fill="#00A1DF" d="M46.162,28.615h2.559h0.002c0.139,0,0.25-0.113,0.25-0.251c0-0.015,0-0.03-0.004-0.044
		c-0.105-3.07-1.252-5.631-2.732-6.098c-0.076-0.025-0.158-0.011-0.223,0.037c-0.064,0.047-0.104,0.121-0.104,0.202v5.902
		C45.91,28.502,46.021,28.615,46.162,28.615z M46.412,22.851c1.076,0.656,1.916,2.786,2.047,5.263h-2.047V22.851z"/>
	<path fill="#00A1DF" d="M46.014,35.306c0.043,0.031,0.096,0.048,0.148,0.048c0.025,0,0.051-0.004,0.074-0.012
		c1.486-0.468,2.635-3.048,2.734-6.133c0.002-0.069-0.023-0.135-0.07-0.184c-0.047-0.048-0.113-0.076-0.18-0.076h-2.559
		c-0.141,0-0.252,0.111-0.252,0.251v5.902C45.91,35.182,45.949,35.258,46.014,35.306z M46.412,29.451h2.047
		c-0.131,2.477-0.971,4.605-2.047,5.262V29.451z"/>
	<path fill="#00A1DF" d="M42.586,28.539c0.047,0.049,0.113,0.076,0.18,0.076h2.559c0.139,0,0.25-0.113,0.25-0.251v-5.902
		c0-0.081-0.037-0.155-0.1-0.202c-0.066-0.048-0.148-0.062-0.225-0.037c-1.486,0.469-2.637,3.048-2.734,6.133
		C42.512,28.424,42.537,28.49,42.586,28.539z M45.074,22.851v5.263h-2.047C43.158,25.637,43.996,23.507,45.074,22.851z"/>
	<path fill="#00A1DF" d="M45.324,28.949h-2.559c-0.066,0-0.133,0.028-0.18,0.076c-0.049,0.049-0.074,0.114-0.07,0.184
		c0.098,3.085,1.248,5.665,2.734,6.133c0.025,0.008,0.049,0.012,0.074,0.012c0.055,0,0.105-0.017,0.15-0.048
		c0.062-0.048,0.1-0.124,0.1-0.203V29.2C45.574,29.061,45.463,28.949,45.324,28.949z M45.074,34.713
		c-1.078-0.656-1.916-2.785-2.047-5.262h2.047V34.713z"/>
	<path fill="#00A1DF" d="M52.115,28.949h-2.557c-0.137,0-0.248,0.107-0.252,0.244c-0.064,2.25-0.654,4.236-1.619,5.449
		c-0.068,0.089-0.072,0.212-0.008,0.304c0.049,0.067,0.127,0.104,0.205,0.104c0.027,0,0.057-0.006,0.084-0.014
		c2.5-0.894,4.225-3.178,4.396-5.82c0.004-0.068-0.02-0.138-0.066-0.188C52.25,28.978,52.184,28.949,52.115,28.949z M48.57,34.228
		c0.707-1.234,1.145-2.917,1.23-4.776h2.039C51.619,31.501,50.381,33.287,48.57,34.228z"/>
	<path fill="#00A1DF" d="M49.307,28.371c0.004,0.136,0.115,0.244,0.252,0.244h2.557h0.002c0.139,0,0.252-0.113,0.252-0.251
		c0-0.019-0.002-0.036-0.006-0.053c-0.186-2.628-1.906-4.896-4.395-5.782c-0.105-0.038-0.223-0.002-0.289,0.09
		c-0.064,0.091-0.061,0.215,0.008,0.302C48.652,24.134,49.242,26.12,49.307,28.371z M51.84,28.113h-2.039
		c-0.086-1.858-0.523-3.541-1.23-4.775C50.381,24.277,51.619,26.064,51.84,28.113z"/>
	<path fill="#00A1DF" d="M39.371,28.615h2.557c0.137,0,0.248-0.108,0.252-0.244c0.064-2.251,0.654-4.237,1.617-5.45
		c0.07-0.087,0.074-0.211,0.01-0.302c-0.066-0.092-0.186-0.128-0.291-0.09c-2.498,0.892-4.225,3.176-4.396,5.819
		c-0.004,0.068,0.021,0.136,0.068,0.188C39.234,28.587,39.301,28.615,39.371,28.615z M42.914,23.338
		c-0.705,1.234-1.143,2.916-1.227,4.775h-2.043C39.867,26.064,41.104,24.277,42.914,23.338z"/>
	<path fill="#00A1DF" d="M43.516,35.037c0.029,0.008,0.059,0.014,0.086,0.014c0.002,0,0.002,0,0.004,0
		c0.139-0.001,0.25-0.113,0.25-0.252c0-0.07-0.029-0.133-0.074-0.18c-0.955-1.215-1.537-3.189-1.602-5.426
		c-0.004-0.137-0.115-0.244-0.252-0.244h-2.557c-0.07,0-0.137,0.028-0.184,0.08c-0.047,0.05-0.072,0.119-0.068,0.188
		C39.291,31.859,41.018,34.144,43.516,35.037z M41.688,29.451c0.084,1.859,0.52,3.542,1.227,4.776
		c-1.811-0.94-3.047-2.727-3.27-4.776H41.688z"/>
	<path fill="#00A1DF" d="M57.248,0.25H0.5C0.223,0.25,0,0.475,0,0.751v78.998c0,0.276,0.223,0.501,0.5,0.501h56.748
		c0.277,0,0.502-0.225,0.502-0.501V0.751C57.75,0.475,57.525,0.25,57.248,0.25z M56.75,1.25V42.5H1V1.25H56.75z M1,79.25V43.5h55.75
		v35.75H1z"/>
	<path fill="#00A1DF" d="M6.5,28.25c0.275,0,0.5-0.225,0.5-0.5v-20c0-0.275-0.225-0.5-0.5-0.5S6,7.475,6,7.75v20
		C6,28.025,6.225,28.25,6.5,28.25z"/>
	<path fill="#00A1DF" d="M6.5,35.25c0.275,0,0.5-0.224,0.5-0.5V31.5C7,31.225,6.775,31,6.5,31S6,31.225,6,31.5v3.25
		C6,35.026,6.225,35.25,6.5,35.25z"/>
	<path fill="#00A1DF" d="M10,35.25c0.275,0,0.5-0.224,0.5-0.5v-27c0-0.275-0.225-0.5-0.5-0.5c-0.277,0-0.5,0.225-0.5,0.5v27
		C9.5,35.026,9.723,35.25,10,35.25z"/>
	<path fill="#00A1DF" d="M13.5,35.25c0.275,0,0.5-0.224,0.5-0.5v-27c0-0.275-0.225-0.5-0.5-0.5c-0.277,0-0.5,0.225-0.5,0.5v27
		C13,35.026,13.223,35.25,13.5,35.25z"/>
	<path fill="#00A1DF" d="M17,35.25c0.275,0,0.5-0.224,0.5-0.5v-27c0-0.275-0.225-0.5-0.5-0.5c-0.277,0-0.5,0.225-0.5,0.5v27
		C16.5,35.026,16.723,35.25,17,35.25z"/>
	<path fill="#00A1DF" d="M20.5,35.25c0.275,0,0.5-0.224,0.5-0.5v-27c0-0.275-0.225-0.5-0.5-0.5c-0.277,0-0.5,0.225-0.5,0.5v27
		C20,35.026,20.223,35.25,20.5,35.25z"/>
	<path fill="#00A1DF" d="M24,35.25c0.275,0,0.5-0.224,0.5-0.5v-27c0-0.275-0.225-0.5-0.5-0.5c-0.277,0-0.5,0.225-0.5,0.5v27
		C23.5,35.026,23.723,35.25,24,35.25z"/>
	<path fill="#00A1DF" d="M25.25,50.5H53.5c0.275,0,0.5-0.225,0.5-0.5s-0.225-0.5-0.5-0.5H25.25c-0.277,0-0.5,0.225-0.5,0.5
		S24.973,50.5,25.25,50.5z"/>
	<path fill="#00A1DF" d="M25.25,54.5h12.248c0.277,0,0.502-0.225,0.502-0.501c0-0.274-0.225-0.499-0.502-0.499H25.25
		c-0.277,0-0.5,0.225-0.5,0.499C24.75,54.275,24.973,54.5,25.25,54.5z"/>
	<path fill="#00A1DF" d="M25.25,60.25h12.248c0.277,0,0.502-0.225,0.502-0.499c0-0.276-0.225-0.501-0.502-0.501H25.25
		c-0.277,0-0.5,0.225-0.5,0.501C24.75,60.025,24.973,60.25,25.25,60.25z"/>
	<path fill="#00A1DF" d="M25.25,64h20c0.275,0,0.5-0.225,0.5-0.501c0-0.274-0.225-0.499-0.5-0.499h-20c-0.277,0-0.5,0.225-0.5,0.499
		C24.75,63.775,24.973,64,25.25,64z"/>
	<path fill="#00A1DF" d="M54,74H2.75c-0.277,0-0.5,0.224-0.5,0.5c0,0.275,0.223,0.5,0.5,0.5H54c0.275,0,0.498-0.225,0.498-0.5
		C54.498,74.224,54.275,74,54,74z"/>
	<path fill="#00A1DF" d="M13.111,57.158c3.057,0,5.545-2.49,5.545-5.55c0-3.059-2.488-5.548-5.545-5.548
		c-3.059,0-5.547,2.489-5.547,5.548C7.564,54.668,10.053,57.158,13.111,57.158z M13.111,47.061c2.508,0,4.545,2.041,4.545,4.548
		c0,2.509-2.037,4.55-4.545,4.55s-4.545-2.041-4.545-4.55C8.566,49.102,10.604,47.061,13.111,47.061z"/>
	<path fill="#00A1DF" d="M8.547,66.003L8.547,66.003c0.627,0,1.305-0.023,2.021-0.048c0.816-0.027,1.658-0.056,2.543-0.056
		s1.727,0.028,2.543,0.056c0.717,0.024,1.395,0.048,2.02,0.048c1.518,0,4.342,0,4.342-2.595c0-3.061-3.994-5.549-8.904-5.549
		s-8.904,2.488-8.904,5.549C4.207,66.003,7.031,66.003,8.547,66.003z M13.111,58.859c4.285,0,7.904,2.083,7.904,4.549
		c0,1.035-0.533,1.595-3.342,1.595c-0.607,0-1.277-0.023-1.984-0.047c-0.826-0.028-1.678-0.057-2.578-0.057
		s-1.754,0.028-2.576,0.057c-0.709,0.023-1.379,0.047-1.988,0.047l0,0c-2.809,0-3.34-0.56-3.34-1.595
		C5.207,60.942,8.826,58.859,13.111,58.859z"/>
</g>
</svg>
