<?xml version="1.0" encoding="utf-8"?>
<!-- Generator: Adobe Illustrator 16.0.0, SVG Export Plug-In . SVG Version: 6.00 Build 0)  -->
<!DOCTYPE svg PUBLIC "-//W3C//DTD SVG 1.1//EN" "http://www.w3.org/Graphics/SVG/1.1/DTD/svg11.dtd">
<svg version="1.1" id="Layer_1" xmlns="http://www.w3.org/2000/svg" xmlns:xlink="http://www.w3.org/1999/xlink" x="0px" y="0px"
	 width="107px" height="66px" viewBox="0 0 107 66" enable-background="new 0 0 107 66" xml:space="preserve">
<g>
	<path fill="#DFE8F1" d="M106.3,0.5H0.787c-0.41,0-0.744,0.332-0.744,0.742v63.514c0,0.412,0.334,0.744,0.744,0.744H106.3
		c0.41,0,0.742-0.332,0.742-0.744V1.242C107.042,0.832,106.71,0.5,106.3,0.5z M105.042,63.5h-103v-61h103V63.5z"/>
	<path fill="#DFE8F1" d="M6.787,18.5c-0.41,0-0.744,0.332-0.744,0.742v20.514c0,0.412,0.334,0.744,0.744,0.744H83.3
		c0.41,0,0.742-0.332,0.742-0.744V19.242c0-0.41-0.332-0.742-0.742-0.742H6.787z M83.042,39.5h-76v-20h76V39.5z"/>
	<path fill="#DFE8F1" d="M6.558,12.5h93.229c0.41,0,0.742-0.59,0.742-1s-0.332-1-0.742-1H6.558c-0.41,0-0.744,0.59-0.744,1
		S6.148,12.5,6.558,12.5z"/>
	<path fill="#DFE8F1" d="M6.558,48.5h93.229c0.41,0,0.742-0.09,0.742-0.5s-0.332-0.5-0.742-0.5H6.558c-0.41,0-0.744,0.09-0.744,0.5
		S6.148,48.5,6.558,48.5z"/>
	<path fill="#DFE8F1" d="M6.558,55.5h93.229c0.41,0,0.742-0.09,0.742-0.5s-0.332-0.5-0.742-0.5H6.558c-0.41,0-0.744,0.09-0.744,0.5
		S6.148,55.5,6.558,55.5z"/>
	<path fill="#DFE8F1" d="M65.607,26.154c0.107,0.023,0.205,0.021,0.506-0.209c0.135-0.104,0.332-0.277,0.514-0.518l0.08-0.107
		c0.684-0.908,2.283-3.037,4.594-2.92c1.906,0.139,3.258,1.578,3.908,4.164c0.021,0.086,0.035,0.139,0.051,0.182
		c0.098,0.422,0.266,0.949,0.506,1.121c0.059,0.045,0.129,0.066,0.195,0.066c0.105,0,0.209-0.049,0.273-0.141
		c0.105-0.145,0.078-0.346-0.061-0.459c-0.066-0.086-0.189-0.445-0.266-0.768c-0.004-0.018-0.01-0.037-0.018-0.055
		c-0.006-0.023-0.018-0.07-0.029-0.113c-0.102-0.41-0.377-1.498-1.041-2.521c-0.855-1.32-2.025-2.047-3.475-2.148
		c-0.002,0-0.004,0-0.006,0c-2.67-0.137-4.422,2.193-5.17,3.188l-0.08,0.105c-0.205,0.271-0.445,0.439-0.529,0.488
		c-0.029,0.012-0.057,0.027-0.082,0.045c-0.104,0.08-0.154,0.215-0.127,0.344C65.38,26.025,65.48,26.125,65.607,26.154z"/>
	<path fill="#DFE8F1" d="M65.757,29.611c1.111-0.303,2.139-0.918,2.182-0.947c1.449-0.887,2.766-2.283,2.775-2.297
		c0.543-0.621,1.346-1.217,1.973-1.027c0.367,0.115,0.623,0.314,0.76,0.598c0.162,0.34,0.148,0.797-0.035,1.258
		c-0.342,0.855-1.41,1.891-3.006,2.914c-0.801,0.512-2.816,1.77-4.238,2.379c-0.172,0.072-0.25,0.27-0.178,0.441
		c0.055,0.127,0.18,0.203,0.311,0.203c0.043,0,0.088-0.01,0.133-0.027c1.467-0.627,3.521-1.908,4.336-2.43
		c1.211-0.777,2.762-1.969,3.268-3.23c0.254-0.635,0.26-1.289,0.018-1.797c-0.217-0.455-0.623-0.783-1.17-0.951
		c-0.805-0.246-1.781,0.201-2.674,1.225c-0.012,0.012-1.285,1.35-2.621,2.168c-0.008,0.008-0.986,0.594-2.008,0.871
		c-0.18,0.049-0.285,0.234-0.236,0.412C65.394,29.553,65.578,29.66,65.757,29.611z"/>
	<path fill="#DFE8F1" d="M68.617,24.934c-0.152,0.168-0.289,0.348-0.438,0.521c-0.193,0.227-0.404,0.436-0.625,0.635
		c-0.227,0.207-0.41,0.352-0.678,0.506c-0.283,0.164-0.574,0.328-0.867,0.471c-0.102,0.049-0.188,0.082-0.303,0.115
		c-0.176,0.053-0.285,0.232-0.234,0.414c0.047,0.174,0.238,0.289,0.414,0.234c0.344-0.102,0.656-0.279,0.967-0.457
		c0.262-0.148,0.521-0.283,0.764-0.467c0.471-0.357,0.873-0.773,1.246-1.23c0.15-0.186,0.312-0.361,0.48-0.529
		c0.092-0.094,0.186-0.182,0.283-0.271c0.051-0.045,0.102-0.088,0.154-0.131c0.025-0.021,0.053-0.045,0.08-0.066
		c0.006-0.006,0.059-0.045,0.072-0.057c0.234-0.182,0.484-0.34,0.746-0.475c0.248-0.129,0.496-0.215,0.799-0.279
		c0.1-0.02,0.123-0.023,0.197-0.031c0.182-0.018,0.336-0.139,0.336-0.336c0-0.17-0.152-0.355-0.336-0.338
		C70.458,23.289,69.419,24.051,68.617,24.934z"/>
	<path fill="#DFE8F1" d="M72.585,26.777c0.107-0.152,0.072-0.361-0.08-0.471c-0.15-0.105-0.361-0.072-0.469,0.08
		c-1.982,2.777-5.561,4.113-6.258,4.354c-0.016,0.006-0.023,0.008-0.027,0.01c-0.174,0.066-0.26,0.26-0.195,0.434
		c0.051,0.135,0.18,0.217,0.314,0.217c0.039,0,0.078-0.006,0.115-0.02l0.012-0.006C66.728,31.125,70.482,29.725,72.585,26.777z"/>
	<path fill="#DFE8F1" d="M75.156,33.381c-0.467-0.156-1.039-0.562-1.59-0.955c-0.799-0.57-1.49-1.061-2.051-0.965
		c-0.424,0.072-1.162,0.545-2.328,1.312c-0.84,0.555-1.791,1.182-2.205,1.293c-0.18,0.049-0.287,0.234-0.238,0.412
		c0.041,0.152,0.176,0.25,0.324,0.25c0.029,0,0.059-0.004,0.088-0.012c0.52-0.141,1.434-0.744,2.402-1.383
		c0.783-0.516,1.756-1.156,2.07-1.211c0.285-0.049,0.984,0.449,1.547,0.85c0.592,0.422,1.205,0.857,1.768,1.045
		c0.176,0.061,0.367-0.035,0.424-0.213C75.425,33.629,75.332,33.438,75.156,33.381z"/>
	<path fill="#DFE8F1" d="M74.312,35.027c-0.271-0.096-0.713-0.369-1.139-0.631c-0.9-0.559-1.473-0.896-1.883-0.826
		c-0.416,0.072-1.291,0.666-2.758,1.738c-0.18,0.131-0.334,0.242-0.443,0.318c-0.15,0.109-0.188,0.318-0.08,0.471
		c0.066,0.092,0.17,0.143,0.275,0.143c0.068,0,0.135-0.021,0.193-0.061c0.113-0.082,0.27-0.195,0.451-0.328
		c0.584-0.428,2.135-1.559,2.471-1.617c0.211-0.014,0.967,0.453,1.42,0.732c0.477,0.295,0.928,0.572,1.264,0.695
		c0.176,0.062,0.367-0.027,0.432-0.203C74.578,35.283,74.488,35.092,74.312,35.027z"/>
	<path fill="#DFE8F1" d="M72.644,36.334c-0.551-0.395-1.027-0.734-1.551-0.645c-0.588,0.104-1.527,1.045-1.709,1.232
		c-0.129,0.135-0.125,0.348,0.008,0.477c0.066,0.062,0.15,0.096,0.234,0.096c0.088,0,0.176-0.035,0.242-0.104
		c0.449-0.465,1.09-0.992,1.338-1.037c0.246-0.043,0.619,0.223,1.047,0.529c0.166,0.117,0.354,0.252,0.555,0.383
		c0.156,0.102,0.365,0.057,0.467-0.1c0.1-0.154,0.057-0.363-0.098-0.465C72.988,36.578,72.812,36.455,72.644,36.334z"/>
	<path fill="#DFE8F1" d="M76.136,29.754c-0.279-0.117-0.572-0.242-0.811-0.438c-0.258-0.217-0.379-0.5-0.434-0.83
		c-0.07-0.426-0.719-0.244-0.648,0.18c0.143,0.873,0.785,1.346,1.553,1.67c0.17,0.07,0.359,0.053,0.461-0.119
		C76.341,30.072,76.306,29.826,76.136,29.754z"/>
	<path fill="#DFE8F1" d="M75.484,31.51c-0.252-0.076-0.445-0.176-0.711-0.334c-0.49-0.289-0.938-0.707-1.154-1.244
		c-0.068-0.168-0.223-0.287-0.414-0.234c-0.162,0.043-0.305,0.242-0.236,0.414c0.402,0.988,1.322,1.736,2.336,2.049
		C75.72,32.289,75.898,31.639,75.484,31.51z"/>
	<path fill="#DFE8F1" d="M23.609,34.201c0.348,0.176,0.725,0.266,1.117,0.266c0.832,0,1.574-0.387,2.23-0.732
		c-0.121,0.201-0.246,0.4-0.377,0.6c-1.039,1.568-1.879,2.125-2.281,2.125c-0.457,0-0.83,0.371-0.83,0.828s0.373,0.828,0.83,0.828
		c1.354,0,2.438-1.309,3.084-2.088l0.074-0.09c0.893-1.072,1.502-2.299,2.02-3.502c0.072,0.385,0.389,0.676,0.795,0.676
		c0.008,0,0.021,0,0.029-0.002c0.873-0.029,1.73-0.162,2.557-0.293c0.436-0.066,0.883-0.137,1.318-0.189
		c1.469-0.176,2.945-0.307,4.453-0.436c2.781-0.236,5.746-0.469,8.754-0.48c0.457,0,0.83-0.373,0.83-0.828
		c0-0.457-0.373-0.828-0.834-0.828c-0.945,0.004-1.887,0.035-2.828,0.076c-0.154-0.154-0.359-0.256-0.59-0.256
		c-0.111,0-0.221,0.023-0.318,0.064c-0.26,0.104-0.836,0.07-1.361,0.014c-0.174-0.018-0.342-0.037-0.496-0.047l-0.041-0.002
		c-0.996-0.066-2.027-0.137-3.012-0.277c-0.227-0.029-0.459-0.1-0.705-0.172c-0.352-0.105-0.75-0.225-1.191-0.248
		c-0.475-0.023-0.941,0.148-1.344,0.299c-0.141,0.053-0.277,0.105-0.404,0.139l-0.062,0.02c-0.049,0.014-0.141,0.041-0.244,0.066
		c-0.094-0.344-0.289-0.531-0.678-0.662c-0.172-0.057-0.367-0.084-0.615-0.084c-0.152,0-0.316,0.01-0.473,0.021
		c-0.109,0.008-0.215,0.016-0.305,0.016l-0.039-0.002c-0.059-0.002-0.156-0.004-0.279-0.006c0.24-0.564,0.281-1.09,0.121-1.551
		c-0.219-0.629-0.711-1.012-1.369-1.08c0.191-1.127,0.365-2.43,0.139-3.566c-0.264-1.324-1.178-1.467-1.557-1.467
		c-0.334,0-1.348,0-3.543,2.234c-1.662,1.693-3.689,4.375-3.902,7.537C22.226,31.928,22.433,33.609,23.609,34.201z M28.863,29.18
		c-0.203,0.078-0.439,0.137-0.678,0.188c0.01-0.006,0.02-0.014,0.029-0.02l0.17-0.119c0.184-0.127,0.375-0.246,0.561-0.355
		C28.919,28.977,28.89,29.078,28.863,29.18z M31.322,30.566c0.004,0,0.008,0,0.014,0c0.201,0.012,0.404,0.033,0.607,0.055
		c0.379,0.043,0.777,0.086,1.182,0.074c0.037,0.121,0.107,0.26,0.232,0.389c-0.182,0.027-0.369,0.049-0.549,0.076
		c-0.859,0.133-1.67,0.256-2.48,0.289c0.219-0.184,0.439-0.354,0.654-0.551C31.095,30.797,31.21,30.684,31.322,30.566z
		 M30.83,28.113c0.014,0,0.027-0.002,0.041-0.004c-0.002,0.023-0.006,0.047-0.012,0.074c-0.025,0.15-0.074,0.305-0.145,0.463
		C30.753,28.471,30.792,28.293,30.83,28.113z M24.378,29.246c0.543-1.572,1.621-3.131,3.395-4.906
		c0.912-0.91,1.578-1.281,1.855-1.326c0.002,0.004,0.004,0.01,0.006,0.018c0.186,0.518,0.068,1.377-0.027,2.066
		c-0.031,0.225-0.061,0.439-0.08,0.639c-0.035,0.338-0.08,0.678-0.133,1.021c-1.232,0.537-2.52,1.508-2.918,1.818
		c-1.412,1.105-1.4,1.74-1.27,2.121c0.088,0.256,0.359,0.686,1.178,0.686c0.188,0,0.398-0.02,0.648-0.061
		c0.174-0.029,0.672-0.154,1.225-0.305c-0.006,0.014-0.012,0.031-0.018,0.047c-0.674,0.441-1.361,0.822-1.875,1.107
		c-0.371,0.209-0.766,0.391-1.207,0.562c-0.111,0.041-0.217,0.064-0.311,0.064c-0.41,0-0.729-0.469-0.852-0.902
		C23.775,31.117,24.078,30.119,24.378,29.246z"/>
</g>
</svg>
