<?xml version="1.0" encoding="utf-8"?>
<!-- Generator: Adobe Illustrator 16.0.0, SVG Export Plug-In . SVG Version: 6.00 Build 0)  -->
<!DOCTYPE svg PUBLIC "-//W3C//DTD SVG 1.1//EN" "http://www.w3.org/Graphics/SVG/1.1/DTD/svg11.dtd">
<svg version="1.1" id="Layer_1" xmlns="http://www.w3.org/2000/svg" xmlns:xlink="http://www.w3.org/1999/xlink" x="0px" y="0px"
	 width="78px" height="66px" viewBox="0 0 78 66" enable-background="new 0 0 78 66" xml:space="preserve">
<g>
	<path fill="#00A1DF" d="M30.15,36.376c9.924,0,17.998-8.076,17.998-18.004S40.074,0.368,30.15,0.368
		c-9.922,0-17.996,8.076-17.996,18.004S20.229,36.376,30.15,36.376z M30.15,1.661c9.211,0,16.703,7.496,16.703,16.711
		S39.361,35.083,30.15,35.083c-9.209,0-16.701-7.496-16.701-16.711S20.941,1.661,30.15,1.661z"/>
	<path fill="#00A1DF" d="M77.246,35.462h-7.455c-0.26-3.729-3.467-6.688-7.258-6.688c-3.795,0-7,2.959-7.26,6.688H45.232
		c-0.359,0-0.646,0.291-0.646,0.646v5.707c-4.271-1.465-9.197-2.303-14.436-2.303c-16.289,0-29.543,8.076-29.543,18.006
		c0,7.242,7.152,7.85,13.854,7.85h0.002c2.133,0,4.453-0.08,6.91-0.164c2.812-0.096,5.723-0.195,8.777-0.195
		c3.057,0,5.967,0.1,8.779,0.195c2.457,0.084,4.777,0.164,6.91,0.164c6.701,0,13.854-0.607,13.854-7.85
		c0-0.459-0.031-0.91-0.088-1.359h17.641c0.357,0,0.648-0.291,0.648-0.646V36.108C77.895,35.753,77.604,35.462,77.246,35.462z
		 M62.492,30.39c2.791,0,5.105,2.066,5.498,4.75H56.994C57.387,32.456,59.703,30.39,62.492,30.39z M58.4,57.519
		c0,5.482-4.605,6.555-12.561,6.555c-2.109,0-4.42-0.078-6.867-0.162c-2.822-0.096-5.744-0.195-8.822-0.195
		c-3.08,0-5.998,0.1-8.82,0.195c-2.447,0.084-4.756,0.162-6.867,0.162h-0.002c-7.953,0-12.559-1.072-12.559-6.555
		c0-9.217,12.672-16.713,28.248-16.713c5.271,0,10.207,0.861,14.436,2.354v12.354c0,0.355,0.287,0.646,0.646,0.646h13.07
		C58.365,56.606,58.4,57.06,58.4,57.519z M76.6,54.864H45.879V36.757h9.379h14.551H76.6V54.864z"/>
	<path fill="#00A1DF" d="M59.461,40.313c0,0.357,0.289,0.646,0.645,0.646h12.291c0.357,0,0.645-0.289,0.645-0.646
		s-0.287-0.646-0.645-0.646H60.105C59.75,39.667,59.461,39.956,59.461,40.313z"/>
	<path fill="#00A1DF" d="M60.105,49.69h12.291c0.357,0,0.645-0.289,0.645-0.646c0-0.355-0.287-0.645-0.645-0.645H60.105
		c-0.355,0-0.645,0.289-0.645,0.645C59.461,49.401,59.75,49.69,60.105,49.69z"/>
	<path fill="#00A1DF" d="M60.105,46.78h8.734c0.355,0,0.646-0.289,0.646-0.646s-0.291-0.646-0.646-0.646h-8.734
		c-0.355,0-0.645,0.289-0.645,0.646S59.75,46.78,60.105,46.78z"/>
	<path fill="#00A1DF" d="M60.105,45.165h5.176c0.355,0,0.646-0.291,0.646-0.646c0-0.357-0.291-0.648-0.646-0.648h-5.176
		c-0.355,0-0.645,0.291-0.645,0.648C59.461,44.874,59.75,45.165,60.105,45.165z"/>
	<path fill="#00A1DF" d="M60.105,42.577h5.176c0.355,0,0.646-0.291,0.646-0.646c0-0.357-0.291-0.648-0.646-0.648h-5.176
		c-0.355,0-0.645,0.291-0.645,0.648C59.461,42.286,59.75,42.577,60.105,42.577z"/>
	<path fill="#00A1DF" d="M63.34,50.339h-3.234c-0.355,0-0.645,0.289-0.645,0.646s0.289,0.646,0.645,0.646h3.234
		c0.359,0,0.646-0.289,0.646-0.646S63.699,50.339,63.34,50.339z"/>
	<path fill="#00A1DF" d="M69.486,50.339h-4.205c-0.357,0-0.646,0.289-0.646,0.646s0.289,0.646,0.646,0.646h4.205
		c0.357,0,0.646-0.289,0.646-0.646S69.844,50.339,69.486,50.339z"/>
	<path fill="#00A1DF" d="M71.104,50.985c0,0.357,0.287,0.646,0.646,0.646h3.555c0.359,0,0.648-0.289,0.648-0.646
		s-0.289-0.646-0.648-0.646H71.75C71.391,50.339,71.104,50.628,71.104,50.985z"/>
	<path fill="#00A1DF" d="M52.281,45.778c2.096,0,3.801-1.707,3.801-3.803s-1.705-3.803-3.801-3.803s-3.801,1.707-3.801,3.803
		S50.186,45.778,52.281,45.778z M52.281,39.468c1.383,0,2.506,1.125,2.506,2.508s-1.123,2.508-2.506,2.508s-2.508-1.125-2.508-2.508
		S50.898,39.468,52.281,39.468z"/>
	<path fill="#00A1DF" d="M53.631,46.429h-2.676c-2.049,0-3.717,1.668-3.717,3.717v1.463c0,0.357,0.291,0.646,0.648,0.646
		c0.355,0,0.646-0.289,0.646-0.646v-1.463c0-1.336,1.086-2.424,2.422-2.424h2.676c1.336,0,2.422,1.088,2.422,2.424v1.463
		c0,0.357,0.289,0.646,0.646,0.646s0.646-0.289,0.646-0.646v-1.463C57.346,48.097,55.68,46.429,53.631,46.429z"/>
</g>
</svg>
