<?xml version="1.0" encoding="utf-8"?>
<!-- Generator: Adobe Illustrator 16.0.0, SVG Export Plug-In . SVG Version: 6.00 Build 0)  -->
<!DOCTYPE svg PUBLIC "-//W3C//DTD SVG 1.1//EN" "http://www.w3.org/Graphics/SVG/1.1/DTD/svg11.dtd">
<svg version="1.1" id="Layer_1" xmlns="http://www.w3.org/2000/svg" xmlns:xlink="http://www.w3.org/1999/xlink" x="0px" y="0px"
	 width="54px" height="36px" viewBox="0 0 54 36" enable-background="new 0 0 54 36" xml:space="preserve">
<path fill="#888888" d="M52.563,9.651c-0.025-0.312-0.203-0.556-0.475-0.652L29.378,0.626c-0.263-0.094-0.454-0.135-0.64-0.135
	c-0.185,0-0.371,0.039-0.651,0.137L5.667,9.46C5.366,9.58,5.175,9.885,5.181,10.239c0.007,0.348,0.2,0.641,0.492,0.745l8.166,2.94
	v7.038c0,0.63,0.663,1.101,1.256,1.101c4.202,0,8.063,1.958,10.619,3.255c1.349,0.684,2.323,1.179,2.911,1.179
	c0.698,0,1.479-0.483,2.558-1.152c2.109-1.307,5.297-3.281,10.714-3.281c0.89,0,0.89-0.771,0.89-1.101v-6.924l0.529-0.2v8.752
	c-0.435,0.243-0.729,0.757-0.729,1.299c0,0.371,0.09,0.676,0.268,0.907c-0.199,0.407-0.332,0.85-0.332,1.11v7.997
	c0,0.558,0.457,1.588,1.108,1.588h0.888c0.648,0,1.044-1.028,1.044-1.588v-7.997c0-0.245-0.153-0.641-0.388-1.157
	c0.155-0.221,0.231-0.504,0.231-0.86c0-0.568-0.278-1.017-0.769-1.252v-9.298l7.453-2.816l0.025-0.012
	C52.417,10.344,52.593,10.007,52.563,9.651z M42.39,20.962c0,0.539-0.115,0.703-0.493,0.703c-5.53,0-8.775,2.012-10.923,3.342
	c-0.984,0.61-1.763,1.093-2.349,1.093c-0.493,0-1.481-0.502-2.731-1.136c-2.59-1.313-6.502-3.299-10.799-3.299
	c-0.39,0-0.859-0.313-0.859-0.703v-6.895l13.838,4.983c0.261,0.107,0.487,0.157,0.712,0.157c0.222,0,0.447-0.048,0.729-0.155
	l12.875-4.865V20.962z M44.369,22.955c0.529,0.198,0.641,0.618,0.641,0.935s-0.067,0.539-0.214,0.699l-0.088,0.097l0.055,0.119
	c0.11,0.239,0.403,0.873,0.403,1.103v7.997c0,0.438-0.319,1.191-0.647,1.191h-0.888c-0.314,0-0.712-0.739-0.712-1.191v-7.997
	c0-0.191,0.13-0.635,0.348-1.048l0.068-0.129l-0.104-0.104c-0.167-0.167-0.248-0.408-0.248-0.737c0-0.485,0.306-0.866,0.606-0.992
	l0.122-0.051v-9.157l0.529-0.2v9.417L44.369,22.955z M51.937,10.158l-22.562,8.524c-0.235,0.09-0.417,0.13-0.589,0.13
	c-0.171,0-0.35-0.041-0.569-0.131l-22.408-8.07c-0.166-0.06-0.228-0.241-0.23-0.379C5.575,10.083,5.636,9.9,5.813,9.829L28.225,1
	c0.231-0.08,0.375-0.111,0.514-0.111c0.14,0,0.286,0.032,0.505,0.11l22.711,8.372c0.176,0.062,0.208,0.238,0.214,0.312
	C52.181,9.844,52.114,10.052,51.937,10.158z"/>
</svg>
