<?xml version="1.0" encoding="utf-8"?>
<!-- Generator: Adobe Illustrator 16.0.0, SVG Export Plug-In . SVG Version: 6.00 Build 0)  -->
<!DOCTYPE svg PUBLIC "-//W3C//DTD SVG 1.1//EN" "http://www.w3.org/Graphics/SVG/1.1/DTD/svg11.dtd">
<svg version="1.1" id="Layer_1" xmlns="http://www.w3.org/2000/svg" xmlns:xlink="http://www.w3.org/1999/xlink" x="0px" y="0px"
	 width="54px" height="36px" viewBox="0 0 54 36" enable-background="new 0 0 54 36" xml:space="preserve">
<g>
	<path fill="#00A1DF" d="M43.521,13.113L27.576,0.536c-0.062-0.048-0.152-0.048-0.213,0.001l-4.888,3.969V1.895
		c0-0.11-0.08-0.171-0.189-0.171h-6.648c-0.111,0-0.21,0.061-0.21,0.171v2.659c0,0.109,0.099,0.229,0.21,0.229h0.854V9.37
		l-4.797,3.903c-0.041,0.033-0.061,0.082-0.06,0.133s0.022,0.1,0.063,0.13l2.134,1.603v2.94h-0.456
		c-0.109,0-0.209,0.062-0.209,0.172v0.798c0,0.109,0.1,0.228,0.209,0.228h0.456v14.229h-0.987c-0.11,0-0.209,0.06-0.209,0.17v1.196
		c0,0.111,0.099,0.229,0.209,0.229h2.583v0.17c0,0.11,0.099,0.229,0.21,0.229h8.908c0.111,0,0.19-0.118,0.19-0.229v-0.17h16.831
		c0.11,0,0.189-0.118,0.189-0.229v-1.196c0-0.11-0.079-0.17-0.189-0.17h-1.14V19.276h0.608c0.109,0,0.189-0.118,0.189-0.228v-0.798
		c0-0.11-0.08-0.172-0.189-0.172h-0.608v-2.623l0.023,0.015c0.03,0.023,0.069,0.035,0.105,0.035c0.034,0,0.07-0.011,0.099-0.031
		l2.86-2.097c0.042-0.03,0.067-0.079,0.067-0.131C43.585,13.195,43.562,13.146,43.521,13.113z M15.827,4.383V2.122h6.25v2.261
		h-0.855H16.7H15.827z M22.182,4.782L21.411,5.37V4.782H22.182z M21.036,5.713l-4.146,3.333V4.782h4.122v0.931H21.036z
		 M15.562,34.207v0.346h0.004c-0.018,0.006-0.031,0.014-0.045,0.023c-0.002,0.002-0.004,0.004-0.006,0.006
		c-0.012,0.01-0.022,0.021-0.033,0.032c-0.002,0.003-0.004,0.006-0.006,0.009c-0.01,0.014-0.019,0.044-0.025,0.061
		c0,0.002-0.001,0.019-0.001,0.019h-2.415v-0.798h1.008h2.051v0.133h-0.322C15.659,34.037,15.562,34.098,15.562,34.207z
		 M22.64,28.641c-0.406,0-0.734,0.332-0.734,0.738c0,0.407,0.326,0.738,0.734,0.738c0.271,0,0.501-0.148,0.634-0.369v3.758h-6.383
		V23h6.383v6.011C23.141,28.79,22.913,28.641,22.64,28.641z M23.05,29.379c0,0.224-0.182,0.406-0.404,0.406
		c-0.225,0-0.406-0.183-0.406-0.406c0-0.223,0.182-0.405,0.406-0.405C22.868,28.974,23.05,29.156,23.05,29.379z M23.483,33.904
		h0.057v0.133h-7.049v-0.133H16.7H23.483z M23.749,34.437h0.189v0.133H15.96v-0.133h0.342H23.749z M23.749,33.506h-0.076V22.771
		c0-0.109-0.08-0.17-0.189-0.17H16.7c-0.109,0-0.209,0.061-0.209,0.17v10.734h-0.189h-2.07V19.276h25.797v14.229H23.749z
		 M24.337,35.102h-8.51v-0.134h8.32h0.189V35.102z M41.358,33.904v0.798H24.735c-0.002,0-0.002-0.017-0.003-0.019
		c-0.007-0.017-0.015-0.039-0.024-0.053c-0.002-0.004-0.005-0.01-0.008-0.013c-0.01-0.013-0.021-0.024-0.033-0.034
		c-0.002-0.002-0.004-0.005-0.006-0.007c-0.015-0.01-0.031-0.019-0.047-0.023c-0.004-0.002-0.008,0.011-0.012,0.01
		c-0.018-0.005-0.037,0.006-0.057,0.006h-0.209v-0.362c0-0.109-0.079-0.17-0.189-0.17h-0.209v-0.133h16.299H41.358z M40.827,18.479
		v0.399H13.565v-0.399H40.827z M14.231,18.079v-2.641l0.051,0.034c0.061,0.046,0.146,0.045,0.205-0.002l12.98-10.273l12.561,9.943
		v2.938H14.231z M40.562,15.131L27.576,4.855c-0.03-0.023-0.067-0.036-0.103-0.036c-0.037,0-0.074,0.013-0.104,0.036L14.384,15.131
		l-2.311-1.733L27.475,0.879l15.669,12.36L40.562,15.131z"/>
	<path fill="#00A1DF" d="M22.675,23.267h-5.186c-0.11,0-0.199,0.089-0.199,0.198v4.655c0,0.11,0.089,0.199,0.199,0.199h5.186
		c0.11,0,0.199-0.089,0.199-0.199v-4.655C22.874,23.355,22.785,23.267,22.675,23.267z M22.476,27.92h-4.787v-4.255h4.787V27.92z"/>
	<path fill="#00A1DF" d="M38.243,28.585h-0.874v-7.276c0-0.109-0.079-0.17-0.19-0.17h-4.521h-4.921c-0.109,0-0.209,0.061-0.209,0.17
		v7.276h-0.721c-0.111,0-0.209,0.061-0.209,0.171v1.729c0,0.109,0.098,0.229,0.209,0.229h11.436c0.11,0,0.189-0.119,0.189-0.229
		v-1.729C38.433,28.646,38.354,28.585,38.243,28.585z M32.849,21.537h4.121v7.048h-4.121V21.537z M27.928,21.537h4.521v7.048h-4.521
		V21.537z M38.034,30.314H26.997v-1.33h0.74h4.921h4.521h0.855V30.314z"/>
	<path fill="#00A1DF" d="M27.263,7.931c-1.393,0-2.526,1.115-2.526,2.486v6.237c0,0.11,0.099,0.229,0.209,0.229H29.6
		c0.11,0,0.19-0.118,0.19-0.229v-3.523v-0.398v-2.315C29.79,9.046,28.655,7.931,27.263,7.931z M27.13,16.484h-1.994V13.16h1.994
		V16.484z M27.13,12.761h-1.994v-2.344c0-1.106,0.93-2.013,1.994-2.08V12.761z M29.391,16.484h-1.862V13.16h1.862V16.484z
		 M29.391,12.761h-1.862V8.348c1.064,0.129,1.862,1.007,1.862,2.069V12.761z"/>
</g>
</svg>
