<?xml version="1.0" encoding="utf-8"?>
<!-- Generator: Adobe Illustrator 16.0.0, SVG Export Plug-In . SVG Version: 6.00 Build 0)  -->
<!DOCTYPE svg PUBLIC "-//W3C//DTD SVG 1.1//EN" "http://www.w3.org/Graphics/SVG/1.1/DTD/svg11.dtd">
<svg version="1.1" id="Layer_1" xmlns="http://www.w3.org/2000/svg" xmlns:xlink="http://www.w3.org/1999/xlink" x="0px" y="0px"
	 width="54px" height="36px" viewBox="0 0 54 36" enable-background="new 0 0 54 36" xml:space="preserve">
<g>
	<path fill="#00A1DF" d="M14.636,26.556h17.276v-8.639H14.636V26.556z M15.082,18.364h16.383v7.745H15.082V18.364z"/>
	<path fill="#00A1DF" d="M42.96,15.535c0.697,0,1.164-0.756,1.164-1.432v-1.704l-5.369-7.737h-1.824h-0.508h-1.647h-0.484H33.55
		V4.027c0.299-0.038,0.596-0.319,0.596-0.663V1.129c0-0.369-0.336-0.638-0.705-0.638H20.781c-0.37,0-0.636,0.269-0.636,0.638v2.234
		c0,0.369,0.266,0.703,0.636,0.703h0.258v0.595h-0.463h-0.449h-1.663h-0.52h-1.825l-5.804,7.733v1.708
		c0,0.66,0.745,1.354,1.341,1.395v17.016h-0.394c-0.686,0-1.244,0.525-1.244,1.21v0.494c0,0.685,0.559,1.274,1.244,1.274h31.622
		c0.685,0,1.239-0.59,1.239-1.274v-0.494c0-0.685-0.555-1.21-1.239-1.21h-0.249V15.535H42.96z M36.665,5.109l4.034,7.416v1.578
		c0,0.44-0.339,0.984-0.778,0.984h-1.019c-0.42,0-0.884-0.53-0.884-0.984v-1.679l-3.058-7.315H36.665z M32.656,17.917v14.596H12.104
		V15.535h0.634c0.428,0,0.709-0.266,0.863-0.633c0.286,0.362,0.733,0.633,1.156,0.633h1.02c0.387,0,0.67-0.224,0.822-0.621
		c0.309,0.364,0.789,0.621,1.196,0.621h1.02c0.433,0,0.721-0.269,0.881-0.629c0.278,0.361,0.715,0.629,1.138,0.629h1.02
		c0.392,0,0.686-0.228,0.844-0.623c0.305,0.365,0.775,0.623,1.176,0.623h1.019c0.43,0,0.732-0.266,0.903-0.632
		c0.271,0.363,0.701,0.632,1.115,0.632h1.02c0.406,0,0.681-0.24,0.839-0.579c0.247,0.342,0.627,0.579,1.021,0.579h1.02
		c0.424,0,0.743-0.268,0.928-0.632c0.261,0.365,0.678,0.632,1.091,0.632h1.02c0.429,0,0.777-0.273,0.985-0.636
		c0.229,0.359,0.601,0.636,1.033,0.636h1.02c0.427,0,0.754-0.27,0.945-0.63c0.253,0.366,0.66,0.63,1.073,0.63h1.019
		c0.428,0,0.787-0.273,1.005-0.636c0.22,0.362,0.584,0.636,1.015,0.636h0.248v16.979h-1.341V17.917H32.656z M40.401,18.364v14.149
		h-7.298V18.364H40.401z M30.814,5.109h1.557l2.222,7.393v1.602c0,0.449-0.318,0.984-0.747,0.984h-1.02
		c-0.427,0-0.914-0.539-0.914-0.984v-1.634L30.814,5.109z M28.755,5.109h1.608l1.102,7.376v1.618c0,0.458-0.25,0.984-0.657,0.984
		h-1.02c-0.414,0-0.855-0.521-0.855-0.984v-1.64L28.755,5.109z M32.237,4.662h-1.489h-0.452h-1.552h-0.446h-1.689H26.16h-1.556
		h-0.482h-1.475h-0.474h-0.688V4.067h11.617v0.595h-0.399H32.237z M25.954,12.478l0.617-7.369h1.736l0.179,7.36v1.634
		c0,0.098-0.014,0.984-0.558,0.984h-1.02c-0.436,0-0.955-0.548-0.955-0.984V12.478z M25.511,12.466l-0.001,1.661
		c0,0.462-0.217,0.96-0.619,0.96h-1.019c-0.459,0-1.045-0.566-1.045-0.984v-1.609l1.677-7.385h1.62L25.511,12.466z M22.489,5.109
		h1.533l-1.635,7.328l-0.006,1.69c0,0.224-0.038,0.96-0.529,0.96h-1.02c-0.449,0-0.985-0.548-0.985-0.984v-1.596L22.489,5.109z
		 M34.478,5.109l3.094,7.404v1.59c0,0.46-0.275,0.984-0.688,0.984h-1.02c-0.443,0-0.824-0.556-0.824-0.984v-1.667l-2.202-7.327
		H34.478z M20.815,3.62c-0.123,0-0.223-0.101-0.223-0.224V1.163c0-0.124,0.1-0.224,0.223-0.224h12.66c0.123,0,0.224,0.1,0.224,0.224
		v2.233c0,0.123-0.101,0.224-0.224,0.224H20.815z M20.405,5.109h1.609l-2.613,7.321v1.673c0,0.329-0.121,0.984-0.587,0.984h-1.02
		c-0.471,0-1.075-0.566-1.075-0.984v-1.582L20.405,5.109z M18.197,5.109h1.663l-3.563,7.278l-0.023,0.029v0.001v1.686
		c0,0.355-0.062,0.984-0.497,0.984h-1.02c-0.455,0-1.016-0.557-1.016-0.984v-1.572L18.197,5.109z M10.763,14.103v-1.56l5.58-7.435
		h1.334l-4.383,7.298v1.696c0,0.098-0.013,0.984-0.557,0.984h-1.019C11.282,15.087,10.763,14.54,10.763,14.103z M42.885,32.96
		c0.438,0,0.793,0.324,0.793,0.763v0.494c0,0.438-0.354,0.828-0.793,0.828H11.263c-0.438,0-0.798-0.39-0.798-0.828v-0.494
		c0-0.438,0.359-0.763,0.798-0.763h21.396h8.191H42.885z M41.94,15.087c-0.438,0-0.795-0.553-0.795-0.984v-1.69l-3.973-7.304h1.348
		l5.157,7.43v1.564c0,0.45-0.294,0.984-0.718,0.984H41.94z"/>
</g>
</svg>
