<?xml version="1.0" encoding="utf-8"?>
<!-- Generator: Adobe Illustrator 16.0.0, SVG Export Plug-In . SVG Version: 6.00 Build 0)  -->
<!DOCTYPE svg PUBLIC "-//W3C//DTD SVG 1.1//EN" "http://www.w3.org/Graphics/SVG/1.1/DTD/svg11.dtd">
<svg version="1.1" id="Layer_1" xmlns="http://www.w3.org/2000/svg" xmlns:xlink="http://www.w3.org/1999/xlink" x="0px" y="0px"
	 width="54px" height="36px" viewBox="0 0 54 36" enable-background="new 0 0 54 36" xml:space="preserve">
<g>
	<path fill="#888888" d="M30.939,20.738c0-1.295-0.512-2.349-3.009-3.286c-1.778-0.711-3.126-1.367-3.126-2.85
		c0-1.142,0.876-2.292,2.833-2.292c1.041,0,1.858,0.224,2.453,0.449l0.146-0.496c-0.496-0.183-1.169-0.515-2.082-0.543l-0.628-0.023
		v-0.751v-0.363h-0.468v0.471v0.649l-0.521,0.113c-1.785,0.319-2.852,1.578-2.852,3.09c0,1.425,0.908,2.309,3.24,3.152
		c1.339,0.488,2.873,1.261,2.873,2.918c0,1.465-1.263,2.488-3.071,2.488c-1.154,0-2.158-0.301-2.896-0.617l-0.156,0.545
		c0.706,0.316,1.687,0.695,2.622,0.726l0.617,0.023v0.751v0.194h0.536v-0.325v-0.659l0.475-0.105
		C29.784,23.692,30.939,22.343,30.939,20.738z"/>
	<g>
		<path fill="#888888" d="M27.216,35.5c-9.647,0-17.5-7.852-17.5-17.5c0-9.647,7.853-17.5,17.5-17.5c9.649,0,17.5,7.853,17.5,17.5
			C44.716,27.648,36.866,35.5,27.216,35.5z M27.216,1.075c-9.332,0-16.925,7.594-16.925,16.925c0,9.331,7.594,16.925,16.925,16.925
			S44.141,27.331,44.141,18C44.141,8.668,36.548,1.075,27.216,1.075z"/>
	</g>
</g>
</svg>
