<?xml version="1.0" encoding="utf-8"?>
<!-- Generator: Adobe Illustrator 16.0.0, SVG Export Plug-In . SVG Version: 6.00 Build 0)  -->
<!DOCTYPE svg PUBLIC "-//W3C//DTD SVG 1.1//EN" "http://www.w3.org/Graphics/SVG/1.1/DTD/svg11.dtd">
<svg version="1.1" id="Layer_1" xmlns="http://www.w3.org/2000/svg" xmlns:xlink="http://www.w3.org/1999/xlink" x="0px" y="0px"
	 width="54px" height="35px" viewBox="0 0 54 35" enable-background="new 0 0 54 35" xml:space="preserve">
<g>
	<path fill="#00A1DF" d="M53.072,0.038H0.928c-0.469,0-0.851,0.388-0.851,0.864v33.272c0,0.477,0.382,0.864,0.851,0.864h52.145
		c0.469,0,0.851-0.387,0.851-0.864V0.901C53.923,0.426,53.541,0.038,53.072,0.038z M53.388,34.174c0,0.178-0.142,0.32-0.315,0.32
		H0.928c-0.174,0-0.315-0.143-0.315-0.32V0.901c0-0.176,0.142-0.32,0.315-0.32h52.145c0.174,0,0.315,0.145,0.315,0.32V34.174z"/>
	<rect x="5.021" y="20.274" fill="#00A1DF" width="35.371" height="0.535"/>
	<rect x="5.021" y="23.13" fill="#00A1DF" width="35.371" height="0.536"/>
	<path fill="#00A1DF" d="M33.344,6.514c0.27-0.224,0.451-0.538,0.451-0.938c0-0.57-0.368-0.95-0.865-1.088V4.475
		c0.491-0.184,0.717-0.551,0.717-0.943c0-0.4-0.22-0.701-0.523-0.865c-0.316-0.19-0.685-0.25-1.285-0.25
		c-0.49,0-1.014,0.04-1.272,0.092v4.338c0.22,0.033,0.582,0.066,1.066,0.066C32.497,6.913,33.026,6.768,33.344,6.514z M31.541,3.171
		c0.084-0.013,0.207-0.026,0.42-0.026c0.445,0,0.697,0.177,0.697,0.511c0,0.328-0.277,0.544-0.794,0.544h-0.323V3.171z
		 M31.541,4.913h0.336c0.49,0,0.885,0.178,0.885,0.623c0,0.466-0.395,0.637-0.84,0.637c-0.168,0-0.284,0-0.381-0.014V4.913z"/>
	<path fill="#00A1DF" d="M35.457,5.733h1.246l0.336,1.133h1.06L36.748,2.45h-1.291l-1.33,4.417h1.02L35.457,5.733z M35.857,4.049
		c0.07-0.256,0.136-0.591,0.2-0.852h0.013c0.064,0.261,0.143,0.589,0.22,0.852l0.271,0.937H35.6L35.857,4.049z"/>
	<path fill="#00A1DF" d="M42.285,2.45h-0.904V3.74c0,0.662,0.02,1.26,0.084,1.842h-0.02c-0.193-0.498-0.452-1.049-0.71-1.514
		L39.831,2.45h-1.148v4.417h0.903v-1.33c0-0.721-0.013-1.343-0.039-1.927l0.02-0.007c0.213,0.518,0.497,1.088,0.755,1.561
		l0.931,1.703h1.033V2.45z"/>
	<path fill="#00A1DF" d="M45.219,6.932c0.529,0,0.938-0.098,1.118-0.189l-0.149-0.781c-0.193,0.079-0.522,0.145-0.819,0.145
		c-0.879,0-1.396-0.557-1.396-1.442c0-0.983,0.606-1.461,1.389-1.461c0.349,0,0.627,0.078,0.826,0.164l0.2-0.793
		c-0.175-0.092-0.562-0.196-1.071-0.196c-1.317,0-2.377,0.839-2.377,2.346C42.939,5.981,43.715,6.932,45.219,6.932z"/>
	<path fill="#00A1DF" d="M48.638,6.939c1.271,0,2.138-0.878,2.138-2.328c0-1.217-0.73-2.233-2.066-2.233
		c-1.285,0-2.118,0.989-2.118,2.312C46.591,5.95,47.346,6.939,48.638,6.939z M48.683,3.171c0.679,0,1.054,0.681,1.054,1.474
		c0,0.859-0.382,1.501-1.047,1.501c-0.658,0-1.06-0.609-1.06-1.474C47.63,3.812,48.018,3.171,48.683,3.171z"/>
	<path fill="#00A1DF" d="M15.515,16.443V9.261c0-0.35-0.281-0.634-0.625-0.634H4.44c-0.344,0-0.624,0.284-0.624,0.634v7.182
		c0,0.349,0.28,0.634,0.624,0.634H14.89C15.233,17.077,15.515,16.792,15.515,16.443z M14.89,16.533H9.815
		c1.033-0.075,1.855-0.905,1.938-1.951h3.227v1.861C14.979,16.493,14.939,16.533,14.89,16.533z M7.653,14.038H4.352v-2.354h3.311
		c0.091,0.16,0.221,0.273,0.34,0.364c0.212,0.163,0.395,0.304,0.395,0.803c0,0.499-0.183,0.64-0.395,0.803
		C7.878,13.75,7.741,13.866,7.653,14.038z M8.324,14.088c0.243-0.187,0.607-0.467,0.607-1.236s-0.364-1.05-0.607-1.235
		c-0.174-0.135-0.229-0.184-0.229-0.326c0-0.877,0.704-1.593,1.569-1.593c0.866,0,1.569,0.716,1.569,1.593
		c0,0.099-0.004,0.105-0.158,0.187c-0.343,0.187-0.679,0.445-0.679,1.374s0.336,1.188,0.679,1.374
		c0.155,0.083,0.158,0.088,0.158,0.187c0,0.878-0.703,1.593-1.569,1.593c-0.865,0-1.569-0.715-1.569-1.593
		C8.096,14.271,8.15,14.221,8.324,14.088z M11.652,11.685h3.327v2.354h-3.315c-0.093-0.148-0.229-0.234-0.336-0.293
		c-0.203-0.11-0.396-0.213-0.396-0.894s0.192-0.784,0.396-0.894C11.432,11.902,11.56,11.822,11.652,11.685z M14.979,9.261v1.881
		h-3.225c-0.073-1.056-0.899-1.896-1.939-1.972h5.074C14.939,9.17,14.979,9.21,14.979,9.261z M4.44,9.17h5.075
		c-1.041,0.075-1.866,0.916-1.94,1.972H4.352V9.261C4.352,9.21,4.392,9.17,4.44,9.17z M4.352,16.443v-1.861h3.226
		c0.082,1.046,0.904,1.876,1.938,1.951H4.44C4.392,16.533,4.352,16.493,4.352,16.443z"/>
	<path fill="#00A1DF" d="M44.425,29.898c0-0.929,0.479-1.768,1.283-2.241l0.394-0.233l-0.394-0.232
		c-0.489-0.289-1.011-0.436-1.55-0.436c-1.707,0-3.094,1.41-3.094,3.142c0,1.732,1.387,3.141,3.094,3.141
		c0.539,0,1.061-0.146,1.55-0.435l0.394-0.232l-0.394-0.232C44.904,31.665,44.425,30.827,44.425,29.898z M44.158,32.501
		c-1.414,0-2.563-1.168-2.563-2.603c0-1.436,1.149-2.603,2.563-2.603c0.305,0,0.603,0.057,0.891,0.17
		c-0.721,0.592-1.154,1.487-1.154,2.433c0,0.945,0.434,1.841,1.154,2.432C44.761,32.444,44.463,32.501,44.158,32.501z"/>
	<path fill="#00A1DF" d="M48.051,26.757c-1.707,0-3.096,1.41-3.096,3.142c0,1.732,1.389,3.141,3.096,3.141
		c1.706,0,3.095-1.408,3.095-3.141C51.146,28.167,49.757,26.757,48.051,26.757z M48.051,32.501c-1.415,0-2.564-1.168-2.564-2.603
		c0-1.436,1.149-2.603,2.564-2.603c1.414,0,2.564,1.167,2.564,2.603C50.615,31.333,49.465,32.501,48.051,32.501z"/>
</g>
</svg>
