<?xml version="1.0" encoding="utf-8"?>
<!-- Generator: Adobe Illustrator 16.0.0, SVG Export Plug-In . SVG Version: 6.00 Build 0)  -->
<!DOCTYPE svg PUBLIC "-//W3C//DTD SVG 1.1//EN" "http://www.w3.org/Graphics/SVG/1.1/DTD/svg11.dtd">
<svg version="1.1" id="Layer_1" xmlns="http://www.w3.org/2000/svg" xmlns:xlink="http://www.w3.org/1999/xlink" x="0px" y="0px"
	 width="110px" height="100px" viewBox="0 0 110 100" enable-background="new 0 0 110 100" xml:space="preserve">
<g>
	<path fill="#FFFFFF" stroke="#00548B" stroke-width="4" stroke-miterlimit="10" d="M93.244,50.173
		c0,24.852-20.146,44.998-45,44.998c-24.852,0-45-20.146-45-44.998c0-24.855,20.148-45.002,45-45.002
		C73.098,5.171,93.244,25.317,93.244,50.173z"/>
	<circle fill="#2EA6D8" cx="92.04" cy="48.438" r="14.86"/>
	<g>
		<path fill="#FFFFFF" d="M93.244,55.944h-3.232v-8.852l0.031-1.456l0.053-1.591c-0.538,0.539-0.91,0.891-1.121,1.057l-1.758,1.413
			l-1.559-1.945l4.928-3.923h2.658V55.944z"/>
		<path fill="#FFFFFF" d="M97.85,54.449c0-0.586,0.156-1.028,0.471-1.329c0.314-0.3,0.771-0.449,1.371-0.449
			c0.578,0,1.027,0.152,1.344,0.459c0.318,0.307,0.477,0.748,0.477,1.319c0,0.551-0.16,0.984-0.48,1.304
			c-0.322,0.316-0.768,0.475-1.34,0.475c-0.586,0-1.041-0.154-1.361-0.466C98.01,55.452,97.85,55.015,97.85,54.449z"/>
	</g>
</g>
<g>
	<g id="_x30_kIZ2S.tif_2_">
		<g>
			<path fill-rule="evenodd" clip-rule="evenodd" fill="none" stroke="#888888" stroke-miterlimit="10" d="M43.807,58.517
				c0-2.615-0.033-5.23,0.017-7.842c0.017-0.924-0.239-1.609-0.919-2.256c-1.71-1.629-3.365-3.317-5.02-5.002
				c-1.162-1.19-1.26-2.413-0.33-3.303c0.881-0.839,2.072-0.73,3.199,0.357c1.246,1.203,3.725,4.751,8.752,4.751
				c3.348,0,6.592-3.142,7.732-4.175c1.721-1.561,2.84-1.91,3.836-0.867c0.987,1.029,0.734,2.123-0.87,3.729
				c-1.419,1.425-2.796,2.896-4.282,4.249c-0.902,0.821-1.193,1.709-1.178,2.906c0.061,4.875,0.025,9.75,0.025,14.63
				c0,0.4,0.012,0.802-0.006,1.202c-0.076,1.556-1.031,2.568-2.395,2.559c-1.281-0.008-2.322-0.985-2.375-2.441
				c-0.078-2.109,0.021-4.223-0.066-6.327c-0.029-0.616,0.572-1.782-0.68-1.761c-1.053,0.019-0.592,1.089-0.612,1.688
				c-0.063,1.959-0.001,3.921-0.034,5.883c-0.029,1.881-0.998,3.004-2.486,2.959c-1.432-0.041-2.295-1.113-2.306-2.945
				C43.793,63.844,43.807,61.181,43.807,58.517z"/>
		</g>
		
			<circle fill-rule="evenodd" clip-rule="evenodd" fill="none" stroke="#888888" stroke-miterlimit="10" cx="49.288" cy="39.077" r="4.81"/>
	</g>
</g>
</svg>
