<?xml version="1.0" encoding="utf-8"?>
<!-- Generator: Adobe Illustrator 16.0.0, SVG Export Plug-In . SVG Version: 6.00 Build 0)  -->
<!DOCTYPE svg PUBLIC "-//W3C//DTD SVG 1.1//EN" "http://www.w3.org/Graphics/SVG/1.1/DTD/svg11.dtd">
<svg version="1.1" id="Layer_1" xmlns="http://www.w3.org/2000/svg" xmlns:xlink="http://www.w3.org/1999/xlink" x="0px" y="0px"
	 width="110px" height="100px" viewBox="0 0 110 100" enable-background="new 0 0 110 100" xml:space="preserve">
<g>
	<path fill="#FFFFFF" stroke="#00548B" stroke-width="4" stroke-miterlimit="10" d="M93.078,50.173
		c0,24.852-20.147,44.998-45,44.998s-45-20.146-45-44.998c0-24.855,20.147-45.002,45-45.002S93.078,25.317,93.078,50.173z"/>
	<circle fill="#2EA6D8" cx="93.078" cy="48.437" r="14.86"/>
	<g>
		<path fill="#FFFFFF" d="M96.983,56.056H86.287v-2.25l3.841-3.883c1.138-1.166,1.881-1.972,2.229-2.422
			c0.35-0.449,0.602-0.867,0.755-1.252c0.152-0.381,0.229-0.779,0.229-1.192c0-0.614-0.169-1.071-0.508-1.371
			c-0.338-0.3-0.789-0.45-1.355-0.45c-0.593,0-1.168,0.137-1.727,0.408c-0.558,0.273-1.14,0.66-1.748,1.162l-1.757-2.084
			c0.753-0.639,1.377-1.094,1.873-1.359c0.495-0.264,1.036-0.469,1.622-0.611s1.242-0.215,1.967-0.215
			c0.957,0,1.801,0.176,2.533,0.521c0.732,0.35,1.301,0.84,1.706,1.468c0.404,0.628,0.605,1.345,0.605,2.153
			c0,0.706-0.123,1.367-0.371,1.986c-0.247,0.615-0.631,1.248-1.151,1.898c-0.519,0.648-1.436,1.572-2.746,2.771l-1.968,1.854v0.146
			h6.667V56.056z"/>
		<path fill="#FFFFFF" d="M98.888,54.558c0-0.583,0.156-1.028,0.471-1.328c0.314-0.301,0.771-0.45,1.371-0.45
			c0.579,0,1.027,0.155,1.344,0.462c0.318,0.307,0.477,0.745,0.477,1.316c0,0.554-0.161,0.987-0.48,1.304
			c-0.321,0.319-0.768,0.478-1.34,0.478c-0.586,0-1.041-0.156-1.36-0.466C99.048,55.562,98.888,55.123,98.888,54.558z"/>
	</g>
</g>
<g>
	<path fill="none" stroke="#888888" stroke-miterlimit="10" d="M63.561,44.894H53.52V34.521H35.303
		c-0.663,0-1.198,0.537-1.198,1.197v32.45c0,0.659,0.535,1.194,1.198,1.194h27.126c0.661,0,1.198-0.535,1.198-1.194L63.561,44.894z
		 M56.047,61.783H41.685c-0.66,0-1.197-0.536-1.197-1.196c0-0.659,0.537-1.197,1.197-1.197h14.362c0.661,0,1.198,0.538,1.198,1.197
		C57.245,61.247,56.708,61.783,56.047,61.783z M56.047,57.128H41.685c-0.66,0-1.197-0.534-1.197-1.195s0.537-1.194,1.197-1.194
		h14.362c0.661,0,1.198,0.533,1.198,1.194S56.708,57.128,56.047,57.128z M56.047,52.476H41.685c-0.66,0-1.197-0.537-1.197-1.199
		c0-0.659,0.537-1.198,1.197-1.198h14.362c0.661,0,1.198,0.539,1.198,1.198C57.245,51.938,56.708,52.476,56.047,52.476z"/>
	<line fill="none" stroke="#888888" stroke-miterlimit="10" x1="53.66" y1="34.362" x2="63.7" y2="44.737"/>
</g>
</svg>
