<?xml version="1.0" encoding="utf-8"?>
<!-- Generator: Adobe Illustrator 16.0.0, SVG Export Plug-In . SVG Version: 6.00 Build 0)  -->
<!DOCTYPE svg PUBLIC "-//W3C//DTD SVG 1.1//EN" "http://www.w3.org/Graphics/SVG/1.1/DTD/svg11.dtd">
<svg version="1.1" id="Layer_1" xmlns="http://www.w3.org/2000/svg" xmlns:xlink="http://www.w3.org/1999/xlink" x="0px" y="0px"
	 width="110px" height="100px" viewBox="0 0 110 100" enable-background="new 0 0 110 100" xml:space="preserve">
<g>
	<path fill="#FFFFFF" stroke="#00548B" stroke-width="4" stroke-miterlimit="10" d="M92.972,50.256
		c0,24.852-20.146,44.998-45,44.998c-24.853,0-45-20.146-45-44.998c0-24.855,20.147-45.002,45-45.002
		C72.826,5.254,92.972,25.401,92.972,50.256z"/>
	<circle fill="#2EA6D8" cx="92.973" cy="48.521" r="14.86"/>
	<g>
		<path fill="#FFFFFF" d="M96.28,44.262c0,0.957-0.289,1.768-0.867,2.438c-0.58,0.67-1.392,1.13-2.438,1.381v0.062
			c1.233,0.155,2.168,0.527,2.804,1.125c0.634,0.598,0.952,1.402,0.952,2.412c0,1.475-0.533,2.618-1.6,3.438
			c-1.069,0.82-2.593,1.23-4.575,1.23c-1.659,0-3.132-0.276-4.416-0.827V52.77c0.593,0.301,1.245,0.544,1.957,0.731
			c0.712,0.19,1.416,0.284,2.113,0.284c1.068,0,1.856-0.184,2.366-0.545c0.509-0.363,0.764-0.946,0.764-1.748
			c0-0.719-0.293-1.229-0.88-1.527c-0.585-0.301-1.521-0.451-2.804-0.451h-1.161v-2.479h1.183c1.186,0,2.052-0.155,2.6-0.467
			c0.548-0.31,0.821-0.842,0.821-1.596c0-1.158-0.726-1.737-2.177-1.737c-0.503,0-1.012,0.085-1.533,0.251
			c-0.519,0.166-1.097,0.457-1.731,0.869l-1.497-2.229c1.396-1.006,3.061-1.508,4.992-1.508c1.584,0,2.834,0.322,3.752,0.964
			S96.28,43.119,96.28,44.262z"/>
		<path fill="#FFFFFF" d="M98.782,54.643c0-0.586,0.158-1.029,0.472-1.329s0.771-0.45,1.37-0.45c0.578,0,1.027,0.152,1.346,0.459
			c0.316,0.308,0.475,0.748,0.475,1.32c0,0.551-0.16,0.984-0.48,1.303c-0.32,0.316-0.768,0.477-1.34,0.477
			c-0.585,0-1.04-0.155-1.36-0.467C98.943,55.646,98.782,55.208,98.782,54.643z"/>
	</g>
</g>
<g>
	<g>
		<path fill="none" stroke="#888888" stroke-miterlimit="10" d="M47.441,69.446c-1.29,0-2.548-0.471-3.527-1.344l-12.196-10.87
			c-2.188-1.95-2.379-5.302-0.431-7.487c1.948-2.187,5.299-2.379,7.487-0.432l7.203,6.42l10.063-18.514
			c1.397-2.574,4.616-3.527,7.19-2.127c2.573,1.397,3.526,4.615,2.127,7.189L52.101,66.674c-0.774,1.423-2.153,2.414-3.749,2.693
			C48.049,69.422,47.743,69.446,47.441,69.446z"/>
	</g>
</g>
</svg>
