<?xml version="1.0" encoding="utf-8"?>
<!-- Generator: Adobe Illustrator 16.0.0, SVG Export Plug-In . SVG Version: 6.00 Build 0)  -->
<!DOCTYPE svg PUBLIC "-//W3C//DTD SVG 1.1//EN" "http://www.w3.org/Graphics/SVG/1.1/DTD/svg11.dtd">
<svg version="1.1" id="Layer_1" xmlns="http://www.w3.org/2000/svg" xmlns:xlink="http://www.w3.org/1999/xlink" x="0px" y="0px"
	 width="54px" height="36px" viewBox="0 0 54 36" enable-background="new 0 0 54 36" xml:space="preserve">
<g>
	<path fill="#888888" d="M19.733,35.517c-0.011,0-0.021,0-0.031-0.001c-0.088-0.009-0.168-0.059-0.217-0.132l-3.182-4.856
		c-0.049-0.042-0.096-0.084-0.142-0.13l-0.052-0.051c-0.023-0.024-0.046-0.049-0.068-0.075l-4.844-3.17
		c-0.074-0.049-0.123-0.127-0.132-0.217c-0.009-0.089,0.022-0.176,0.085-0.24l1.023-1.022c0.063-0.064,0.154-0.096,0.244-0.084
		l4.1,0.483l11.826-11.818L14.936,8.088c-0.089-0.041-0.151-0.121-0.169-0.216c-0.017-0.095,0.014-0.193,0.082-0.262l2.442-2.44
		c0.064-0.064,0.153-0.094,0.245-0.084l17.787,2.144l5.875-5.871c0.529-0.53,1.233-0.82,1.984-0.82c0.74,0,1.434,0.285,1.951,0.803
		l0.051,0.051c0.521,0.521,0.795,1.211,0.771,1.945c-0.022,0.716-0.324,1.401-0.851,1.926l-5.985,5.982l2.115,17.527
		c0.012,0.09-0.02,0.18-0.084,0.244l-2.441,2.44c-0.069,0.069-0.167,0.099-0.263,0.082c-0.095-0.017-0.176-0.08-0.217-0.168
		l-6.032-13.208L20.536,29.816l0.514,4.347c0.011,0.09-0.021,0.181-0.085,0.244l-1.022,1.023
		C19.886,35.486,19.811,35.517,19.733,35.517z M11.827,26.806l4.572,2.992c0.021,0.014,0.04,0.03,0.057,0.049l0.031,0.034
		c0.014,0.016,0.027,0.032,0.042,0.047l0.052,0.052c0.043,0.042,0.09,0.083,0.137,0.124c0.022,0.018,0.042,0.04,0.058,0.064
		l3.005,4.587l0.664-0.664l-0.513-4.348c-0.011-0.09,0.021-0.18,0.085-0.244l12.065-12.058c0.068-0.068,0.167-0.1,0.262-0.083
		c0.095,0.018,0.177,0.081,0.217,0.169l6.032,13.208l2.038-2.037l-2.115-17.527c-0.011-0.09,0.021-0.181,0.085-0.245l6.086-6.083
		c0.419-0.419,0.66-0.96,0.678-1.526c0.019-0.568-0.193-1.103-0.598-1.508l-0.051-0.05c-0.406-0.406-0.951-0.63-1.533-0.63
		c-0.593,0-1.148,0.229-1.566,0.646L35.64,7.749c-0.064,0.064-0.154,0.095-0.244,0.084L17.608,5.689l-2.039,2.038l13.408,6.116
		c0.089,0.04,0.151,0.121,0.169,0.216c0.017,0.095-0.014,0.193-0.082,0.262l-12.228,12.22c-0.064,0.064-0.154,0.096-0.244,0.085
		l-4.102-0.484L11.827,26.806z"/>
</g>
</svg>
